pt-serif_italic.sfdir

StartChar: exclam
Encoding: 33 33 4
Width: 327
Flags: W
LayerCount: 2
Fore
SplineSet
146 218 m 1,0,-1
 150 394 l 1,1,-1
 210 690 l 1,2,3
 234 701 234 701 260 701 c 256,4,5
 286 701 286 701 306 690 c 1,6,-1
 240 394 l 1,7,-1
 172 218 l 1,8,-1
 146 218 l 1,0,-1
68 57 m 0,9,10
 68 87 68 87 87 105 c 128,-1,11
 106 123 106 123 136 123 c 0,12,13
 167 123 167 123 186 105 c 128,-1,14
 205 87 205 87 205 57 c 0,15,16
 205 28 205 28 186 10 c 128,-1,17
 167 -8 167 -8 136 -8 c 0,18,19
 106 -8 106 -8 87 10 c 128,-1,20
 68 28 68 28 68 57 c 0,9,10
EndSplineSet
EndChar

StartChar: numbersign
Encoding: 35 35 6
Width: 524
Flags: W
LayerCount: 2
Fore
SplineSet
317 233 m 1,0,-1
 174 233 l 1,1,-1
 96 58 l 1,2,-1
 43 58 l 1,3,-1
 122 233 l 1,4,-1
 41 233 l 1,5,-1
 66 279 l 1,6,-1
 142 279 l 1,7,-1
 210 429 l 1,8,-1
 133 429 l 1,9,-1
 157 475 l 1,10,-1
 230 475 l 1,11,-1
 306 642 l 1,12,-1
 358 642 l 1,13,-1
 283 475 l 1,14,-1
 425 475 l 1,15,-1
 501 642 l 1,16,-1
 553 642 l 1,17,-1
 477 475 l 1,18,-1
 557 475 l 1,19,-1
 530 429 l 1,20,-1
 457 429 l 1,21,-1
 389 279 l 1,22,-1
 466 279 l 1,23,-1
 438 233 l 1,24,-1
 369 233 l 1,25,-1
 290 58 l 1,26,-1
 238 58 l 1,27,-1
 317 233 l 1,0,-1
195 279 m 1,28,-1
 337 279 l 1,29,-1
 405 429 l 1,30,-1
 263 429 l 1,31,-1
 195 279 l 1,28,-1
EndSplineSet
EndChar

StartChar: dollar
Encoding: 36 36 7
Width: 524
Flags: W
LayerCount: 2
Fore
SplineSet
188 -12 m 1,0,1
 162 -11 162 -11 135.5 -5 c 128,-1,2
 109 1 109 1 86 9.5 c 128,-1,3
 63 18 63 18 44.5 27 c 128,-1,4
 26 36 26 36 17 44 c 1,5,6
 25 77 25 77 36.5 107 c 128,-1,7
 48 137 48 137 60 157 c 1,8,-1
 86 157 l 1,9,-1
 126 60 l 1,10,11
 145 41 145 41 199 40 c 1,12,-1
 260 321 l 1,13,14
 234 338 234 338 209 355.5 c 128,-1,15
 184 373 184 373 164.5 395.5 c 128,-1,16
 145 418 145 418 132.5 446.5 c 128,-1,17
 120 475 120 475 120 514 c 0,18,19
 120 550 120 550 134 584.5 c 128,-1,20
 148 619 148 619 175.5 646 c 128,-1,21
 203 673 203 673 244.5 690.5 c 128,-1,22
 286 708 286 708 341 711 c 1,23,-1
 352 760 l 1,24,-1
 404 760 l 1,25,-1
 393 711 l 1,26,27
 442 709 442 709 477 700 c 128,-1,28
 512 691 512 691 537 679 c 1,29,30
 528 646 528 646 512 623.5 c 128,-1,31
 496 601 496 601 481 586 c 1,32,-1
 455 586 l 1,33,-1
 419 654 l 1,34,35
 411 655 411 655 402 656 c 128,-1,36
 393 657 393 657 383 659 c 1,37,-1
 329 402 l 1,38,39
 353 386 353 386 377.5 368.5 c 128,-1,40
 402 351 402 351 421.5 327 c 128,-1,41
 441 303 441 303 453 271 c 128,-1,42
 465 239 465 239 465 196 c 0,43,44
 465 157 465 157 449.5 122 c 128,-1,45
 434 87 434 87 405 59.5 c 128,-1,46
 376 32 376 32 334 13.5 c 128,-1,47
 292 -5 292 -5 240 -10 c 1,48,-1
 228 -70 l 1,49,-1
 176 -70 l 1,50,-1
 188 -12 l 1,0,1
213 543 m 0,51,52
 213 502 213 502 233 476.5 c 128,-1,53
 253 451 253 451 283 431 c 1,54,-1
 332 659 l 1,55,56
 278 655 278 655 245.5 625 c 128,-1,57
 213 595 213 595 213 543 c 0,51,52
371 167 m 0,58,59
 371 209 371 209 351.5 238 c 128,-1,60
 332 267 332 267 303 290 c 1,61,-1
 250 43 l 1,62,63
 274 47 274 47 295.5 57 c 128,-1,64
 317 67 317 67 334 82.5 c 128,-1,65
 351 98 351 98 361 119 c 128,-1,66
 371 140 371 140 371 167 c 0,58,59
EndSplineSet
EndChar

StartChar: ampersand
Encoding: 38 38 9
Width: 872
Flags: W
LayerCount: 2
Fore
SplineSet
480 123 m 1,0,1
 455 150 455 150 427.5 186.5 c 128,-1,2
 400 223 400 223 374.5 261 c 128,-1,3
 349 299 349 299 328.5 334 c 128,-1,4
 308 369 308 369 298 392 c 1,5,6
 245 350 245 350 210 296.5 c 128,-1,7
 175 243 175 243 174 170 c 1,8,9
 175 113 175 113 211 76.5 c 128,-1,10
 247 40 247 40 310 40 c 0,11,12
 355 40 355 40 398 60.5 c 128,-1,13
 441 81 441 81 480 123 c 1,0,1
317 564 m 0,14,15
 317 530 317 530 331 495 c 128,-1,16
 345 460 345 460 365 431 c 1,17,18
 386 446 386 446 405.5 464 c 128,-1,19
 425 482 425 482 441 502.5 c 128,-1,20
 457 523 457 523 466.5 546 c 128,-1,21
 476 569 476 569 476 595 c 0,22,23
 476 630 476 630 462 650 c 128,-1,24
 448 670 448 670 414 669 c 1,25,26
 392 670 392 670 374 661 c 128,-1,27
 356 652 356 652 343.5 637.5 c 128,-1,28
 331 623 331 623 324 604 c 128,-1,29
 317 585 317 585 317 564 c 0,14,15
611 0 m 1,30,31
 592 14 592 14 564.5 34.5 c 128,-1,32
 537 55 537 55 507 92 c 1,33,34
 489 73 489 73 464 54.5 c 128,-1,35
 439 36 439 36 407.5 21 c 128,-1,36
 376 6 376 6 339 -3 c 128,-1,37
 302 -12 302 -12 262 -12 c 0,38,39
 213 -12 213 -12 176.5 1 c 128,-1,40
 140 14 140 14 115.5 36.5 c 128,-1,41
 91 59 91 59 79 88.5 c 128,-1,42
 67 118 67 118 67 151 c 0,43,44
 67 202 67 202 92 245.5 c 128,-1,45
 117 289 117 289 151.5 324.5 c 128,-1,46
 186 360 186 360 221.5 385 c 128,-1,47
 257 410 257 410 279 423 c 1,48,49
 257 455 257 455 249 488 c 128,-1,50
 241 521 241 521 241 556 c 0,51,52
 241 588 241 588 256 616.5 c 128,-1,53
 271 645 271 645 296 666 c 128,-1,54
 321 687 321 687 354 699.5 c 128,-1,55
 387 712 387 712 423 712 c 0,56,57
 550 712 550 712 550 611 c 0,58,59
 550 577 550 577 533.5 547 c 128,-1,60
 517 517 517 517 491.5 491.5 c 128,-1,61
 466 466 466 466 436 444.5 c 128,-1,62
 406 423 406 423 380 406 c 1,63,64
 410 355 410 355 452.5 301 c 128,-1,65
 495 247 495 247 543 193 c 1,66,67
 553 204 553 204 571 230 c 128,-1,68
 589 256 589 256 607 291 c 128,-1,69
 625 326 625 326 640.5 367.5 c 128,-1,70
 656 409 656 409 662 450 c 1,71,72
 630 456 630 456 608 474 c 1,73,-1
 613 500 l 1,74,-1
 816 500 l 1,75,-1
 810 474 l 1,76,77
 778 457 778 457 739 450 c 1,78,79
 717 391 717 391 693 343 c 128,-1,80
 669 295 669 295 646.5 258.5 c 128,-1,81
 624 222 624 222 605 196.5 c 128,-1,82
 586 171 586 171 575 159 c 1,83,84
 607 128 607 128 637.5 101.5 c 128,-1,85
 668 75 668 75 708 49 c 1,86,-1
 759 25 l 1,87,-1
 753 0 l 1,88,-1
 611 0 l 1,30,31
EndSplineSet
EndChar

StartChar: quotesingle
Encoding: 39 39 10
Width: 290
Flags: W
LayerCount: 2
Fore
SplineSet
117 713 m 1,0,1
 127 730 127 730 143 741 c 128,-1,2
 159 752 159 752 181 752 c 0,3,4
 221 752 221 752 228 713 c 1,5,-1
 144 495 l 1,6,-1
 118 495 l 1,7,-1
 117 713 l 1,0,1
EndSplineSet
Substitution2: "'c2sc' Capitals to Small Capitals lookup 12 subtable" uniF634
Substitution2: "'aalt' Access All Alternates lookup 0 subtable" uniF634
EndChar

StartChar: parenleft
Encoding: 40 40 11
Width: 343
Flags: W
LayerCount: 2
Fore
SplineSet
220 -210 m 1,0,1
 134 -136 134 -136 97.5 -55.5 c 128,-1,2
 61 25 61 25 61 117 c 0,3,4
 61 229 61 229 94.5 320 c 128,-1,5
 128 411 128 411 179.5 483 c 128,-1,6
 231 555 231 555 294 609.5 c 128,-1,7
 357 664 357 664 417 702 c 1,8,-1
 434 684 l 1,9,10
 385 642 385 642 334 585 c 128,-1,11
 283 528 283 528 241 458.5 c 128,-1,12
 199 389 199 389 172.5 306 c 128,-1,13
 146 223 146 223 147 129 c 1,14,15
 146 39 146 39 168 -39.5 c 128,-1,16
 190 -118 190 -118 249 -190 c 1,17,-1
 220 -210 l 1,0,1
EndSplineSet
Position2: "'case' Case-Sensitive Forms lookup 1 per glyph data 3" dx=0 dy=100 dh=0 dv=0
EndChar

StartChar: parenright
Encoding: 41 41 12
Width: 343
Flags: W
LayerCount: 2
Fore
SplineSet
-80 -190 m 1,0,1
 -36 -154 -36 -154 14.5 -98 c 128,-1,2
 65 -42 65 -42 107.5 30.5 c 128,-1,3
 150 103 150 103 178.5 191 c 128,-1,4
 207 279 207 279 207 379 c 0,5,6
 207 422 207 422 202.5 459 c 128,-1,7
 198 496 198 496 186.5 532 c 128,-1,8
 175 568 175 568 155 605 c 128,-1,9
 135 642 135 642 104 684 c 1,10,-1
 130 702 l 1,11,12
 216 624 216 624 253.5 543.5 c 128,-1,13
 291 463 291 463 291 369 c 0,14,15
 291 265 291 265 260 175.5 c 128,-1,16
 229 86 229 86 179 13 c 128,-1,17
 129 -60 129 -60 66.5 -116.5 c 128,-1,18
 4 -173 4 -173 -60 -210 c 1,19,-1
 -80 -190 l 1,0,1
EndSplineSet
Position2: "'case' Case-Sensitive Forms lookup 1 per glyph data 3" dx=0 dy=100 dh=0 dv=0
EndChar

StartChar: asterisk
Encoding: 42 42 13
Width: 465
Flags: W
LayerCount: 2
Fore
SplineSet
145 616 m 1,0,1
 142 623 142 623 144 633.5 c 128,-1,2
 146 644 146 644 152 654.5 c 128,-1,3
 158 665 158 665 166.5 673 c 128,-1,4
 175 681 175 681 184 683 c 1,5,-1
 284 596 l 1,6,7
 284 577 284 577 270 570 c 1,8,-1
 145 616 l 1,0,1
183 444 m 1,9,10
 175 445 175 445 167 452.5 c 128,-1,11
 159 460 159 460 153 470.5 c 128,-1,12
 147 481 147 481 144 492 c 128,-1,13
 141 503 141 503 144 511 c 1,14,-1
 269 554 l 1,15,16
 284 545 284 545 284 530 c 1,17,-1
 183 444 l 1,9,10
354 389 m 1,18,19
 349 382 349 382 339 379.5 c 128,-1,20
 329 377 329 377 317 377 c 256,21,22
 305 377 305 377 294 379.5 c 128,-1,23
 283 382 283 382 278 388 c 1,24,-1
 301 518 l 1,25,26
 317 526 317 526 333 518 c 1,27,-1
 354 389 l 1,18,19
485 511 m 1,28,29
 489 504 489 504 486.5 493 c 128,-1,30
 484 482 484 482 478 471.5 c 128,-1,31
 472 461 472 461 464 453 c 128,-1,32
 456 445 456 445 447 444 c 1,33,-1
 349 528 l 1,34,35
 349 544 349 544 362 553 c 1,36,-1
 485 511 l 1,28,29
448 683 m 1,37,38
 456 682 456 682 464 674.5 c 128,-1,39
 472 667 472 667 478 656.5 c 128,-1,40
 484 646 484 646 486.5 635 c 128,-1,41
 489 624 489 624 486 615 c 1,42,-1
 362 568 l 1,43,44
 348 578 348 578 348 594 c 1,45,-1
 448 683 l 1,37,38
277 737 m 1,46,47
 281 744 281 744 291.5 747 c 128,-1,48
 302 750 302 750 314 750 c 256,49,50
 326 750 326 750 337 747 c 128,-1,51
 348 744 348 744 353 737 c 1,52,-1
 331 607 l 1,53,54
 316 597 316 597 300 607 c 1,55,-1
 277 737 l 1,46,47
EndSplineSet
EndChar

StartChar: plus
Encoding: 43 43 14
Width: 524
Flags: W
LayerCount: 2
Fore
SplineSet
47 370 m 1,0,-1
 246 370 l 1,1,-1
 246 580 l 1,2,-1
 299 580 l 1,3,-1
 299 370 l 1,4,-1
 498 370 l 1,5,-1
 498 317 l 1,6,-1
 299 317 l 1,7,-1
 299 102 l 1,8,-1
 246 102 l 1,9,-1
 246 317 l 1,10,-1
 47 317 l 1,11,-1
 47 370 l 1,0,-1
EndSplineSet
EndChar

StartChar: comma
Encoding: 44 44 15
Width: 283
Flags: W
LayerCount: 2
Fore
SplineSet
-36 -149 m 1,0,1
 -15 -142 -15 -142 5 -127.5 c 128,-1,2
 25 -113 25 -113 41.5 -95 c 128,-1,3
 58 -77 58 -77 68.5 -55.5 c 128,-1,4
 79 -34 79 -34 82 -13 c 1,5,6
 72 -2 72 -2 54.5 9 c 128,-1,7
 37 20 37 20 23 25 c 1,8,9
 22 44 22 44 30 62 c 128,-1,10
 38 80 38 80 50 94 c 128,-1,11
 62 108 62 108 75.5 116.5 c 128,-1,12
 89 125 89 125 100 126 c 1,13,14
 134 121 134 121 151 102 c 128,-1,15
 168 83 168 83 168 45 c 256,16,17
 168 7 168 7 151.5 -29 c 128,-1,18
 135 -65 135 -65 108.5 -95 c 128,-1,19
 82 -125 82 -125 47.5 -147 c 128,-1,20
 13 -169 13 -169 -23 -179 c 1,21,-1
 -36 -149 l 1,0,1
EndSplineSet
EndChar

StartChar: period
Encoding: 46 46 17
Width: 271
Flags: W
LayerCount: 2
Fore
SplineSet
29 57 m 0,0,1
 29 87 29 87 48 105 c 128,-1,2
 67 123 67 123 97 123 c 0,3,4
 128 123 128 123 147 105 c 128,-1,5
 166 87 166 87 166 57 c 0,6,7
 166 28 166 28 147 10 c 128,-1,8
 128 -8 128 -8 97 -8 c 0,9,10
 67 -8 67 -8 48 10 c 128,-1,11
 29 28 29 28 29 57 c 0,0,1
EndSplineSet
EndChar

StartChar: zero
Encoding: 48 48 19
Width: 524
Flags: W
LayerCount: 2
Fore
SplineSet
19 203 m 0,0,1
 19 262 19 262 28 323 c 128,-1,2
 37 384 37 384 54.5 440.5 c 128,-1,3
 72 497 72 497 98.5 546.5 c 128,-1,4
 125 596 125 596 160.5 633 c 128,-1,5
 196 670 196 670 240.5 691 c 128,-1,6
 285 712 285 712 338 712 c 0,7,8
 397 712 397 712 433.5 690.5 c 128,-1,9
 470 669 470 669 490.5 636.5 c 128,-1,10
 511 604 511 604 518 567 c 128,-1,11
 525 530 525 530 525 499 c 0,12,13
 525 410 525 410 505 319.5 c 128,-1,14
 485 229 485 229 445.5 155 c 128,-1,15
 406 81 406 81 346 34.5 c 128,-1,16
 286 -12 286 -12 206 -12 c 0,17,18
 147 -12 147 -12 110 9.5 c 128,-1,19
 73 31 73 31 53 63.5 c 128,-1,20
 33 96 33 96 26 133.5 c 128,-1,21
 19 171 19 171 19 203 c 0,0,1
115 199 m 0,22,23
 115 170 115 170 119.5 140 c 128,-1,24
 124 110 124 110 135 85.5 c 128,-1,25
 146 61 146 61 165 45 c 128,-1,26
 184 29 184 29 213 29 c 0,27,28
 267 29 267 29 307.5 72 c 128,-1,29
 348 115 348 115 375 183.5 c 128,-1,30
 402 252 402 252 415.5 335.5 c 128,-1,31
 429 419 429 419 429 500 c 0,32,33
 429 530 429 530 424.5 560 c 128,-1,34
 420 590 420 590 409 614.5 c 128,-1,35
 398 639 398 639 379 654.5 c 128,-1,36
 360 670 360 670 331 671 c 1,37,38
 276 670 276 670 235.5 625.5 c 128,-1,39
 195 581 195 581 168 512 c 128,-1,40
 141 443 141 443 128 360 c 128,-1,41
 115 277 115 277 115 199 c 0,22,23
EndSplineSet
EndChar

StartChar: one
Encoding: 49 49 20
Width: 524
Flags: W
LayerCount: 2
Fore
SplineSet
378 0 m 1,0,-1
 86 0 l 1,1,-1
 92 29 l 1,2,3
 119 41 119 41 146.5 49 c 128,-1,4
 174 57 174 57 202 63 c 1,5,-1
 306 554 l 1,6,-1
 325 613 l 1,7,8
 296 602 296 602 263 597.5 c 128,-1,9
 230 593 230 593 198 594 c 1,10,-1
 198 618 l 1,11,12
 247 633 247 633 301 655 c 128,-1,13
 355 677 355 677 404 712 c 1,14,-1
 429 712 l 1,15,-1
 292 63 l 1,16,17
 341 52 341 52 384 29 c 1,18,-1
 378 0 l 1,0,-1
EndSplineSet
Substitution2: "'sups' Superscript lookup 13 subtable" onesuperior
Substitution2: "'sinf' Scientific Inferiors lookup 6 subtable" uni2081
Substitution2: "'subs' Subscript lookup 5 subtable" uni2081
Substitution2: "'numr' Numerators lookup 4 subtable" one.numerator
AlternateSubs2: "'aalt' Access All Alternates lookup 1 subtable" one.numerator uni2081 onesuperior
EndChar

StartChar: two
Encoding: 50 50 21
Width: 524
Flags: W
LayerCount: 2
Fore
SplineSet
182 505 m 1,0,-1
 157 505 l 1,1,2
 152 534 152 534 148.5 573 c 128,-1,3
 145 612 145 612 146 647 c 1,4,5
 188 676 188 676 234 694 c 128,-1,6
 280 712 280 712 337 712 c 0,7,8
 387 712 387 712 420.5 701 c 128,-1,9
 454 690 454 690 474.5 670.5 c 128,-1,10
 495 651 495 651 504 625.5 c 128,-1,11
 513 600 513 600 513 571 c 0,12,13
 513 513 513 513 478.5 451.5 c 128,-1,14
 444 390 444 390 391.5 330.5 c 128,-1,15
 339 271 339 271 277 216.5 c 128,-1,16
 215 162 215 162 161 119 c 2,17,-1
 111 80 l 1,18,-1
 111 76 l 1,19,-1
 167 82 l 1,20,-1
 339 82 l 1,21,-1
 412 194 l 1,22,-1
 437 194 l 1,23,24
 436 170 436 170 433 143.5 c 128,-1,25
 430 117 430 117 425.5 91 c 128,-1,26
 421 65 421 65 416 41.5 c 128,-1,27
 411 18 411 18 407 0 c 1,28,-1
 -6 0 l 1,29,-1
 1 32 l 1,30,31
 31 56 31 56 73 92 c 128,-1,32
 115 128 115 128 161.5 171.5 c 128,-1,33
 208 215 208 215 254 265 c 128,-1,34
 300 315 300 315 336.5 366.5 c 128,-1,35
 373 418 373 418 396 470 c 128,-1,36
 419 522 419 522 419 570 c 0,37,38
 419 610 419 610 394.5 635 c 128,-1,39
 370 660 370 660 322 660 c 0,40,41
 280 660 280 660 246 648 c 1,42,-1
 182 505 l 1,0,-1
EndSplineSet
Substitution2: "'sups' Superscript lookup 13 subtable" twosuperior
Substitution2: "'sinf' Scientific Inferiors lookup 6 subtable" uni2082
Substitution2: "'subs' Subscript lookup 5 subtable" uni2082
AlternateSubs2: "'aalt' Access All Alternates lookup 1 subtable" uni2082 twosuperior
EndChar

StartChar: three
Encoding: 51 51 22
Width: 524
Flags: W
LayerCount: 2
Fore
SplineSet
204 35 m 0,0,1
 245 35 245 35 277 51.5 c 128,-1,2
 309 68 309 68 330.5 95 c 128,-1,3
 352 122 352 122 363 156.5 c 128,-1,4
 374 191 374 191 373 227 c 1,5,6
 374 288 374 288 340.5 313.5 c 128,-1,7
 307 339 307 339 246 339 c 2,8,-1
 186 339 l 1,9,-1
 187 364 l 1,10,-1
 399 591 l 1,11,-1
 444 626 l 1,12,-1
 444 630 l 1,13,-1
 390 624 l 1,14,-1
 228 624 l 1,15,-1
 167 522 l 1,16,-1
 142 522 l 1,17,18
 143 565 143 565 146.5 614.5 c 128,-1,19
 150 664 150 664 158 700 c 1,20,-1
 544 700 l 1,21,-1
 543 669 l 1,22,-1
 337 446 l 1,23,-1
 278 402 l 1,24,-1
 278 400 l 1,25,-1
 313 407 l 1,26,27
 394 400 394 400 431.5 359 c 128,-1,28
 469 318 469 318 469 245 c 0,29,30
 469 194 469 194 452.5 147 c 128,-1,31
 436 100 436 100 401 65 c 128,-1,32
 366 30 366 30 311 9 c 128,-1,33
 256 -12 256 -12 178 -12 c 0,34,35
 155 -12 155 -12 129.5 -8.5 c 128,-1,36
 104 -5 104 -5 80.5 2 c 128,-1,37
 57 9 57 9 37.5 18 c 128,-1,38
 18 27 18 27 6 39 c 1,39,-1
 52 129 l 1,40,-1
 72 129 l 1,41,42
 77 122 77 122 85 111 c 128,-1,43
 93 100 93 100 102 88 c 128,-1,44
 111 76 111 76 119.5 64 c 128,-1,45
 128 52 128 52 134 43 c 1,46,47
 144 41 144 41 161 38 c 128,-1,48
 178 35 178 35 204 35 c 0,0,1
EndSplineSet
Substitution2: "'sups' Superscript lookup 13 subtable" threesuperior
Substitution2: "'sinf' Scientific Inferiors lookup 6 subtable" uni2083
Substitution2: "'subs' Subscript lookup 5 subtable" uni2083
AlternateSubs2: "'aalt' Access All Alternates lookup 1 subtable" uni2083 threesuperior
EndChar

StartChar: four
Encoding: 52 52 23
Width: 524
Flags: W
LayerCount: 2
Fore
SplineSet
415 0 m 1,0,-1
 156 0 l 1,1,-1
 161 29 l 1,2,3
 187 37 187 37 211 43 c 128,-1,4
 235 49 235 49 259 53 c 1,5,-1
 288 193 l 1,6,-1
 -17 193 l 1,7,-1
 -12 216 l 1,8,-1
 463 712 l 1,9,-1
 490 712 l 1,10,-1
 391 245 l 1,11,-1
 519 245 l 1,12,-1
 507 193 l 1,13,-1
 380 193 l 1,14,-1
 350 53 l 1,15,16
 367 49 367 49 385 43 c 128,-1,17
 403 37 403 37 420 29 c 1,18,-1
 415 0 l 1,0,-1
354 502 m 1,19,-1
 383 574 l 1,20,-1
 380 574 l 1,21,-1
 327 502 l 1,22,-1
 110 271 l 1,23,-1
 63 238 l 1,24,-1
 136 245 l 1,25,-1
 300 245 l 1,26,-1
 354 502 l 1,19,-1
EndSplineSet
Substitution2: "'sinf' Scientific Inferiors lookup 6 subtable" uni2084
Substitution2: "'subs' Subscript lookup 5 subtable" uni2084
Substitution2: "'aalt' Access All Alternates lookup 0 subtable" uni2084
EndChar

StartChar: five
Encoding: 53 53 24
Width: 524
Flags: W
LayerCount: 2
Fore
SplineSet
541 755 m 1,0,-1
 566 755 l 1,1,2
 563 740 563 740 557.5 721.5 c 128,-1,3
 552 703 552 703 545.5 684.5 c 128,-1,4
 539 666 539 666 531.5 649 c 128,-1,5
 524 632 524 632 518 621 c 1,6,-1
 271 621 l 1,7,-1
 207 428 l 1,8,-1
 256 428 l 2,9,10
 352 428 352 428 404.5 385 c 128,-1,11
 457 342 457 342 457 259 c 0,12,13
 457 199 457 199 437 149 c 128,-1,14
 417 99 417 99 380.5 63 c 128,-1,15
 344 27 344 27 292.5 7.5 c 128,-1,16
 241 -12 241 -12 177 -12 c 0,17,18
 153 -12 153 -12 129.5 -8.5 c 128,-1,19
 106 -5 106 -5 84 2 c 128,-1,20
 62 9 62 9 44.5 18.5 c 128,-1,21
 27 28 27 28 15 39 c 1,22,-1
 62 129 l 1,23,-1
 82 129 l 1,24,25
 87 122 87 122 93.5 111 c 128,-1,26
 100 100 100 100 107 88 c 128,-1,27
 114 76 114 76 121 64 c 128,-1,28
 128 52 128 52 134 43 c 1,29,30
 144 41 144 41 156 38 c 128,-1,31
 168 35 168 35 186 35 c 0,32,33
 234 35 234 35 269 51.5 c 128,-1,34
 304 68 304 68 326.5 96 c 128,-1,35
 349 124 349 124 360 160 c 128,-1,36
 371 196 371 196 371 234 c 0,37,38
 371 300 371 300 327.5 328 c 128,-1,39
 284 356 284 356 206 354 c 2,40,-1
 135 353 l 1,41,-1
 248 700 l 1,42,-1
 487 700 l 1,43,-1
 541 755 l 1,0,-1
EndSplineSet
EndChar

StartChar: six
Encoding: 54 54 25
Width: 524
Flags: W
LayerCount: 2
Fore
SplineSet
500 264 m 0,0,1
 500 217 500 217 483.5 168 c 128,-1,2
 467 119 467 119 433 79 c 128,-1,3
 399 39 399 39 347 13.5 c 128,-1,4
 295 -12 295 -12 224 -12 c 0,5,6
 189 -12 189 -12 155.5 -2.5 c 128,-1,7
 122 7 122 7 96 30 c 128,-1,8
 70 53 70 53 54.5 90 c 128,-1,9
 39 127 39 127 39 183 c 0,10,11
 39 264 39 264 72 347.5 c 128,-1,12
 105 431 105 431 167 504.5 c 128,-1,13
 229 578 229 578 317.5 634.5 c 128,-1,14
 406 691 406 691 517 718 c 1,15,-1
 521 688 l 1,16,17
 389 640 389 640 299.5 555.5 c 128,-1,18
 210 471 210 471 165 344 c 1,19,20
 189 373 189 373 233.5 394.5 c 128,-1,21
 278 416 278 416 332 416 c 0,22,23
 419 416 419 416 459.5 374 c 128,-1,24
 500 332 500 332 500 264 c 0,0,1
404 255 m 0,25,26
 404 308 404 308 379.5 336 c 128,-1,27
 355 364 355 364 295 364 c 0,28,29
 250 364 250 364 212 341 c 128,-1,30
 174 318 174 318 151 288 c 1,31,32
 148 280 148 280 145 266.5 c 128,-1,33
 142 253 142 253 140 239 c 128,-1,34
 138 225 138 225 136.5 211.5 c 128,-1,35
 135 198 135 198 135 191 c 0,36,37
 135 160 135 160 139.5 131.5 c 128,-1,38
 144 103 144 103 156 81.5 c 128,-1,39
 168 60 168 60 188.5 47 c 128,-1,40
 209 34 209 34 240 34 c 0,41,42
 283 34 283 34 314 56.5 c 128,-1,43
 345 79 345 79 365 112.5 c 128,-1,44
 385 146 385 146 394.5 184.5 c 128,-1,45
 404 223 404 223 404 255 c 0,25,26
EndSplineSet
EndChar

StartChar: seven
Encoding: 55 55 26
Width: 524
Flags: W
LayerCount: 2
Fore
SplineSet
129 521 m 1,0,-1
 104 521 l 1,1,2
 106 564 106 564 110 614 c 128,-1,3
 114 664 114 664 121 700 c 1,4,-1
 535 700 l 1,5,-1
 535 671 l 1,6,7
 464 585 464 585 411 504.5 c 128,-1,8
 358 424 358 424 316 343 c 128,-1,9
 274 262 274 262 240 177.5 c 128,-1,10
 206 93 206 93 173 0 c 1,11,-1
 73 0 l 1,12,13
 135 143 135 143 217 288.5 c 128,-1,14
 299 434 299 434 410 580 c 1,15,-1
 450 628 l 1,16,-1
 397 623 l 1,17,-1
 190 623 l 1,18,-1
 129 521 l 1,0,-1
EndSplineSet
EndChar

StartChar: eight
Encoding: 56 56 27
Width: 524
Flags: W
LayerCount: 2
Fore
SplineSet
12 136 m 0,0,1
 12 210 12 210 64.5 266 c 128,-1,2
 117 322 117 322 217 351 c 1,3,4
 168 386 168 386 143.5 424 c 128,-1,5
 119 462 119 462 119 511 c 0,6,7
 119 553 119 553 134.5 590 c 128,-1,8
 150 627 150 627 179 654 c 128,-1,9
 208 681 208 681 250 696.5 c 128,-1,10
 292 712 292 712 345 712 c 0,11,12
 430 712 430 712 471 675 c 128,-1,13
 512 638 512 638 512 576 c 0,14,15
 512 546 512 546 499.5 517 c 128,-1,16
 487 488 487 488 464 462 c 128,-1,17
 441 436 441 436 408 415 c 128,-1,18
 375 394 375 394 335 380 c 1,19,20
 363 361 363 361 385 342.5 c 128,-1,21
 407 324 407 324 422.5 302.5 c 128,-1,22
 438 281 438 281 446.5 255 c 128,-1,23
 455 229 455 229 455 195 c 0,24,25
 455 157 455 157 439 119.5 c 128,-1,26
 423 82 423 82 391 53 c 128,-1,27
 359 24 359 24 310.5 6 c 128,-1,28
 262 -12 262 -12 198 -12 c 0,29,30
 110 -12 110 -12 61 28.5 c 128,-1,31
 12 69 12 69 12 136 c 0,0,1
369 180 m 0,32,33
 369 206 369 206 359 227 c 128,-1,34
 349 248 349 248 332 266.5 c 128,-1,35
 315 285 315 285 291 302 c 128,-1,36
 267 319 267 319 239 336 c 1,37,38
 195 313 195 313 167.5 287 c 128,-1,39
 140 261 140 261 124.5 235 c 128,-1,40
 109 209 109 209 103.5 184.5 c 128,-1,41
 98 160 98 160 98 141 c 0,42,43
 98 93 98 93 128 63.5 c 128,-1,44
 158 34 158 34 209 34 c 0,45,46
 252 34 252 34 282.5 47.5 c 128,-1,47
 313 61 313 61 332 82 c 128,-1,48
 351 103 351 103 360 129 c 128,-1,49
 369 155 369 155 369 180 c 0,32,33
205 528 m 0,50,51
 205 508 205 508 214.5 489 c 128,-1,52
 224 470 224 470 239 452.5 c 128,-1,53
 254 435 254 435 273.5 420 c 128,-1,54
 293 405 293 405 314 393 c 1,55,56
 374 438 374 438 400.5 483 c 128,-1,57
 427 528 427 528 426 570 c 1,58,59
 427 610 427 610 405 637.5 c 128,-1,60
 383 665 383 665 330 665 c 0,61,62
 300 665 300 665 276.5 654 c 128,-1,63
 253 643 253 643 237 624 c 128,-1,64
 221 605 221 605 213 580 c 128,-1,65
 205 555 205 555 205 528 c 0,50,51
EndSplineSet
EndChar

StartChar: nine
Encoding: 57 57 28
Width: 524
Flags: W
LayerCount: 2
Fore
SplineSet
61 442 m 0,0,1
 61 489 61 489 77.5 538 c 128,-1,2
 94 587 94 587 128 627 c 128,-1,3
 162 667 162 667 213.5 692.5 c 128,-1,4
 265 718 265 718 336 718 c 0,5,6
 371 718 371 718 404.5 708.5 c 128,-1,7
 438 699 438 699 464 676 c 128,-1,8
 490 653 490 653 506 615.5 c 128,-1,9
 522 578 522 578 522 523 c 0,10,11
 522 442 522 442 489 358.5 c 128,-1,12
 456 275 456 275 393.5 201.5 c 128,-1,13
 331 128 331 128 242.5 71.5 c 128,-1,14
 154 15 154 15 43 -12 c 1,15,-1
 39 17 l 1,16,17
 172 65 172 65 261 149.5 c 128,-1,18
 350 234 350 234 395 361 c 1,19,20
 371 332 371 332 327 310.5 c 128,-1,21
 283 289 283 289 229 289 c 0,22,23
 141 289 141 289 101 331 c 128,-1,24
 61 373 61 373 61 442 c 0,0,1
157 451 m 0,25,26
 157 398 157 398 181 369.5 c 128,-1,27
 205 341 205 341 265 341 c 0,28,29
 310 341 310 341 348 364.5 c 128,-1,30
 386 388 386 388 409 418 c 1,31,32
 412 426 412 426 415 439.5 c 128,-1,33
 418 453 418 453 420.5 467 c 128,-1,34
 423 481 423 481 424.5 494 c 128,-1,35
 426 507 426 507 426 515 c 0,36,37
 426 546 426 546 421 574.5 c 128,-1,38
 416 603 416 603 404 624.5 c 128,-1,39
 392 646 392 646 371.5 658.5 c 128,-1,40
 351 671 351 671 320 671 c 0,41,42
 277 671 277 671 246 648.5 c 128,-1,43
 215 626 215 626 195.5 593 c 128,-1,44
 176 560 176 560 166.5 521.5 c 128,-1,45
 157 483 157 483 157 451 c 0,25,26
EndSplineSet
EndChar

StartChar: less
Encoding: 60 60 31
Width: 524
Flags: W
LayerCount: 2
Fore
SplineSet
54 324 m 1,0,-1
 54 355 l 1,1,-1
 439 590 l 1,2,-1
 464 546 l 1,3,-1
 214 395 l 1,4,-1
 128 355 l 1,5,-1
 213 324 l 1,6,-1
 478 168 l 1,7,-1
 438 103 l 1,8,-1
 54 324 l 1,0,-1
EndSplineSet
EndChar

StartChar: greater
Encoding: 62 62 33
Width: 524
Flags: W
LayerCount: 2
Fore
SplineSet
490 369 m 1,0,-1
 490 338 l 1,1,-1
 105 103 l 1,2,-1
 81 147 l 1,3,-1
 331 298 l 1,4,-1
 416 338 l 1,5,-1
 332 369 l 1,6,-1
 66 525 l 1,7,-1
 106 590 l 1,8,-1
 490 369 l 1,0,-1
EndSplineSet
EndChar

StartChar: question
Encoding: 63 63 34
Width: 494
Flags: W
LayerCount: 2
Fore
SplineSet
194 519 m 1,0,-1
 169 519 l 1,1,2
 167 533 167 533 164.5 551 c 128,-1,3
 162 569 162 569 160 589 c 128,-1,4
 158 609 158 609 158 629.5 c 128,-1,5
 158 650 158 650 160 670 c 1,6,7
 203 693 203 693 246.5 702.5 c 128,-1,8
 290 712 290 712 341 712 c 0,9,10
 421 712 421 712 464 676.5 c 128,-1,11
 507 641 507 641 507 578 c 0,12,13
 507 528 507 528 486 491.5 c 128,-1,14
 465 455 465 455 433 425.5 c 128,-1,15
 401 396 401 396 363 370.5 c 128,-1,16
 325 345 325 345 291 317.5 c 128,-1,17
 257 290 257 290 232 257 c 128,-1,18
 207 224 207 224 202 180 c 1,19,-1
 182 180 l 1,20,21
 178 232 178 232 193.5 271 c 128,-1,22
 209 310 209 310 234 341.5 c 128,-1,23
 259 373 259 373 290 399.5 c 128,-1,24
 321 426 321 426 347.5 452.5 c 128,-1,25
 374 479 374 479 392 507.5 c 128,-1,26
 410 536 410 536 411 573 c 1,27,28
 410 618 410 618 384.5 639 c 128,-1,29
 359 660 359 660 318 660 c 0,30,31
 286 660 286 660 264.5 655 c 128,-1,32
 243 650 243 650 233 642 c 1,33,-1
 194 519 l 1,0,-1
118 57 m 0,34,35
 118 87 118 87 137 105 c 128,-1,36
 156 123 156 123 186 123 c 0,37,38
 217 123 217 123 236 105 c 128,-1,39
 255 87 255 87 255 57 c 0,40,41
 255 28 255 28 236 10 c 128,-1,42
 217 -8 217 -8 186 -8 c 0,43,44
 156 -8 156 -8 137 10 c 128,-1,45
 118 28 118 28 118 57 c 0,34,35
EndSplineSet
EndChar

StartChar: at
Encoding: 64 64 35
Width: 1007
Flags: W
LayerCount: 2
Fore
SplineSet
655 474 m 1,0,1
 692 491 692 491 730 490 c 1,2,-1
 679 204 l 2,3,4
 673 171 673 171 670.5 144 c 128,-1,5
 668 117 668 117 670.5 97.5 c 128,-1,6
 673 78 673 78 681.5 67.5 c 128,-1,7
 690 57 690 57 707 57 c 0,8,9
 740 57 740 57 775 75.5 c 128,-1,10
 810 94 810 94 839.5 129 c 128,-1,11
 869 164 869 164 887.5 214 c 128,-1,12
 906 264 906 264 906 326 c 0,13,14
 906 402 906 402 877.5 464 c 128,-1,15
 849 526 849 526 798.5 569.5 c 128,-1,16
 748 613 748 613 680.5 636.5 c 128,-1,17
 613 660 613 660 536 660 c 0,18,19
 444 660 444 660 370.5 627.5 c 128,-1,20
 297 595 297 595 245 538.5 c 128,-1,21
 193 482 193 482 165 405.5 c 128,-1,22
 137 329 137 329 137 242 c 0,23,24
 137 153 137 153 166 84.5 c 128,-1,25
 195 16 195 16 247.5 -31.5 c 128,-1,26
 300 -79 300 -79 372.5 -103.5 c 128,-1,27
 445 -128 445 -128 532 -128 c 0,28,29
 561 -128 561 -128 598 -121 c 128,-1,30
 635 -114 635 -114 665 -100 c 1,31,-1
 681 -144 l 1,32,33
 646 -164 646 -164 604 -172 c 128,-1,34
 562 -180 562 -180 511 -180 c 0,35,36
 425 -180 425 -180 347 -154 c 128,-1,37
 269 -128 269 -128 209.5 -76 c 128,-1,38
 150 -24 150 -24 115 54 c 128,-1,39
 80 132 80 132 80 236 c 0,40,41
 80 345 80 345 116 433 c 128,-1,42
 152 521 152 521 214.5 583 c 128,-1,43
 277 645 277 645 361 678.5 c 128,-1,44
 445 712 445 712 541 712 c 0,45,46
 631 712 631 712 708.5 685.5 c 128,-1,47
 786 659 786 659 843 609.5 c 128,-1,48
 900 560 900 560 931.5 488.5 c 128,-1,49
 963 417 963 417 963 326 c 0,50,51
 963 261 963 261 941 203 c 128,-1,52
 919 145 919 145 880.5 101 c 128,-1,53
 842 57 842 57 792 31 c 128,-1,54
 742 5 742 5 687 5 c 0,55,56
 657 5 657 5 636 14.5 c 128,-1,57
 615 24 615 24 604 45.5 c 128,-1,58
 593 67 593 67 592.5 101 c 128,-1,59
 592 135 592 135 603 183 c 1,60,-1
 599 183 l 1,61,62
 588 151 588 151 568.5 119.5 c 128,-1,63
 549 88 549 88 524 62.5 c 128,-1,64
 499 37 499 37 470.5 21 c 128,-1,65
 442 5 442 5 413 5 c 0,66,67
 353 5 353 5 320.5 46.5 c 128,-1,68
 288 88 288 88 288 157 c 0,69,70
 288 221 288 221 309.5 282 c 128,-1,71
 331 343 331 343 367.5 391 c 128,-1,72
 404 439 404 439 452 468 c 128,-1,73
 500 497 500 497 553 497 c 0,74,75
 589 497 589 497 610 491 c 128,-1,76
 631 485 631 485 655 474 c 1,0,1
638 426 m 1,77,78
 622 436 622 436 605.5 441 c 128,-1,79
 589 446 589 446 563 445 c 1,80,81
 525 446 525 446 491 419.5 c 128,-1,82
 457 393 457 393 432 352 c 128,-1,83
 407 311 407 311 392.5 262.5 c 128,-1,84
 378 214 378 214 378 169 c 0,85,86
 378 121 378 121 393 94 c 128,-1,87
 408 67 408 67 450 67 c 0,88,89
 469 67 469 67 491 85.5 c 128,-1,90
 513 104 513 104 534.5 134 c 128,-1,91
 556 164 556 164 576.5 201.5 c 128,-1,92
 597 239 597 239 613 277 c 1,93,-1
 638 426 l 1,77,78
EndSplineSet
Position2: "'case' Case-Sensitive Forms lookup 1 per glyph data 0" dx=0 dy=51 dh=0 dv=0
EndChar

StartChar: A
Encoding: 65 65 36
Width: 674
Flags: W
LayerCount: 2
Fore
SplineSet
176 0 m 1,0,-1
 -49 0 l 1,1,-1
 -43 29 l 1,2,3
 -4 45 -4 45 35 53 c 1,4,-1
 430 712 l 1,5,-1
 456 712 l 1,6,-1
 569 53 l 1,7,8
 587 49 587 49 605.5 43.5 c 128,-1,9
 624 38 624 38 639 29 c 1,10,-1
 634 0 l 1,11,-1
 380 0 l 1,12,-1
 385 29 l 1,13,14
 430 46 430 46 473 53 c 1,15,-1
 443 236 l 1,16,-1
 208 236 l 1,17,-1
 101 53 l 1,18,19
 144 47 144 47 181 29 c 1,20,-1
 176 0 l 1,0,-1
237 288 m 1,21,-1
 435 288 l 1,22,-1
 403 500 l 1,23,-1
 401 586 l 1,24,-1
 399 586 l 1,25,-1
 359 498 l 1,26,-1
 237 288 l 1,21,-1
EndSplineSet
Position2: "'cpsp' Capital Spacing lookup 0 subtable" dx=40 dy=0 dh=80 dv=0
EndChar

StartChar: B
Encoding: 66 66 37
Width: 605
Flags: W
LayerCount: 2
Fore
SplineSet
-20 0 m 1,0,-1
 -15 29 l 1,1,2
 30 48 30 48 73 53 c 1,3,-1
 198 646 l 1,4,5
 178 650 178 650 159 656.5 c 128,-1,6
 140 663 140 663 121 671 c 1,7,-1
 128 700 l 1,8,-1
 234 700 l 2,9,10
 271 700 271 700 308 703 c 128,-1,11
 345 706 345 706 401 706 c 0,12,13
 441 706 441 706 477 699 c 128,-1,14
 513 692 513 692 540 677 c 128,-1,15
 567 662 567 662 583 637.5 c 128,-1,16
 599 613 599 613 599 577 c 0,17,18
 599 542 599 542 588.5 510.5 c 128,-1,19
 578 479 578 479 556 452.5 c 128,-1,20
 534 426 534 426 500.5 406 c 128,-1,21
 467 386 467 386 422 374 c 1,22,-1
 422 370 l 1,23,24
 445 368 445 368 469 360 c 128,-1,25
 493 352 493 352 512.5 336.5 c 128,-1,26
 532 321 532 321 544 297.5 c 128,-1,27
 556 274 556 274 556 242 c 0,28,29
 556 189 556 189 536 144 c 128,-1,30
 516 99 516 99 476.5 65.5 c 128,-1,31
 437 32 437 32 377 13 c 128,-1,32
 317 -6 317 -6 237 -6 c 0,33,34
 202 -6 202 -6 159.5 -3 c 128,-1,35
 117 0 117 0 76 0 c 2,36,-1
 -20 0 l 1,0,-1
256 46 m 1,37,38
 297 45 297 45 334 57 c 128,-1,39
 371 69 371 69 399 92 c 128,-1,40
 427 115 427 115 443.5 148.5 c 128,-1,41
 460 182 460 182 460 225 c 0,42,43
 460 258 460 258 448.5 279 c 128,-1,44
 437 300 437 300 415.5 311 c 128,-1,45
 394 322 394 322 364 326 c 128,-1,46
 334 330 334 330 297 330 c 2,47,-1
 221 330 l 1,48,-1
 163 54 l 1,49,50
 176 50 176 50 195 47.5 c 128,-1,51
 214 45 214 45 256 46 c 1,37,38
282 382 m 2,52,53
 299 382 299 382 322.5 383.5 c 128,-1,54
 346 385 346 385 363 387 c 1,55,56
 442 415 442 415 472.5 462.5 c 128,-1,57
 503 510 503 510 503 566 c 0,58,59
 503 605 503 605 475 629.5 c 128,-1,60
 447 654 447 654 381 654 c 0,61,62
 349 654 349 654 326.5 652.5 c 128,-1,63
 304 651 304 651 289 649 c 1,64,-1
 232 382 l 1,65,-1
 282 382 l 2,52,53
EndSplineSet
Position2: "'cpsp' Capital Spacing lookup 0 subtable" dx=40 dy=0 dh=80 dv=0
EndChar

StartChar: C
Encoding: 67 67 38
Width: 635
Flags: W
LayerCount: 2
Fore
SplineSet
557 182 m 1,0,-1
 582 182 l 1,1,2
 582 154 582 154 576.5 111.5 c 128,-1,3
 571 69 571 69 560 29 c 1,4,5
 540 18 540 18 517 10 c 128,-1,6
 494 2 494 2 469 -3 c 128,-1,7
 444 -8 444 -8 420 -10 c 128,-1,8
 396 -12 396 -12 375 -12 c 0,9,10
 290 -12 290 -12 231 12 c 128,-1,11
 172 36 172 36 135.5 75 c 128,-1,12
 99 114 99 114 82.5 162 c 128,-1,13
 66 210 66 210 66 258 c 0,14,15
 66 360 66 360 95 443.5 c 128,-1,16
 124 527 124 527 177.5 586.5 c 128,-1,17
 231 646 231 646 307.5 679 c 128,-1,18
 384 712 384 712 480 712 c 0,19,20
 546 712 546 712 592 703 c 128,-1,21
 638 694 638 694 669 678 c 1,22,23
 666 662 666 662 660.5 640.5 c 128,-1,24
 655 619 655 619 647.5 595 c 128,-1,25
 640 571 640 571 632 548 c 128,-1,26
 624 525 624 525 617 506 c 1,27,-1
 591 506 l 1,28,-1
 570 650 l 1,29,30
 557 655 557 655 530.5 657.5 c 128,-1,31
 504 660 504 660 479 660 c 0,32,33
 413 660 413 660 357 634.5 c 128,-1,34
 301 609 301 609 260 559 c 128,-1,35
 219 509 219 509 196 434 c 128,-1,36
 173 359 173 359 173 260 c 0,37,38
 173 198 173 198 194.5 155.5 c 128,-1,39
 216 113 216 113 248.5 87 c 128,-1,40
 281 61 281 61 319 50 c 128,-1,41
 357 39 357 39 391 40 c 1,42,43
 425 39 425 39 448.5 45 c 128,-1,44
 472 51 472 51 483 58 c 1,45,-1
 557 182 l 1,0,-1
EndSplineSet
Position2: "'cpsp' Capital Spacing lookup 0 subtable" dx=40 dy=0 dh=80 dv=0
EndChar

StartChar: D
Encoding: 68 68 39
Width: 702
Flags: W
LayerCount: 2
Fore
SplineSet
-20 0 m 1,0,-1
 -15 29 l 1,1,2
 26 46 26 46 73 53 c 1,3,-1
 198 646 l 1,4,5
 176 651 176 651 156.5 657.5 c 128,-1,6
 137 664 137 664 121 671 c 1,7,-1
 128 700 l 1,8,-1
 229 700 l 2,9,10
 246 700 246 700 269.5 701 c 128,-1,11
 293 702 293 702 317.5 703.5 c 128,-1,12
 342 705 342 705 365 706.5 c 128,-1,13
 388 708 388 708 403 708 c 0,14,15
 483 708 483 708 539 689 c 128,-1,16
 595 670 595 670 629.5 637.5 c 128,-1,17
 664 605 664 605 679.5 560.5 c 128,-1,18
 695 516 695 516 695 465 c 256,19,20
 695 414 695 414 686.5 358.5 c 128,-1,21
 678 303 678 303 658 250.5 c 128,-1,22
 638 198 638 198 604.5 151 c 128,-1,23
 571 104 571 104 520.5 68.5 c 128,-1,24
 470 33 470 33 401 12 c 128,-1,25
 332 -9 332 -9 242 -9 c 0,26,27
 227 -9 227 -9 206.5 -7.5 c 128,-1,28
 186 -6 186 -6 163 -4.5 c 128,-1,29
 140 -3 140 -3 117 -1.5 c 128,-1,30
 94 0 94 0 75 0 c 2,31,-1
 -20 0 l 1,0,-1
383 656 m 0,32,33
 357 656 357 656 330 655 c 128,-1,34
 303 654 303 654 289 652 c 1,35,-1
 161 46 l 1,36,37
 171 45 171 45 185.5 44.5 c 128,-1,38
 200 44 200 44 214.5 43.5 c 128,-1,39
 229 43 229 43 240.5 42.5 c 128,-1,40
 252 42 252 42 258 43 c 1,41,42
 352 42 352 42 415.5 80 c 128,-1,43
 479 118 479 118 517.5 179.5 c 128,-1,44
 556 241 556 241 572 317.5 c 128,-1,45
 588 394 588 394 588 471 c 0,46,47
 588 510 588 510 579 544 c 128,-1,48
 570 578 570 578 547 602.5 c 128,-1,49
 524 627 524 627 484.5 641.5 c 128,-1,50
 445 656 445 656 383 656 c 0,32,33
EndSplineSet
Position2: "'cpsp' Capital Spacing lookup 0 subtable" dx=40 dy=0 dh=80 dv=0
EndChar

StartChar: E
Encoding: 69 69 40
Width: 572
Flags: W
LayerCount: 2
Fore
SplineSet
601 700 m 1,0,1
 593 660 593 660 582 619 c 128,-1,2
 571 578 571 578 556 538 c 1,3,-1
 530 538 l 1,4,-1
 513 648 l 1,5,-1
 294 648 l 1,6,-1
 239 383 l 1,7,-1
 401 383 l 1,8,-1
 456 457 l 1,9,-1
 481 457 l 1,10,11
 473 407 473 407 462.5 356.5 c 128,-1,12
 452 306 452 306 438 255 c 1,13,-1
 413 255 l 1,14,-1
 390 331 l 1,15,-1
 227 331 l 1,16,-1
 169 52 l 1,17,-1
 398 52 l 1,18,-1
 473 172 l 1,19,-1
 498 172 l 1,20,21
 496 133 496 133 490 88.5 c 128,-1,22
 484 44 484 44 473 0 c 1,23,-1
 -20 0 l 1,24,-1
 -15 29 l 1,25,26
 26 46 26 46 73 53 c 1,27,-1
 198 646 l 1,28,29
 178 651 178 651 159 657 c 128,-1,30
 140 663 140 663 121 671 c 1,31,-1
 128 700 l 1,32,-1
 601 700 l 1,0,1
EndSplineSet
Position2: "'cpsp' Capital Spacing lookup 0 subtable" dx=40 dy=0 dh=80 dv=0
EndChar

StartChar: F
Encoding: 70 70 41
Width: 535
Flags: W
LayerCount: 2
Fore
SplineSet
159 53 m 1,0,1
 201 47 201 47 239 29 c 1,2,-1
 234 0 l 1,3,-1
 -20 0 l 1,4,-1
 -15 29 l 1,5,6
 3 37 3 37 23 43 c 128,-1,7
 43 49 43 49 63 53 c 1,8,-1
 188 646 l 1,9,10
 168 652 168 652 151 658 c 128,-1,11
 134 664 134 664 121 671 c 1,12,-1
 128 700 l 1,13,-1
 597 700 l 1,14,15
 588 661 588 661 577 620 c 128,-1,16
 566 579 566 579 551 538 c 1,17,-1
 525 538 l 1,18,-1
 508 648 l 1,19,-1
 284 648 l 1,20,-1
 224 363 l 1,21,-1
 399 363 l 1,22,-1
 453 437 l 1,23,-1
 478 437 l 1,24,25
 473 392 473 392 461.5 336.5 c 128,-1,26
 450 281 450 281 436 235 c 1,27,-1
 411 235 l 1,28,-1
 389 312 l 1,29,-1
 213 312 l 1,30,-1
 159 53 l 1,0,1
EndSplineSet
Position2: "'cpsp' Capital Spacing lookup 0 subtable" dx=40 dy=0 dh=80 dv=0
EndChar

StartChar: G
Encoding: 71 71 42
Width: 679
Flags: W
LayerCount: 2
Fore
SplineSet
571 48 m 1,0,1
 549 35 549 35 521 24 c 128,-1,2
 493 13 493 13 463.5 5 c 128,-1,3
 434 -3 434 -3 404.5 -7.5 c 128,-1,4
 375 -12 375 -12 350 -12 c 0,5,6
 217 -12 217 -12 141.5 58.5 c 128,-1,7
 66 129 66 129 66 259 c 0,8,9
 66 360 66 360 94.5 443.5 c 128,-1,10
 123 527 123 527 177 586.5 c 128,-1,11
 231 646 231 646 308.5 679 c 128,-1,12
 386 712 386 712 484 712 c 0,13,14
 550 712 550 712 597 703.5 c 128,-1,15
 644 695 644 695 675 678 c 1,16,17
 672 663 672 663 666.5 641 c 128,-1,18
 661 619 661 619 653.5 595 c 128,-1,19
 646 571 646 571 638 547.5 c 128,-1,20
 630 524 630 524 623 506 c 1,21,-1
 597 506 l 1,22,-1
 576 650 l 1,23,24
 558 655 558 655 531 657.5 c 128,-1,25
 504 660 504 660 479 660 c 0,26,27
 402 660 402 660 344.5 628.5 c 128,-1,28
 287 597 287 597 249 543 c 128,-1,29
 211 489 211 489 192 416.5 c 128,-1,30
 173 344 173 344 173 261 c 0,31,32
 173 190 173 190 193 146.5 c 128,-1,33
 213 103 213 103 242.5 79 c 128,-1,34
 272 55 272 55 305.5 47 c 128,-1,35
 339 39 339 39 367 40 c 1,36,37
 407 39 407 39 441 52 c 128,-1,38
 475 65 475 65 488 75 c 1,39,-1
 532 277 l 1,40,41
 506 279 506 279 484 286 c 128,-1,42
 462 293 462 293 441 301 c 1,43,-1
 448 330 l 1,44,-1
 693 330 l 1,45,-1
 687 301 l 1,46,47
 676 294 676 294 660 288 c 128,-1,48
 644 282 644 282 619 277 c 1,49,-1
 571 48 l 1,0,1
EndSplineSet
Position2: "'cpsp' Capital Spacing lookup 0 subtable" dx=40 dy=0 dh=80 dv=0
EndChar

StartChar: H
Encoding: 72 72 43
Width: 719
Flags: W
LayerCount: 2
Fore
SplineSet
233 0 m 1,0,-1
 -20 0 l 1,1,-1
 -15 29 l 1,2,3
 7 39 7 39 29 44.5 c 128,-1,4
 51 50 51 50 73 53 c 1,5,-1
 198 646 l 1,6,7
 153 655 153 655 121 671 c 1,8,-1
 128 700 l 1,9,-1
 381 700 l 1,10,-1
 375 671 l 1,11,12
 358 662 358 662 336 656 c 128,-1,13
 314 650 314 650 294 646 c 1,14,-1
 239 385 l 1,15,-1
 553 385 l 1,16,-1
 609 646 l 1,17,18
 589 651 589 651 571.5 656.5 c 128,-1,19
 554 662 554 662 538 671 c 1,20,-1
 545 700 l 1,21,-1
 798 700 l 1,22,-1
 792 671 l 1,23,24
 772 661 772 661 749.5 655.5 c 128,-1,25
 727 650 727 650 705 646 c 1,26,-1
 579 53 l 1,27,28
 624 45 624 45 655 29 c 1,29,-1
 650 0 l 1,30,-1
 397 0 l 1,31,-1
 402 29 l 1,32,33
 421 37 421 37 441.5 43 c 128,-1,34
 462 49 462 49 483 53 c 1,35,-1
 542 333 l 1,36,-1
 227 333 l 1,37,-1
 169 53 l 1,38,39
 187 49 187 49 205 43 c 128,-1,40
 223 37 223 37 238 29 c 1,41,-1
 233 0 l 1,0,-1
EndSplineSet
Position2: "'cpsp' Capital Spacing lookup 0 subtable" dx=40 dy=0 dh=80 dv=0
EndChar

StartChar: I
Encoding: 73 73 44
Width: 343
Flags: W
LayerCount: 2
Fore
SplineSet
255 0 m 1,0,-1
 -1 0 l 1,1,-1
 4 29 l 1,2,3
 48 47 48 47 90 53 c 1,4,-1
 215 646 l 1,5,6
 195 650 195 650 177 656.5 c 128,-1,7
 159 663 159 663 140 671 c 1,8,-1
 147 700 l 1,9,-1
 403 700 l 1,10,-1
 397 671 l 1,11,12
 377 663 377 663 354 656.5 c 128,-1,13
 331 650 331 650 311 646 c 1,14,-1
 186 53 l 1,15,16
 206 49 206 49 225.5 43 c 128,-1,17
 245 37 245 37 260 29 c 1,18,-1
 255 0 l 1,0,-1
EndSplineSet
Position2: "'cpsp' Capital Spacing lookup 0 subtable" dx=40 dy=0 dh=80 dv=0
EndChar

StartChar: J
Encoding: 74 74 45
Width: 331
Flags: W
LayerCount: 2
Fore
SplineSet
136 700 m 1,0,-1
 391 700 l 1,1,-1
 386 671 l 1,2,3
 366 662 366 662 343 656 c 128,-1,4
 320 650 320 650 300 646 c 1,5,-1
 182 86 l 2,6,7
 167 17 167 17 141.5 -28 c 128,-1,8
 116 -73 116 -73 86.5 -100.5 c 128,-1,9
 57 -128 57 -128 27.5 -141.5 c 128,-1,10
 -2 -155 -2 -155 -25 -160 c 1,11,-1
 -32 -145 l 1,12,13
 -12 -129 -12 -129 4.5 -112.5 c 128,-1,14
 21 -96 21 -96 35 -71.5 c 128,-1,15
 49 -47 49 -47 61 -12 c 128,-1,16
 73 23 73 23 84 75 c 2,17,-1
 204 646 l 1,18,19
 161 656 161 656 130 671 c 1,20,-1
 136 700 l 1,0,-1
EndSplineSet
Position2: "'cpsp' Capital Spacing lookup 0 subtable" dx=40 dy=0 dh=80 dv=0
EndChar

StartChar: K
Encoding: 75 75 46
Width: 637
Flags: W
LayerCount: 2
Fore
SplineSet
476 700 m 1,0,-1
 703 700 l 1,1,-1
 696 671 l 1,2,3
 678 662 678 662 656 656 c 128,-1,4
 634 650 634 650 615 646 c 1,5,-1
 356 376 l 1,6,7
 374 343 374 343 397.5 303 c 128,-1,8
 421 263 421 263 447.5 220 c 128,-1,9
 474 177 474 177 502.5 133 c 128,-1,10
 531 89 531 89 559 49 c 1,11,-1
 602 25 l 1,12,-1
 597 0 l 1,13,-1
 476 0 l 1,14,-1
 447 24 l 1,15,16
 402 93 402 93 360 173 c 128,-1,17
 318 253 318 253 281 335 c 1,18,-1
 228 335 l 1,19,-1
 169 53 l 1,20,21
 210 45 210 45 238 29 c 1,22,-1
 233 0 l 1,23,-1
 -20 0 l 1,24,-1
 -15 29 l 1,25,26
 30 47 30 47 73 53 c 1,27,-1
 198 646 l 1,28,29
 176 650 176 650 156.5 656 c 128,-1,30
 137 662 137 662 121 671 c 1,31,-1
 128 700 l 1,32,-1
 381 700 l 1,33,-1
 375 671 l 1,34,35
 341 655 341 655 294 646 c 1,36,-1
 236 369 l 1,37,-1
 296 383 l 1,38,-1
 536 646 l 1,39,40
 516 651 516 651 500 656.5 c 128,-1,41
 484 662 484 662 469 671 c 1,42,-1
 476 700 l 1,0,-1
EndSplineSet
Position2: "'cpsp' Capital Spacing lookup 0 subtable" dx=40 dy=0 dh=80 dv=0
EndChar

StartChar: L
Encoding: 76 76 47
Width: 538
Flags: W
LayerCount: 2
Fore
SplineSet
128 700 m 1,0,-1
 402 700 l 1,1,-1
 395 671 l 1,2,3
 370 662 370 662 344.5 655.5 c 128,-1,4
 319 649 319 649 294 646 c 1,5,-1
 169 52 l 1,6,-1
 398 52 l 1,7,-1
 491 213 l 1,8,-1
 517 213 l 1,9,10
 515 192 515 192 512 164.5 c 128,-1,11
 509 137 509 137 504.5 107.5 c 128,-1,12
 500 78 500 78 494.5 50 c 128,-1,13
 489 22 489 22 483 0 c 1,14,-1
 -20 0 l 1,15,-1
 -15 29 l 1,16,17
 12 40 12 40 33 45 c 128,-1,18
 54 50 54 50 73 53 c 1,19,-1
 198 646 l 1,20,21
 151 655 151 655 121 671 c 1,22,-1
 128 700 l 1,0,-1
EndSplineSet
Position2: "'cpsp' Capital Spacing lookup 0 subtable" dx=40 dy=0 dh=80 dv=0
EndChar

StartChar: M
Encoding: 77 77 48
Width: 857
Flags: W
LayerCount: 2
Fore
SplineSet
787 0 m 1,0,-1
 539 0 l 1,1,-1
 544 29 l 1,2,3
 566 37 566 37 587 42.5 c 128,-1,4
 608 48 608 48 631 53 c 1,5,-1
 725 503 l 1,6,-1
 755 620 l 1,7,-1
 747 620 l 1,8,-1
 693 513 l 1,9,-1
 377 0 l 1,10,-1
 351 0 l 1,11,-1
 264 513 l 1,12,-1
 253 630 l 1,13,-1
 244 630 l 1,14,-1
 218 503 l 1,15,-1
 123 53 l 1,16,17
 141 49 141 49 159 43 c 128,-1,18
 177 37 177 37 194 29 c 1,19,-1
 188 0 l 1,20,-1
 -20 0 l 1,21,-1
 -15 29 l 1,22,23
 25 46 25 46 72 54 c 1,24,-1
 197 646 l 1,25,26
 177 650 177 650 157 656.5 c 128,-1,27
 137 663 137 663 120 671 c 1,28,-1
 126 700 l 1,29,-1
 334 700 l 1,30,-1
 405 243 l 1,31,-1
 417 140 l 1,32,-1
 418 140 l 1,33,-1
 470 245 l 1,34,-1
 752 700 l 1,35,-1
 936 700 l 1,36,-1
 929 671 l 1,37,38
 890 654 890 654 848 646 c 1,39,-1
 722 52 l 1,40,41
 742 48 742 48 760 42.5 c 128,-1,42
 778 37 778 37 792 29 c 1,43,-1
 787 0 l 1,0,-1
EndSplineSet
Position2: "'cpsp' Capital Spacing lookup 0 subtable" dx=40 dy=0 dh=80 dv=0
EndChar

StartChar: N
Encoding: 78 78 49
Width: 723
Flags: W
LayerCount: 2
Fore
SplineSet
588 700 m 1,0,-1
 801 700 l 1,1,-1
 795 671 l 1,2,3
 775 657 775 657 751 647 c 128,-1,4
 727 637 727 637 705 631 c 1,5,-1
 568 -12 l 1,6,-1
 514 -12 l 1,7,-1
 263 539 l 1,8,-1
 242 617 l 1,9,-1
 239 617 l 1,10,-1
 229 539 l 1,11,-1
 129 64 l 1,12,13
 147 59 147 59 165 50 c 128,-1,14
 183 41 183 41 198 29 c 1,15,-1
 192 0 l 1,16,-1
 -20 0 l 1,17,-1
 -15 29 l 1,18,19
 28 55 28 55 75 64 c 1,20,-1
 197 637 l 1,21,22
 178 645 178 645 160.5 654 c 128,-1,23
 143 663 143 663 129 672 c 1,24,-1
 134 700 l 1,25,-1
 300 700 l 1,26,-1
 515 225 l 1,27,-1
 545 139 l 1,28,-1
 549 139 l 1,29,-1
 565 225 l 1,30,-1
 651 631 l 1,31,32
 611 648 611 648 582 671 c 1,33,-1
 588 700 l 1,0,-1
EndSplineSet
Position2: "'cpsp' Capital Spacing lookup 0 subtable" dx=40 dy=0 dh=80 dv=0
EndChar

StartChar: O
Encoding: 79 79 50
Width: 730
Flags: W
LayerCount: 2
Fore
SplineSet
66 278 m 0,0,1
 66 369 66 369 93.5 448 c 128,-1,2
 121 527 121 527 173 585.5 c 128,-1,3
 225 644 225 644 298 678 c 128,-1,4
 371 712 371 712 463 712 c 0,5,6
 536 712 536 712 586 688 c 128,-1,7
 636 664 636 664 666.5 625 c 128,-1,8
 697 586 697 586 710.5 535.5 c 128,-1,9
 724 485 724 485 724 431 c 0,10,11
 724 351 724 351 701.5 271.5 c 128,-1,12
 679 192 679 192 632 129 c 128,-1,13
 585 66 585 66 513.5 27 c 128,-1,14
 442 -12 442 -12 344 -12 c 0,15,16
 272 -12 272 -12 219.5 11.5 c 128,-1,17
 167 35 167 35 133 74.5 c 128,-1,18
 99 114 99 114 82.5 166.5 c 128,-1,19
 66 219 66 219 66 278 c 0,0,1
173 277 m 0,20,21
 173 222 173 222 187.5 178 c 128,-1,22
 202 134 202 134 227.5 103 c 128,-1,23
 253 72 253 72 287.5 55.5 c 128,-1,24
 322 39 322 39 363 40 c 1,25,26
 436 39 436 39 484.5 75.5 c 128,-1,27
 533 112 533 112 562.5 169.5 c 128,-1,28
 592 227 592 227 604.5 296.5 c 128,-1,29
 617 366 617 366 617 432 c 0,30,31
 617 483 617 483 605.5 525 c 128,-1,32
 594 567 594 567 571 597 c 128,-1,33
 548 627 548 627 514.5 643.5 c 128,-1,34
 481 660 481 660 437 660 c 0,35,36
 368 660 368 660 318 624 c 128,-1,37
 268 588 268 588 235.5 532 c 128,-1,38
 203 476 203 476 188 408 c 128,-1,39
 173 340 173 340 173 277 c 0,20,21
EndSplineSet
Position2: "'cpsp' Capital Spacing lookup 0 subtable" dx=40 dy=0 dh=80 dv=0
EndChar

StartChar: P
Encoding: 80 80 51
Width: 585
Flags: W
LayerCount: 2
Fore
SplineSet
169 53 m 1,0,1
 195 50 195 50 217.5 43.5 c 128,-1,2
 240 37 240 37 259 29 c 1,3,-1
 254 0 l 1,4,-1
 -20 0 l 1,5,-1
 -15 29 l 1,6,7
 8 39 8 39 29.5 44 c 128,-1,8
 51 49 51 49 73 53 c 1,9,-1
 198 646 l 1,10,11
 176 650 176 650 157 656.5 c 128,-1,12
 138 663 138 663 121 671 c 1,13,-1
 128 700 l 1,14,-1
 218 700 l 2,15,16
 258 700 258 700 305.5 704 c 128,-1,17
 353 708 353 708 396 708 c 0,18,19
 444 708 444 708 484.5 698.5 c 128,-1,20
 525 689 525 689 553.5 668.5 c 128,-1,21
 582 648 582 648 598 617.5 c 128,-1,22
 614 587 614 587 614 545 c 0,23,24
 614 486 614 486 592.5 436 c 128,-1,25
 571 386 571 386 530.5 349 c 128,-1,26
 490 312 490 312 433 291 c 128,-1,27
 376 270 376 270 306 270 c 0,28,29
 301 270 301 270 289.5 270 c 128,-1,30
 278 270 278 270 264.5 270.5 c 128,-1,31
 251 271 251 271 237.5 272 c 128,-1,32
 224 273 224 273 215 274 c 1,33,-1
 169 53 l 1,0,1
370 656 m 0,34,35
 346 656 346 656 327.5 654.5 c 128,-1,36
 309 653 309 653 295 651 c 1,37,-1
 227 327 l 1,38,39
 232 326 232 326 241.5 325 c 128,-1,40
 251 324 251 324 261.5 323.5 c 128,-1,41
 272 323 272 323 281.5 322.5 c 128,-1,42
 291 322 291 322 297 322 c 0,43,44
 401 322 401 322 454 381.5 c 128,-1,45
 507 441 507 441 507 544 c 0,46,47
 507 569 507 569 501.5 589.5 c 128,-1,48
 496 610 496 610 480.5 625 c 128,-1,49
 465 640 465 640 438.5 648 c 128,-1,50
 412 656 412 656 370 656 c 0,34,35
EndSplineSet
Position2: "'cpsp' Capital Spacing lookup 0 subtable" dx=40 dy=0 dh=80 dv=0
EndChar

StartChar: Q
Encoding: 81 81 52
Width: 730
Flags: W
LayerCount: 2
Fore
SplineSet
742 -115 m 1,0,1
 694 -151 694 -151 647 -176.5 c 128,-1,2
 600 -202 600 -202 551 -201 c 0,3,4
 510 -201 510 -201 468.5 -186 c 128,-1,5
 427 -171 427 -171 380.5 -150 c 128,-1,6
 334 -129 334 -129 281 -106 c 128,-1,7
 228 -83 228 -83 165 -66 c 1,8,-1
 200 -46 l 1,9,10
 247 -40 247 -40 290.5 -46 c 128,-1,11
 334 -52 334 -52 375.5 -64 c 128,-1,12
 417 -76 417 -76 459 -89.5 c 128,-1,13
 501 -103 501 -103 545 -111.5 c 128,-1,14
 589 -120 589 -120 637 -119 c 128,-1,15
 685 -118 685 -118 740 -101 c 1,16,-1
 742 -115 l 1,0,1
66 278 m 0,17,18
 66 369 66 369 93.5 448 c 128,-1,19
 121 527 121 527 173 585.5 c 128,-1,20
 225 644 225 644 298 678 c 128,-1,21
 371 712 371 712 463 712 c 0,22,23
 536 712 536 712 586 688 c 128,-1,24
 636 664 636 664 666.5 625 c 128,-1,25
 697 586 697 586 710.5 535.5 c 128,-1,26
 724 485 724 485 724 431 c 0,27,28
 724 351 724 351 701.5 271.5 c 128,-1,29
 679 192 679 192 632 129 c 128,-1,30
 585 66 585 66 513.5 27 c 128,-1,31
 442 -12 442 -12 344 -12 c 0,32,33
 272 -12 272 -12 219.5 11.5 c 128,-1,34
 167 35 167 35 133 74.5 c 128,-1,35
 99 114 99 114 82.5 166.5 c 128,-1,36
 66 219 66 219 66 278 c 0,17,18
173 277 m 0,37,38
 173 222 173 222 187.5 178 c 128,-1,39
 202 134 202 134 227.5 103 c 128,-1,40
 253 72 253 72 287.5 55.5 c 128,-1,41
 322 39 322 39 363 40 c 1,42,43
 436 39 436 39 484.5 75.5 c 128,-1,44
 533 112 533 112 562.5 169.5 c 128,-1,45
 592 227 592 227 604.5 296.5 c 128,-1,46
 617 366 617 366 617 432 c 0,47,48
 617 483 617 483 605.5 525 c 128,-1,49
 594 567 594 567 571 597 c 128,-1,50
 548 627 548 627 514.5 643.5 c 128,-1,51
 481 660 481 660 437 660 c 0,52,53
 368 660 368 660 318 624 c 128,-1,54
 268 588 268 588 235.5 532 c 128,-1,55
 203 476 203 476 188 408 c 128,-1,56
 173 340 173 340 173 277 c 0,37,38
EndSplineSet
Position2: "'cpsp' Capital Spacing lookup 0 subtable" dx=40 dy=0 dh=80 dv=0
EndChar

StartChar: R
Encoding: 82 82 53
Width: 627
Flags: W
LayerCount: 2
Fore
SplineSet
169 53 m 1,0,1
 213 45 213 45 248 29 c 1,2,-1
 243 0 l 1,3,-1
 -20 0 l 1,4,-1
 -15 29 l 1,5,6
 9 39 9 39 30.5 44 c 128,-1,7
 52 49 52 49 73 53 c 1,8,-1
 198 646 l 1,9,10
 174 652 174 652 154.5 658 c 128,-1,11
 135 664 135 664 121 671 c 1,12,-1
 128 700 l 1,13,-1
 216 700 l 2,14,15
 256 700 256 700 304.5 704 c 128,-1,16
 353 708 353 708 397 708 c 0,17,18
 496 708 496 708 544.5 665.5 c 128,-1,19
 593 623 593 623 593 545 c 0,20,21
 593 506 593 506 579.5 470 c 128,-1,22
 566 434 566 434 541.5 405 c 128,-1,23
 517 376 517 376 481.5 354.5 c 128,-1,24
 446 333 446 333 401 322 c 1,25,26
 430 254 430 254 464.5 187 c 128,-1,27
 499 120 499 120 536 54 c 1,28,-1
 583 25 l 1,29,-1
 578 0 l 1,30,-1
 464 0 l 1,31,-1
 430 28 l 1,32,33
 409 63 409 63 392.5 97 c 128,-1,34
 376 131 376 131 362.5 165 c 128,-1,35
 349 199 349 199 338.5 235 c 128,-1,36
 328 271 328 271 319 310 c 1,37,-1
 223 310 l 1,38,-1
 169 53 l 1,0,1
364 656 m 0,39,40
 341 656 341 656 324.5 654.5 c 128,-1,41
 308 653 308 653 294 651 c 1,42,-1
 232 353 l 1,43,-1
 303 353 l 1,44,45
 356 352 356 352 392.5 369 c 128,-1,46
 429 386 429 386 451.5 414.5 c 128,-1,47
 474 443 474 443 484.5 479 c 128,-1,48
 495 515 495 515 495 553 c 0,49,50
 496 607 496 607 464.5 631.5 c 128,-1,51
 433 656 433 656 364 656 c 0,39,40
EndSplineSet
Position2: "'cpsp' Capital Spacing lookup 0 subtable" dx=40 dy=0 dh=80 dv=0
EndChar

StartChar: S
Encoding: 83 83 54
Width: 527
Flags: W
LayerCount: 2
Fore
SplineSet
121 69 m 1,0,1
 132 60 132 60 158 49.5 c 128,-1,2
 184 39 184 39 213 40 c 1,3,4
 246 39 246 39 277 45 c 128,-1,5
 308 51 308 51 333 66 c 128,-1,6
 358 81 358 81 373 105.5 c 128,-1,7
 388 130 388 130 388 167 c 0,8,9
 388 208 388 208 368.5 236 c 128,-1,10
 349 264 349 264 320 285.5 c 128,-1,11
 291 307 291 307 257.5 326.5 c 128,-1,12
 224 346 224 346 195 370 c 128,-1,13
 166 394 166 394 146.5 426.5 c 128,-1,14
 127 459 127 459 127 507 c 0,15,16
 127 553 127 553 143.5 590.5 c 128,-1,17
 160 628 160 628 192.5 655 c 128,-1,18
 225 682 225 682 272 697 c 128,-1,19
 319 712 319 712 379 712 c 0,20,21
 440 712 440 712 488 702.5 c 128,-1,22
 536 693 536 693 563 679 c 1,23,24
 559 662 559 662 551.5 639.5 c 128,-1,25
 544 617 544 617 536 593 c 128,-1,26
 528 569 528 569 519 546.5 c 128,-1,27
 510 524 510 524 503 507 c 1,28,-1
 477 507 l 1,29,-1
 465 644 l 1,30,31
 448 652 448 652 421.5 656 c 128,-1,32
 395 660 395 660 364 660 c 0,33,34
 334 660 334 660 307.5 653 c 128,-1,35
 281 646 281 646 261.5 631.5 c 128,-1,36
 242 617 242 617 231 595 c 128,-1,37
 220 573 220 573 220 543 c 0,38,39
 220 503 220 503 239.5 476.5 c 128,-1,40
 259 450 259 450 288 429 c 128,-1,41
 317 408 317 408 350.5 388.5 c 128,-1,42
 384 369 384 369 413 344 c 128,-1,43
 442 319 442 319 461.5 283.5 c 128,-1,44
 481 248 481 248 481 196 c 0,45,46
 481 149 481 149 462.5 111 c 128,-1,47
 444 73 444 73 409.5 45.5 c 128,-1,48
 375 18 375 18 324.5 3 c 128,-1,49
 274 -12 274 -12 210 -12 c 0,50,51
 178 -12 178 -12 148.5 -8 c 128,-1,52
 119 -4 119 -4 94.5 3 c 128,-1,53
 70 10 70 10 51 18.5 c 128,-1,54
 32 27 32 27 22 35 c 1,55,56
 26 53 26 53 33.5 77.5 c 128,-1,57
 41 102 41 102 50 127 c 128,-1,58
 59 152 59 152 68 175.5 c 128,-1,59
 77 199 77 199 85 216 c 1,60,-1
 111 216 l 1,61,-1
 121 69 l 1,0,1
EndSplineSet
Position2: "'cpsp' Capital Spacing lookup 0 subtable" dx=40 dy=0 dh=80 dv=0
EndChar

StartChar: T
Encoding: 84 84 55
Width: 610
Flags: W
LayerCount: 2
Fore
SplineSet
401 0 m 1,0,-1
 120 0 l 1,1,-1
 125 29 l 1,2,3
 149 38 149 38 172.5 43.5 c 128,-1,4
 196 49 196 49 224 53 c 1,5,-1
 350 648 l 1,6,-1
 197 648 l 1,7,-1
 114 505 l 1,8,-1
 88 505 l 1,9,10
 89 525 89 525 92.5 550.5 c 128,-1,11
 96 576 96 576 100 602.5 c 128,-1,12
 104 629 104 629 108.5 654.5 c 128,-1,13
 113 680 113 680 118 700 c 1,14,-1
 698 700 l 1,15,16
 694 680 694 680 688 655 c 128,-1,17
 682 630 682 630 675 603.5 c 128,-1,18
 668 577 668 577 660.5 551.5 c 128,-1,19
 653 526 653 526 646 505 c 1,20,-1
 620 505 l 1,21,-1
 599 648 l 1,22,-1
 446 648 l 1,23,-1
 320 53 l 1,24,25
 344 48 344 48 365.5 43 c 128,-1,26
 387 38 387 38 406 29 c 1,27,-1
 401 0 l 1,0,-1
EndSplineSet
Position2: "'cpsp' Capital Spacing lookup 0 subtable" dx=40 dy=0 dh=80 dv=0
EndChar

StartChar: U
Encoding: 85 85 56
Width: 666
Flags: W
LayerCount: 2
Fore
SplineSet
112 700 m 1,0,-1
 366 700 l 1,1,-1
 360 671 l 1,2,3
 321 654 321 654 279 646 c 1,4,-1
 194 249 l 2,5,6
 183 196 183 196 188 158.5 c 128,-1,7
 193 121 193 121 212 97 c 128,-1,8
 231 73 231 73 262 62 c 128,-1,9
 293 51 293 51 334 51 c 0,10,11
 415 51 415 51 463.5 96 c 128,-1,12
 512 141 512 141 532 238 c 2,13,-1
 617 637 l 1,14,15
 573 652 573 652 545 671 c 1,16,-1
 551 700 l 1,17,-1
 765 700 l 1,18,-1
 758 671 l 1,19,20
 741 660 741 660 718 651 c 128,-1,21
 695 642 695 642 673 637 c 1,22,-1
 588 236 l 2,23,24
 560 105 560 105 489.5 48 c 128,-1,25
 419 -9 419 -9 308 -9 c 0,26,27
 242 -9 242 -9 196.5 10 c 128,-1,28
 151 29 151 29 125 62.5 c 128,-1,29
 99 96 99 96 92 142.5 c 128,-1,30
 85 189 85 189 97 243 c 2,31,-1
 183 646 l 1,32,33
 163 650 163 650 142 656.5 c 128,-1,34
 121 663 121 663 106 671 c 1,35,-1
 112 700 l 1,0,-1
EndSplineSet
Position2: "'cpsp' Capital Spacing lookup 0 subtable" dx=40 dy=0 dh=80 dv=0
EndChar

StartChar: V
Encoding: 86 86 57
Width: 674
Flags: W
LayerCount: 2
Fore
SplineSet
634 646 m 1,0,1
 611 651 611 651 591 657 c 128,-1,2
 571 663 571 663 553 671 c 1,3,-1
 560 700 l 1,4,-1
 782 700 l 1,5,-1
 776 671 l 1,6,7
 759 663 759 663 740.5 657 c 128,-1,8
 722 651 722 651 699 646 c 1,9,-1
 337 0 l 1,10,-1
 282 -12 l 1,11,-1
 166 646 l 1,12,13
 143 651 143 651 125.5 657.5 c 128,-1,14
 108 664 108 664 95 671 c 1,15,-1
 101 700 l 1,16,-1
 364 700 l 1,17,-1
 358 671 l 1,18,19
 340 663 340 663 317 657 c 128,-1,20
 294 651 294 651 271 646 c 1,21,-1
 344 189 l 1,22,-1
 349 109 l 1,23,-1
 351 109 l 1,24,-1
 388 191 l 1,25,-1
 634 646 l 1,0,1
EndSplineSet
Position2: "'cpsp' Capital Spacing lookup 0 subtable" dx=40 dy=0 dh=80 dv=0
EndChar

StartChar: W
Encoding: 87 87 58
Width: 925
Flags: W
LayerCount: 2
Fore
SplineSet
887 646 m 1,0,1
 867 650 867 650 845.5 656 c 128,-1,2
 824 662 824 662 807 671 c 1,3,-1
 813 700 l 1,4,-1
 1033 700 l 1,5,-1
 1027 671 l 1,6,7
 1008 661 1008 661 988.5 656 c 128,-1,8
 969 651 969 651 950 646 c 1,9,-1
 646 0 l 1,10,-1
 582 -12 l 1,11,-1
 536 532 l 1,12,-1
 265 0 l 1,13,-1
 203 -12 l 1,14,-1
 166 646 l 1,15,16
 127 655 127 655 95 671 c 1,17,-1
 101 700 l 1,18,-1
 359 700 l 1,19,-1
 353 671 l 1,20,21
 333 663 333 663 311.5 657 c 128,-1,22
 290 651 290 651 266 646 c 1,23,-1
 279 241 l 1,24,-1
 276 111 l 1,25,-1
 278 111 l 1,26,-1
 339 243 l 1,27,-1
 572 700 l 1,28,-1
 607 700 l 1,29,-1
 649 243 l 1,30,-1
 654 113 l 1,31,-1
 656 113 l 1,32,-1
 709 245 l 1,33,-1
 887 646 l 1,0,1
EndSplineSet
Position2: "'cpsp' Capital Spacing lookup 0 subtable" dx=40 dy=0 dh=80 dv=0
EndChar

StartChar: X
Encoding: 88 88 59
Width: 661
Flags: W
LayerCount: 2
Fore
SplineSet
499 700 m 1,0,-1
 729 700 l 1,1,-1
 722 671 l 1,2,3
 704 663 704 663 683.5 657 c 128,-1,4
 663 651 663 651 642 646 c 1,5,-1
 404 375 l 1,6,-1
 541 53 l 1,7,8
 587 45 587 45 616 29 c 1,9,-1
 611 0 l 1,10,-1
 345 0 l 1,11,-1
 350 29 l 1,12,13
 388 47 388 47 431 53 c 1,14,-1
 330 304 l 1,15,-1
 120 52 l 1,16,17
 140 49 140 49 159.5 44.5 c 128,-1,18
 179 40 179 40 196 29 c 1,19,-1
 190 0 l 1,20,-1
 -40 0 l 1,21,-1
 -34 29 l 1,22,23
 -14 39 -14 39 6 44 c 128,-1,24
 26 49 26 49 46 53 c 1,25,-1
 308 352 l 1,26,-1
 184 646 l 1,27,28
 164 651 164 651 146 656.5 c 128,-1,29
 128 662 128 662 110 671 c 1,30,-1
 116 700 l 1,31,-1
 382 700 l 1,32,-1
 376 671 l 1,33,34
 345 657 345 657 294 646 c 1,35,-1
 383 420 l 1,36,-1
 570 646 l 1,37,38
 551 651 551 651 532 656 c 128,-1,39
 513 661 513 661 493 671 c 1,40,-1
 499 700 l 1,0,-1
EndSplineSet
Position2: "'cpsp' Capital Spacing lookup 0 subtable" dx=40 dy=0 dh=80 dv=0
EndChar

StartChar: Y
Encoding: 89 89 60
Width: 635
Flags: W
LayerCount: 2
Fore
SplineSet
520 700 m 1,0,-1
 743 700 l 1,1,-1
 736 671 l 1,2,3
 716 661 716 661 696 655.5 c 128,-1,4
 676 650 676 650 656 646 c 1,5,-1
 393 298 l 1,6,-1
 341 53 l 1,7,8
 378 48 378 48 411 29 c 1,9,-1
 406 0 l 1,10,-1
 152 0 l 1,11,-1
 157 29 l 1,12,13
 197 47 197 47 245 53 c 1,14,-1
 297 297 l 1,15,-1
 168 646 l 1,16,17
 146 650 146 650 127.5 656.5 c 128,-1,18
 109 663 109 663 92 671 c 1,19,-1
 99 700 l 1,20,-1
 363 700 l 1,21,-1
 357 671 l 1,22,23
 341 665 341 665 321 658 c 128,-1,24
 301 651 301 651 275 646 c 1,25,-1
 376 352 l 1,26,-1
 588 646 l 1,27,28
 567 651 567 651 548.5 657 c 128,-1,29
 530 663 530 663 514 671 c 1,30,-1
 520 700 l 1,0,-1
EndSplineSet
Position2: "'cpsp' Capital Spacing lookup 0 subtable" dx=40 dy=0 dh=80 dv=0
EndChar

StartChar: Z
Encoding: 90 90 61
Width: 603
Flags: W
LayerCount: 2
Fore
SplineSet
529 192 m 1,0,-1
 555 192 l 1,1,2
 553 171 553 171 550 146 c 128,-1,3
 547 121 547 121 543 95.5 c 128,-1,4
 539 70 539 70 534.5 45 c 128,-1,5
 530 20 530 20 525 0 c 1,6,-1
 5 0 l 1,7,-1
 5 51 l 1,8,-1
 531 648 l 1,9,-1
 240 648 l 1,10,-1
 149 508 l 1,11,-1
 123 508 l 1,12,13
 124 529 124 529 127.5 554 c 128,-1,14
 131 579 131 579 135 605 c 128,-1,15
 139 631 139 631 143.5 655.5 c 128,-1,16
 148 680 148 680 153 700 c 1,17,-1
 650 700 l 1,18,-1
 650 648 l 1,19,-1
 124 52 l 1,20,-1
 438 52 l 1,21,-1
 529 192 l 1,0,-1
EndSplineSet
Position2: "'cpsp' Capital Spacing lookup 0 subtable" dx=40 dy=0 dh=80 dv=0
EndChar

StartChar: backslash
Encoding: 92 92 63
Width: 382
Flags: W
LayerCount: 2
Fore
SplineSet
409 -107 m 1,0,-1
 368 -130 l 1,1,-1
 -47 690 l 1,2,-1
 -5 712 l 1,3,-1
 409 -107 l 1,0,-1
EndSplineSet
EndChar

StartChar: bracketright
Encoding: 93 93 64
Width: 307
Flags: W
LayerCount: 2
Fore
SplineSet
131 -230 m 1,0,-1
 -57 -230 l 1,1,-1
 -48 -187 l 1,2,-1
 55 -187 l 1,3,-1
 235 657 l 1,4,-1
 131 657 l 1,5,-1
 139 700 l 1,6,-1
 328 700 l 1,7,-1
 131 -230 l 1,0,-1
EndSplineSet
Position2: "'case' Case-Sensitive Forms lookup 1 per glyph data 3" dx=0 dy=100 dh=0 dv=0
EndChar

StartChar: asciicircum
Encoding: 94 94 65
Width: 519
Flags: W
LayerCount: 2
Fore
SplineSet
291 711 m 1,0,-1
 324 711 l 1,1,-1
 494 434 l 1,2,-1
 405 434 l 1,3,-1
 317 585 l 1,4,-1
 294 652 l 1,5,-1
 261 584 l 1,6,-1
 162 434 l 1,7,-1
 105 434 l 1,8,-1
 291 711 l 1,0,-1
EndSplineSet
EndChar

StartChar: underscore
Encoding: 95 95 66
Width: 410
Flags: W
LayerCount: 2
Fore
SplineSet
-45 -143 m 1,0,-1
 365 -143 l 1,1,-1
 365 -196 l 1,2,-1
 -45 -196 l 1,3,-1
 -45 -143 l 1,0,-1
EndSplineSet
EndChar

StartChar: grave
Encoding: 96 96 67
Width: 323
Flags: W
LayerCount: 2
Fore
SplineSet
325 593 m 1,0,-1
 303 576 l 1,1,-1
 137 725 l 1,2,-1
 137 745 l 1,3,4
 143 750 143 750 156.5 754.5 c 128,-1,5
 170 759 170 759 186 762 c 128,-1,6
 202 765 202 765 216.5 766.5 c 128,-1,7
 231 768 231 768 239 767 c 1,8,-1
 325 593 l 1,0,-1
EndSplineSet
EndChar

StartChar: a
Encoding: 97 97 68
Width: 535
Flags: W
LayerCount: 2
Fore
SplineSet
189 50 m 0,0,1
 216 50 216 50 243 75.5 c 128,-1,2
 270 101 270 101 294 137 c 128,-1,3
 318 173 318 173 337 212 c 128,-1,4
 356 251 356 251 367 277 c 1,5,-1
 399 448 l 1,6,7
 385 458 385 458 372 462 c 128,-1,8
 359 466 359 466 336 466 c 0,9,10
 290 466 290 466 252.5 437.5 c 128,-1,11
 215 409 215 409 188.5 364 c 128,-1,12
 162 319 162 319 147.5 264 c 128,-1,13
 133 209 133 209 133 156 c 0,14,15
 133 105 133 105 145.5 77.5 c 128,-1,16
 158 50 158 50 189 50 c 0,0,1
347 196 m 1,17,18
 334 160 334 160 314.5 123 c 128,-1,19
 295 86 295 86 269.5 56 c 128,-1,20
 244 26 244 26 213 7 c 128,-1,21
 182 -12 182 -12 147 -12 c 0,22,23
 43 -12 43 -12 43 139 c 0,24,25
 43 209 43 209 63 275.5 c 128,-1,26
 83 342 83 342 121 394 c 128,-1,27
 159 446 159 446 213.5 477.5 c 128,-1,28
 268 509 268 509 337 509 c 0,29,30
 362 509 362 509 377 504.5 c 128,-1,31
 392 500 392 500 413 491 c 1,32,33
 453 512 453 512 497 512 c 1,34,-1
 407 55 l 1,35,-1
 480 55 l 1,36,-1
 480 30 l 1,37,38
 460 14 460 14 432 4 c 128,-1,39
 404 -6 404 -6 377 -6 c 0,40,41
 348 -6 348 -6 335.5 6.5 c 128,-1,42
 323 19 323 19 323 33 c 0,43,44
 323 51 323 51 330 92 c 128,-1,45
 337 133 337 133 351 196 c 1,46,-1
 347 196 l 1,17,18
EndSplineSet
Substitution2: "Single Substitution lookup 17 subtable" ordfeminine
EndChar

StartChar: b
Encoding: 98 98 69
Width: 526
Flags: W
LayerCount: 2
Fore
SplineSet
164 682 m 1,0,-1
 94 691 l 1,1,-1
 94 714 l 1,2,3
 110 720 110 720 129 726 c 128,-1,4
 148 732 148 732 167.5 737.5 c 128,-1,5
 187 743 187 743 206 746.5 c 128,-1,6
 225 750 225 750 241 752 c 1,7,-1
 262 741 l 1,8,-1
 174 324 l 1,9,-1
 179 324 l 1,10,11
 197 360 197 360 218.5 394 c 128,-1,12
 240 428 240 428 264.5 454 c 128,-1,13
 289 480 289 480 316 496 c 128,-1,14
 343 512 343 512 373 512 c 0,15,16
 426 512 426 512 457 475 c 128,-1,17
 488 438 488 438 488 360 c 0,18,19
 488 283 488 283 466.5 215.5 c 128,-1,20
 445 148 445 148 406 97.5 c 128,-1,21
 367 47 367 47 312 17.5 c 128,-1,22
 257 -12 257 -12 190 -12 c 0,23,24
 141 -12 141 -12 98.5 0.5 c 128,-1,25
 56 13 56 13 36 30 c 1,26,-1
 164 682 l 1,0,-1
331 450 m 0,27,28
 305 450 305 450 280 427 c 128,-1,29
 255 404 255 404 233.5 371.5 c 128,-1,30
 212 339 212 339 194.5 303.5 c 128,-1,31
 177 268 177 268 165 244 c 1,32,-1
 127 52 l 1,33,34
 142 42 142 42 164.5 36.5 c 128,-1,35
 187 31 187 31 209 31 c 0,36,37
 248 31 248 31 282.5 58 c 128,-1,38
 317 85 317 85 343 129 c 128,-1,39
 369 173 369 173 384 228.5 c 128,-1,40
 399 284 399 284 398 341 c 1,41,42
 399 389 399 389 383 419.5 c 128,-1,43
 367 450 367 450 331 450 c 0,27,28
EndSplineSet
EndChar

StartChar: c
Encoding: 99 99 70
Width: 428
Flags: W
LayerCount: 2
Fore
SplineSet
382 89 m 1,0,1
 371 70 371 70 354 52 c 128,-1,2
 337 34 337 34 314 19.5 c 128,-1,3
 291 5 291 5 262.5 -3.5 c 128,-1,4
 234 -12 234 -12 200 -12 c 0,5,6
 126 -12 126 -12 83 35 c 128,-1,7
 40 82 40 82 40 163 c 0,8,9
 40 235 40 235 63 298.5 c 128,-1,10
 86 362 86 362 125.5 409.5 c 128,-1,11
 165 457 165 457 218.5 484.5 c 128,-1,12
 272 512 272 512 333 512 c 0,13,14
 371 512 371 512 395 506 c 128,-1,15
 419 500 419 500 431 489 c 1,16,17
 432 478 432 478 429.5 464.5 c 128,-1,18
 427 451 427 451 421.5 438 c 128,-1,19
 416 425 416 425 407.5 414 c 128,-1,20
 399 403 399 403 390 399 c 1,21,-1
 322 469 l 1,22,23
 288 468 288 468 254.5 448 c 128,-1,24
 221 428 221 428 194.5 391 c 128,-1,25
 168 354 168 354 151.5 301.5 c 128,-1,26
 135 249 135 249 136 183 c 1,27,28
 135 114 135 114 163.5 82 c 128,-1,29
 192 50 192 50 241 50 c 0,30,31
 262 50 262 50 280.5 56 c 128,-1,32
 299 62 299 62 315 71 c 128,-1,33
 331 80 331 80 344 90 c 128,-1,34
 357 100 357 100 367 108 c 1,35,-1
 382 89 l 1,0,1
EndSplineSet
EndChar

StartChar: d
Encoding: 100 100 71
Width: 535
Flags: W
LayerCount: 2
Fore
SplineSet
191 50 m 0,0,1
 218 50 218 50 245 75.5 c 128,-1,2
 272 101 272 101 296 137 c 128,-1,3
 320 173 320 173 339 212 c 128,-1,4
 358 251 358 251 369 277 c 1,5,-1
 401 448 l 1,6,7
 386 458 386 458 373.5 461.5 c 128,-1,8
 361 465 361 465 338 466 c 1,9,10
 290 465 290 465 252 436.5 c 128,-1,11
 214 408 214 408 188 363.5 c 128,-1,12
 162 319 162 319 148.5 264 c 128,-1,13
 135 209 135 209 135 156 c 0,14,15
 135 105 135 105 147.5 77.5 c 128,-1,16
 160 50 160 50 191 50 c 0,0,1
349 196 m 1,17,18
 336 160 336 160 316 123 c 128,-1,19
 296 86 296 86 270.5 56 c 128,-1,20
 245 26 245 26 214.5 7 c 128,-1,21
 184 -12 184 -12 149 -12 c 0,22,23
 45 -12 45 -12 45 140 c 0,24,25
 45 211 45 211 65 277.5 c 128,-1,26
 85 344 85 344 123 395.5 c 128,-1,27
 161 447 161 447 215 478 c 128,-1,28
 269 509 269 509 338 509 c 0,29,30
 364 509 364 509 377 505.5 c 128,-1,31
 390 502 390 502 410 493 c 1,32,-1
 448 682 l 1,33,-1
 378 691 l 1,34,-1
 378 716 l 1,35,36
 393 722 393 722 411 727.5 c 128,-1,37
 429 733 429 733 448.5 737.5 c 128,-1,38
 468 742 468 742 488 746 c 128,-1,39
 508 750 508 750 525 752 c 1,40,-1
 546 744 l 1,41,-1
 409 55 l 1,42,-1
 482 55 l 1,43,-1
 482 30 l 1,44,45
 462 14 462 14 434 4 c 128,-1,46
 406 -6 406 -6 379 -6 c 0,47,48
 350 -6 350 -6 337.5 6.5 c 128,-1,49
 325 19 325 19 325 33 c 0,50,51
 325 51 325 51 332 92 c 128,-1,52
 339 133 339 133 353 196 c 1,53,-1
 349 196 l 1,17,18
EndSplineSet
EndChar

StartChar: e
Encoding: 101 101 72
Width: 454
Flags: W
LayerCount: 2
Fore
SplineSet
392 89 m 1,0,1
 383 70 383 70 366 52 c 128,-1,2
 349 34 349 34 326 19.5 c 128,-1,3
 303 5 303 5 274 -3.5 c 128,-1,4
 245 -12 245 -12 212 -12 c 0,5,6
 129 -12 129 -12 84.5 35.5 c 128,-1,7
 40 83 40 83 40 167 c 0,8,9
 40 238 40 238 60 301 c 128,-1,10
 80 364 80 364 116 411 c 128,-1,11
 152 458 152 458 203.5 485 c 128,-1,12
 255 512 255 512 318 512 c 0,13,14
 366 512 366 512 400.5 487.5 c 128,-1,15
 435 463 435 463 435 415 c 0,16,17
 435 344 435 344 364.5 303 c 128,-1,18
 294 262 294 262 137 250 c 1,19,20
 133 233 133 233 131.5 217 c 128,-1,21
 130 201 130 201 130 186 c 0,22,23
 130 126 130 126 160.5 88 c 128,-1,24
 191 50 191 50 250 50 c 0,25,26
 269 50 269 50 287.5 56 c 128,-1,27
 306 62 306 62 322.5 71 c 128,-1,28
 339 80 339 80 352.5 90 c 128,-1,29
 366 100 366 100 376 108 c 1,30,-1
 392 89 l 1,0,1
287 469 m 1,31,32
 244 468 244 468 207 428.5 c 128,-1,33
 170 389 170 389 144 293 c 1,34,35
 241 296 241 296 295 326.5 c 128,-1,36
 349 357 349 357 349 411 c 0,37,38
 349 432 349 432 336.5 450 c 128,-1,39
 324 468 324 468 287 469 c 1,31,32
EndSplineSet
EndChar

StartChar: f
Encoding: 102 102 73
Width: 297
Flags: W
LayerCount: 2
Fore
SplineSet
129 450 m 1,0,-1
 56 450 l 1,1,-1
 56 476 l 1,2,3
 76 487 76 487 98.5 495.5 c 128,-1,4
 121 504 121 504 141 509 c 1,5,-1
 148 544 l 2,6,7
 161 606 161 606 183.5 646.5 c 128,-1,8
 206 687 206 687 236 710.5 c 128,-1,9
 266 734 266 734 302 743 c 128,-1,10
 338 752 338 752 379 752 c 0,11,12
 396 752 396 752 419.5 748 c 128,-1,13
 443 744 443 744 459 736 c 1,14,15
 457 714 457 714 448.5 690.5 c 128,-1,16
 440 667 440 667 420 650 c 1,17,-1
 344 712 l 1,18,19
 326 707 326 707 311 701 c 128,-1,20
 296 695 296 695 282.5 678.5 c 128,-1,21
 269 662 269 662 257 632 c 128,-1,22
 245 602 245 602 234 550 c 2,23,-1
 224 500 l 1,24,-1
 335 500 l 1,25,26
 340 475 340 475 325 450 c 1,27,-1
 214 450 l 1,28,-1
 150 43 l 2,29,30
 139 -28 139 -28 113 -75 c 128,-1,31
 87 -122 87 -122 57.5 -151 c 128,-1,32
 28 -180 28 -180 0 -194 c 128,-1,33
 -28 -208 -28 -208 -43 -212 c 1,34,-1
 -52 -190 l 1,35,36
 -40 -184 -40 -184 -23 -168.5 c 128,-1,37
 -6 -153 -6 -153 10.5 -127 c 128,-1,38
 27 -101 27 -101 41.5 -63.5 c 128,-1,39
 56 -26 56 -26 64 24 c 2,40,-1
 129 450 l 1,0,-1
EndSplineSet
EndChar

StartChar: g
Encoding: 103 103 74
Width: 489
Flags: W
LayerCount: 2
Fore
SplineSet
280 512 m 0,0,1
 328 512 328 512 358.5 500 c 128,-1,2
 389 488 389 488 406 474 c 1,3,4
 415 482 415 482 430 490 c 128,-1,5
 445 498 445 498 462 505 c 128,-1,6
 479 512 479 512 497 518 c 128,-1,7
 515 524 515 524 531 529 c 1,8,9
 534 524 534 524 536 514 c 128,-1,10
 538 504 538 504 537.5 492 c 128,-1,11
 537 480 537 480 533.5 467.5 c 128,-1,12
 530 455 530 455 523 445 c 1,13,-1
 420 452 l 1,14,15
 423 443 423 443 426 431.5 c 128,-1,16
 429 420 429 420 429 406 c 0,17,18
 429 366 429 366 412.5 332 c 128,-1,19
 396 298 396 298 367 273.5 c 128,-1,20
 338 249 338 249 299.5 235 c 128,-1,21
 261 221 261 221 218 221 c 0,22,23
 201 221 201 221 190.5 221.5 c 128,-1,24
 180 222 180 222 167 225 c 1,25,26
 158 215 158 215 142.5 201.5 c 128,-1,27
 127 188 127 188 127 172 c 0,28,29
 127 155 127 155 149 146 c 128,-1,30
 171 137 171 137 204.5 129.5 c 128,-1,31
 238 122 238 122 277 113.5 c 128,-1,32
 316 105 316 105 349.5 90.5 c 128,-1,33
 383 76 383 76 405 53 c 128,-1,34
 427 30 427 30 427 -8 c 0,35,36
 427 -55 427 -55 400.5 -92.5 c 128,-1,37
 374 -130 374 -130 330.5 -156.5 c 128,-1,38
 287 -183 287 -183 231.5 -197.5 c 128,-1,39
 176 -212 176 -212 119 -212 c 0,40,41
 73 -212 73 -212 40 -202.5 c 128,-1,42
 7 -193 7 -193 -14 -176.5 c 128,-1,43
 -35 -160 -35 -160 -45 -139 c 128,-1,44
 -55 -118 -55 -118 -55 -95 c 0,45,46
 -55 -67 -55 -67 -42.5 -43 c 128,-1,47
 -30 -19 -30 -19 -9 2.5 c 128,-1,48
 12 24 12 24 39 42 c 128,-1,49
 66 60 66 60 95 76 c 1,50,51
 80 84 80 84 70.5 97.5 c 128,-1,52
 61 111 61 111 61 128 c 0,53,54
 61 143 61 143 71 159.5 c 128,-1,55
 81 176 81 176 94.5 191 c 128,-1,56
 108 206 108 206 121.5 217 c 128,-1,57
 135 228 135 228 142 233 c 1,58,59
 130 236 130 236 117.5 244 c 128,-1,60
 105 252 105 252 94 265 c 128,-1,61
 83 278 83 278 76 295 c 128,-1,62
 69 312 69 312 69 333 c 0,63,64
 69 372 69 372 85.5 405 c 128,-1,65
 102 438 102 438 131 461.5 c 128,-1,66
 160 485 160 485 198 498.5 c 128,-1,67
 236 512 236 512 280 512 c 0,0,1
165 -169 m 0,68,69
 196 -169 196 -169 226.5 -160 c 128,-1,70
 257 -151 257 -151 281.5 -134.5 c 128,-1,71
 306 -118 306 -118 321.5 -93.5 c 128,-1,72
 337 -69 337 -69 337 -38 c 0,73,74
 337 -8 337 -8 312.5 8.5 c 128,-1,75
 288 25 288 25 253 35 c 128,-1,76
 218 45 218 45 180.5 51.5 c 128,-1,77
 143 58 143 58 116 67 c 1,78,79
 69 33 69 33 51.5 -4 c 128,-1,80
 34 -41 34 -41 35 -73 c 1,81,82
 34 -118 34 -118 69.5 -143.5 c 128,-1,83
 105 -169 105 -169 165 -169 c 0,68,69
272 472 m 0,84,85
 243 472 243 472 220.5 461 c 128,-1,86
 198 450 198 450 182 431.5 c 128,-1,87
 166 413 166 413 158 388 c 128,-1,88
 150 363 150 363 150 335 c 0,89,90
 150 297 150 297 174.5 279 c 128,-1,91
 199 261 199 261 227 261 c 0,92,93
 257 261 257 261 278.5 271.5 c 128,-1,94
 300 282 300 282 314.5 300 c 128,-1,95
 329 318 329 318 336 341 c 128,-1,96
 343 364 343 364 343 389 c 0,97,98
 343 426 343 426 325.5 449 c 128,-1,99
 308 472 308 472 272 472 c 0,84,85
EndSplineSet
EndChar

StartChar: h
Encoding: 104 104 75
Width: 543
Flags: W
LayerCount: 2
Fore
SplineSet
103 691 m 1,0,-1
 103 714 l 1,1,2
 118 720 118 720 136.5 726.5 c 128,-1,3
 155 733 155 733 175 738.5 c 128,-1,4
 195 744 195 744 214 747.5 c 128,-1,5
 233 751 233 751 250 752 c 1,6,-1
 271 743 l 1,7,-1
 181 323 l 1,8,-1
 186 323 l 1,9,10
 205 363 205 363 229 397.5 c 128,-1,11
 253 432 253 432 279.5 457.5 c 128,-1,12
 306 483 306 483 335 497.5 c 128,-1,13
 364 512 364 512 394 512 c 0,14,15
 440 512 440 512 460.5 485.5 c 128,-1,16
 481 459 481 459 481 420 c 0,17,18
 481 393 481 393 476 362 c 128,-1,19
 471 331 471 331 464 302 c 2,20,-1
 407 56 l 1,21,-1
 481 56 l 1,22,-1
 481 30 l 1,23,24
 461 14 461 14 433 4 c 128,-1,25
 405 -6 405 -6 377 -6 c 0,26,27
 348 -6 348 -6 337 6 c 128,-1,28
 326 18 326 18 326 32 c 0,29,30
 326 50 326 50 331 72.5 c 128,-1,31
 336 95 336 95 341 118 c 2,32,-1
 377 285 l 2,33,34
 384 316 384 316 389.5 343 c 128,-1,35
 395 370 395 370 395 395 c 0,36,37
 395 418 395 418 385 434 c 128,-1,38
 375 450 375 450 358 450 c 0,39,40
 327 450 327 450 298 428 c 128,-1,41
 269 406 269 406 244 375 c 128,-1,42
 219 344 219 344 200 310.5 c 128,-1,43
 181 277 181 277 171 255 c 1,44,-1
 118 0 l 1,45,-1
 34 0 l 1,46,-1
 171 682 l 1,47,-1
 103 691 l 1,0,-1
EndSplineSet
EndChar

StartChar: k
Encoding: 107 107 78
Width: 481
Flags: W
LayerCount: 2
Fore
SplineSet
299 45 m 0,0,1
 267 99 267 99 245 147.5 c 128,-1,2
 223 196 223 196 203 238 c 1,3,-1
 167 248 l 1,4,-1
 120 0 l 1,5,-1
 34 0 l 1,6,-1
 170 682 l 1,7,-1
 100 691 l 1,8,-1
 100 716 l 1,9,10
 129 729 129 729 170.5 739.5 c 128,-1,11
 212 750 212 750 247 752 c 1,12,-1
 268 741 l 1,13,-1
 174 274 l 1,14,-1
 203 274 l 1,15,16
 224 287 224 287 246.5 306 c 128,-1,17
 269 325 269 325 289.5 345 c 128,-1,18
 310 365 310 365 326 383.5 c 128,-1,19
 342 402 342 402 351 415 c 1,20,21
 352 422 352 422 352.5 434 c 128,-1,22
 353 446 353 446 352.5 458.5 c 128,-1,23
 352 471 352 471 351.5 482.5 c 128,-1,24
 351 494 351 494 350 500 c 1,25,26
 387 513 387 513 422 513 c 0,27,28
 458 513 458 513 482 500 c 1,29,30
 469 467 469 467 442 434 c 128,-1,31
 415 401 415 401 384 372.5 c 128,-1,32
 353 344 353 344 323 320.5 c 128,-1,33
 293 297 293 297 275 284 c 1,34,35
 282 265 282 265 297.5 234.5 c 128,-1,36
 313 204 313 204 331.5 171 c 128,-1,37
 350 138 350 138 370.5 107 c 128,-1,38
 391 76 391 76 408 56 c 1,39,-1
 471 56 l 1,40,-1
 471 30 l 1,41,42
 451 14 451 14 427.5 4 c 128,-1,43
 404 -6 404 -6 378 -6 c 0,44,45
 354 -6 354 -6 335 5 c 128,-1,46
 316 16 316 16 299 45 c 0,0,1
EndSplineSet
EndChar

StartChar: l
Encoding: 108 108 79
Width: 277
Flags: W
LayerCount: 2
Fore
SplineSet
174 682 m 1,0,-1
 103 691 l 1,1,-1
 103 716 l 1,2,3
 117 722 117 722 135.5 728 c 128,-1,4
 154 734 154 734 174.5 739.5 c 128,-1,5
 195 745 195 745 215 748.5 c 128,-1,6
 235 752 235 752 251 752 c 1,7,-1
 271 741 l 1,8,-1
 133 56 l 1,9,-1
 206 56 l 1,10,-1
 206 30 l 1,11,12
 186 14 186 14 157.5 4 c 128,-1,13
 129 -6 129 -6 102 -6 c 0,14,15
 73 -6 73 -6 59.5 7 c 128,-1,16
 46 20 46 20 46 37 c 0,17,18
 46 57 46 57 49 76 c 128,-1,19
 52 95 52 95 57 118 c 2,20,-1
 174 682 l 1,0,-1
EndSplineSet
EndChar

StartChar: m
Encoding: 109 109 80
Width: 800
Flags: W
LayerCount: 2
Fore
SplineSet
633 300 m 2,0,1
 639 324 639 324 644.5 350 c 128,-1,2
 650 376 650 376 651 393 c 1,3,4
 650 419 650 419 642.5 434.5 c 128,-1,5
 635 450 635 450 612 450 c 0,6,7
 588 450 588 450 563 431 c 128,-1,8
 538 412 538 412 515.5 383 c 128,-1,9
 493 354 493 354 474.5 320 c 128,-1,10
 456 286 456 286 444 256 c 1,11,-1
 383 0 l 1,12,-1
 303 0 l 1,13,-1
 366 281 l 2,14,15
 373 312 373 312 378 340.5 c 128,-1,16
 383 369 383 369 383 400 c 0,17,18
 383 423 383 423 375 436.5 c 128,-1,19
 367 450 367 450 347 450 c 256,20,21
 327 450 327 450 303 431 c 128,-1,22
 279 412 279 412 256 383 c 128,-1,23
 233 354 233 354 213.5 320 c 128,-1,24
 194 286 194 286 182 255 c 1,25,-1
 129 0 l 1,26,-1
 43 0 l 1,27,-1
 136 442 l 1,28,-1
 75 451 l 1,29,-1
 75 476 l 1,30,31
 108 493 108 493 146.5 502.5 c 128,-1,32
 185 512 185 512 213 512 c 1,33,-1
 234 500 l 1,34,-1
 190 323 l 1,35,-1
 194 323 l 1,36,37
 206 351 206 351 227.5 384 c 128,-1,38
 249 417 249 417 277 445.5 c 128,-1,39
 305 474 305 474 337 493 c 128,-1,40
 369 512 369 512 401 512 c 0,41,42
 413 512 413 512 425 508 c 128,-1,43
 437 504 437 504 446 493.5 c 128,-1,44
 455 483 455 483 461 465 c 128,-1,45
 467 447 467 447 467 419 c 0,46,47
 467 397 467 397 462.5 372 c 128,-1,48
 458 347 458 347 452 323 c 1,49,50
 467 357 467 357 490 390.5 c 128,-1,51
 513 424 513 424 540 451 c 128,-1,52
 567 478 567 478 597.5 495 c 128,-1,53
 628 512 628 512 660 512 c 0,54,55
 698 512 698 512 717.5 488 c 128,-1,56
 737 464 737 464 737 422 c 0,57,58
 737 390 737 390 731 361.5 c 128,-1,59
 725 333 725 333 718 300 c 1,60,-1
 653 56 l 1,61,-1
 727 56 l 1,62,-1
 727 30 l 1,63,64
 707 14 707 14 678 4 c 128,-1,65
 649 -6 649 -6 623 -6 c 0,66,67
 594 -6 594 -6 583 7 c 128,-1,68
 572 20 572 20 572 38 c 0,69,70
 572 67 572 67 586 118 c 2,71,-1
 633 300 l 2,0,1
EndSplineSet
EndChar

StartChar: n
Encoding: 110 110 81
Width: 552
Flags: W
LayerCount: 2
Fore
SplineSet
386 285 m 2,0,1
 393 316 393 316 398.5 342.5 c 128,-1,2
 404 369 404 369 404 395 c 0,3,4
 404 418 404 418 393.5 434 c 128,-1,5
 383 450 383 450 360 450 c 0,6,7
 333 450 333 450 305 428 c 128,-1,8
 277 406 277 406 253 375 c 128,-1,9
 229 344 229 344 209.5 310.5 c 128,-1,10
 190 277 190 277 180 255 c 1,11,-1
 127 0 l 1,12,-1
 43 0 l 1,13,-1
 131 442 l 1,14,-1
 70 451 l 1,15,-1
 72 476 l 1,16,17
 86 483 86 483 103.5 489.5 c 128,-1,18
 121 496 121 496 139.5 501 c 128,-1,19
 158 506 158 506 175.5 509 c 128,-1,20
 193 512 193 512 208 512 c 1,21,-1
 228 500 l 1,22,-1
 190 323 l 1,23,-1
 195 323 l 1,24,25
 214 363 214 363 238.5 397.5 c 128,-1,26
 263 432 263 432 290.5 457.5 c 128,-1,27
 318 483 318 483 348 497.5 c 128,-1,28
 378 512 378 512 409 512 c 0,29,30
 451 512 451 512 470.5 485.5 c 128,-1,31
 490 459 490 459 490 419 c 0,32,33
 490 397 490 397 485 364 c 128,-1,34
 480 331 480 331 473 302 c 2,35,-1
 416 56 l 1,36,-1
 490 56 l 1,37,-1
 490 30 l 1,38,39
 470 14 470 14 441.5 4 c 128,-1,40
 413 -6 413 -6 386 -6 c 0,41,42
 357 -6 357 -6 346 6 c 128,-1,43
 335 18 335 18 335 32 c 0,44,45
 335 51 335 51 340 73.5 c 128,-1,46
 345 96 345 96 350 119 c 2,47,-1
 386 285 l 2,0,1
EndSplineSet
EndChar

StartChar: o
Encoding: 111 111 82
Width: 509
Flags: W
LayerCount: 2
Fore
SplineSet
41 186 m 0,0,1
 41 239 41 239 57.5 296.5 c 128,-1,2
 74 354 74 354 108 402 c 128,-1,3
 142 450 142 450 193 481 c 128,-1,4
 244 512 244 512 312 512 c 0,5,6
 390 512 390 512 429.5 464 c 128,-1,7
 469 416 469 416 469 322 c 0,8,9
 469 256 469 256 450 195.5 c 128,-1,10
 431 135 431 135 397 89 c 128,-1,11
 363 43 363 43 315 15.5 c 128,-1,12
 267 -12 267 -12 209 -12 c 0,13,14
 132 -12 132 -12 86.5 37.5 c 128,-1,15
 41 87 41 87 41 186 c 0,0,1
292 469 m 1,16,17
 243 468 243 468 212 437 c 128,-1,18
 181 406 181 406 163 360 c 128,-1,19
 145 314 145 314 138 261 c 128,-1,20
 131 208 131 208 131 164 c 0,21,22
 131 105 131 105 157 68 c 128,-1,23
 183 31 183 31 227 31 c 0,24,25
 262 31 262 31 289.5 57.5 c 128,-1,26
 317 84 317 84 336.5 127.5 c 128,-1,27
 356 171 356 171 366.5 226 c 128,-1,28
 377 281 377 281 377 337 c 0,29,30
 377 396 377 396 356.5 432 c 128,-1,31
 336 468 336 468 292 469 c 1,16,17
EndSplineSet
Substitution2: "Single Substitution lookup 17 subtable" ordmasculine
EndChar

StartChar: p
Encoding: 112 112 83
Width: 542
Flags: W
LayerCount: 2
Fore
SplineSet
97 -146 m 1,0,1
 132 -152 132 -152 167 -171 c 1,2,-1
 167 -200 l 1,3,-1
 10 -200 l 1,4,-1
 1 -191 l 1,5,-1
 44 8 l 1,6,-1
 137 442 l 1,7,-1
 76 451 l 1,8,-1
 76 476 l 1,9,10
 109 490 109 490 145.5 501 c 128,-1,11
 182 512 182 512 214 512 c 1,12,-1
 234 500 l 1,13,-1
 193 324 l 1,14,-1
 197 324 l 1,15,16
 215 364 215 364 236.5 398 c 128,-1,17
 258 432 258 432 283 457.5 c 128,-1,18
 308 483 308 483 337 497.5 c 128,-1,19
 366 512 366 512 399 512 c 0,20,21
 421 512 421 512 441 503.5 c 128,-1,22
 461 495 461 495 476 477.5 c 128,-1,23
 491 460 491 460 499.5 434 c 128,-1,24
 508 408 508 408 508 374 c 0,25,26
 508 297 508 297 485 227 c 128,-1,27
 462 157 462 157 422.5 104 c 128,-1,28
 383 51 383 51 330 19.5 c 128,-1,29
 277 -12 277 -12 216 -12 c 0,30,31
 199 -12 199 -12 187 -11 c 128,-1,32
 175 -10 175 -10 166 -7.5 c 128,-1,33
 157 -5 157 -5 148.5 -1 c 128,-1,34
 140 3 140 3 130 8 c 1,35,-1
 97 -146 l 1,0,1
352 450 m 256,36,37
 323 450 323 450 297 427.5 c 128,-1,38
 271 405 271 405 248.5 373 c 128,-1,39
 226 341 226 341 208 305.5 c 128,-1,40
 190 270 190 270 179 243 c 1,41,-1
 140 54 l 1,42,43
 154 42 154 42 169.5 36.5 c 128,-1,44
 185 31 185 31 219 31 c 0,45,46
 259 31 259 31 294.5 60.5 c 128,-1,47
 330 90 330 90 356.5 136 c 128,-1,48
 383 182 383 182 398.5 238.5 c 128,-1,49
 414 295 414 295 414 350 c 0,50,51
 414 398 414 398 397.5 424 c 128,-1,52
 381 450 381 450 352 450 c 256,36,37
EndSplineSet
EndChar

StartChar: q
Encoding: 113 113 84
Width: 515
Flags: W
LayerCount: 2
Fore
SplineSet
354 -146 m 1,0,1
 387 -152 387 -152 424 -171 c 1,2,-1
 424 -200 l 1,3,-1
 267 -200 l 1,4,-1
 258 -192 l 1,5,-1
 347 195 l 1,6,-1
 343 195 l 1,7,8
 330 160 330 160 310.5 123 c 128,-1,9
 291 86 291 86 265.5 56 c 128,-1,10
 240 26 240 26 209.5 7 c 128,-1,11
 179 -12 179 -12 144 -12 c 0,12,13
 40 -12 40 -12 40 140 c 0,14,15
 40 211 40 211 59 277.5 c 128,-1,16
 78 344 78 344 115.5 395.5 c 128,-1,17
 153 447 153 447 208.5 478 c 128,-1,18
 264 509 264 509 338 509 c 0,19,20
 360 509 360 509 382.5 506 c 128,-1,21
 405 503 405 503 425 498.5 c 128,-1,22
 445 494 445 494 461.5 488.5 c 128,-1,23
 478 483 478 483 488 478 c 1,24,-1
 354 -146 l 1,0,1
186 50 m 0,25,26
 213 50 213 50 239.5 75.5 c 128,-1,27
 266 101 266 101 290 137 c 128,-1,28
 314 173 314 173 333 211.5 c 128,-1,29
 352 250 352 250 363 276 c 1,30,-1
 396 452 l 1,31,32
 385 460 385 460 370 463 c 128,-1,33
 355 466 355 466 332 466 c 0,34,35
 281 466 281 466 243 437.5 c 128,-1,36
 205 409 205 409 179.5 364 c 128,-1,37
 154 319 154 319 141.5 264 c 128,-1,38
 129 209 129 209 130 156 c 1,39,40
 129 105 129 105 142 77.5 c 128,-1,41
 155 50 155 50 186 50 c 0,25,26
EndSplineSet
EndChar

StartChar: r
Encoding: 114 114 85
Width: 385
Flags: W
LayerCount: 2
Fore
SplineSet
305 439 m 1,0,1
 279 429 279 429 246.5 388.5 c 128,-1,2
 214 348 214 348 189 279 c 1,3,-1
 129 0 l 1,4,-1
 43 0 l 1,5,-1
 136 442 l 1,6,-1
 75 451 l 1,7,-1
 75 476 l 1,8,9
 109 492 109 492 146 500.5 c 128,-1,10
 183 509 183 509 213 512 c 1,11,-1
 233 500 l 1,12,-1
 205 367 l 1,13,-1
 209 367 l 1,14,15
 238 433 238 433 280 472.5 c 128,-1,16
 322 512 322 512 370 512 c 0,17,18
 383 512 383 512 396 509.5 c 128,-1,19
 409 507 409 507 421 500 c 1,20,21
 421 491 421 491 418 476.5 c 128,-1,22
 415 462 415 462 409.5 447 c 128,-1,23
 404 432 404 432 397.5 418.5 c 128,-1,24
 391 405 391 405 384 398 c 1,25,-1
 305 439 l 1,0,1
EndSplineSet
EndChar

StartChar: s
Encoding: 115 115 86
Width: 418
Flags: W
LayerCount: 2
Fore
SplineSet
255 118 m 1,0,1
 254 142 254 142 241.5 159.5 c 128,-1,2
 229 177 229 177 209.5 193 c 128,-1,3
 190 209 190 209 168 225 c 128,-1,4
 146 241 146 241 126.5 260.5 c 128,-1,5
 107 280 107 280 94.5 305.5 c 128,-1,6
 82 331 82 331 82 367 c 256,7,8
 82 403 82 403 96 430 c 128,-1,9
 110 457 110 457 134.5 475 c 128,-1,10
 159 493 159 493 193.5 502.5 c 128,-1,11
 228 512 228 512 269 512 c 0,12,13
 295 512 295 512 327.5 507.5 c 128,-1,14
 360 503 360 503 389 486 c 1,15,16
 389 475 389 475 385 460.5 c 128,-1,17
 381 446 381 446 374.5 432.5 c 128,-1,18
 368 419 368 419 360 407.5 c 128,-1,19
 352 396 352 396 343 392 c 1,20,-1
 269 469 l 1,21,22
 248 468 248 468 230 464 c 128,-1,23
 212 460 212 460 198.5 451 c 128,-1,24
 185 442 185 442 177.5 427.5 c 128,-1,25
 170 413 170 413 170 391 c 0,26,27
 170 365 170 365 183 346.5 c 128,-1,28
 196 328 196 328 215.5 311.5 c 128,-1,29
 235 295 235 295 257.5 279.5 c 128,-1,30
 280 264 280 264 299.5 244.5 c 128,-1,31
 319 225 319 225 332 199.5 c 128,-1,32
 345 174 345 174 345 139 c 0,33,34
 345 103 345 103 328.5 75 c 128,-1,35
 312 47 312 47 283.5 27.5 c 128,-1,36
 255 8 255 8 217.5 -2 c 128,-1,37
 180 -12 180 -12 138 -12 c 256,38,39
 96 -12 96 -12 61.5 -3.5 c 128,-1,40
 27 5 27 5 7 18 c 1,41,42
 12 44 12 44 19 68.5 c 128,-1,43
 26 93 26 93 48 114 c 1,44,-1
 138 31 l 1,45,46
 159 31 159 31 179.5 36 c 128,-1,47
 200 41 200 41 216.5 52 c 128,-1,48
 233 63 233 63 243.5 79 c 128,-1,49
 254 95 254 95 255 118 c 1,0,1
EndSplineSet
Substitution2: "'hist' Historical Forms lookup 16 subtable" longs
Substitution2: "'aalt' Access All Alternates lookup 0 subtable" longs
EndChar

StartChar: t
Encoding: 116 116 87
Width: 337
Flags: W
LayerCount: 2
Fore
SplineSet
54 476 m 1,0,1
 74 487 74 487 96.5 496 c 128,-1,2
 119 505 119 505 141 510 c 1,3,-1
 157 586 l 1,4,5
 171 597 171 597 189.5 605.5 c 128,-1,6
 208 614 208 614 228 622 c 1,7,-1
 249 610 l 1,8,-1
 225 500 l 1,9,-1
 349 500 l 1,10,11
 351 488 351 488 349 475 c 128,-1,12
 347 462 347 462 339 450 c 1,13,-1
 215 450 l 1,14,-1
 152 160 l 2,15,16
 148 141 148 141 146 126.5 c 128,-1,17
 144 112 144 112 144 100 c 0,18,19
 144 74 144 74 159 62 c 128,-1,20
 174 50 174 50 192 50 c 0,21,22
 217 50 217 50 245.5 59.5 c 128,-1,23
 274 69 274 69 298 81 c 1,24,-1
 309 63 l 1,25,26
 300 50 300 50 282 37 c 128,-1,27
 264 24 264 24 241.5 13 c 128,-1,28
 219 2 219 2 194.5 -5 c 128,-1,29
 170 -12 170 -12 148 -12 c 0,30,31
 104 -12 104 -12 79 8 c 128,-1,32
 54 28 54 28 54 70 c 0,33,34
 54 84 54 84 56.5 101 c 128,-1,35
 59 118 59 118 63 136 c 2,36,-1
 129 450 l 1,37,-1
 53 450 l 1,38,-1
 54 476 l 1,0,1
EndSplineSet
EndChar

StartChar: v
Encoding: 118 118 89
Width: 447
Flags: W
LayerCount: 2
Fore
SplineSet
249 151 m 1,0,1
 285 211 285 211 313 267.5 c 128,-1,2
 341 324 341 324 361 381 c 1,3,4
 361 392 361 392 358.5 409.5 c 128,-1,5
 356 427 356 427 353.5 445 c 128,-1,6
 351 463 351 463 348 478.5 c 128,-1,7
 345 494 345 494 343 500 c 1,8,9
 372 512 372 512 402.5 512.5 c 128,-1,10
 433 513 433 513 456 500 c 1,11,12
 441 438 441 438 415 373.5 c 128,-1,13
 389 309 389 309 355.5 245 c 128,-1,14
 322 181 322 181 282.5 119 c 128,-1,15
 243 57 243 57 200 0 c 1,16,-1
 153 -12 l 1,17,-1
 79 442 l 1,18,-1
 15 450 l 1,19,-1
 15 475 l 1,20,21
 21 479 21 479 33 485.5 c 128,-1,22
 45 492 45 492 59.5 498 c 128,-1,23
 74 504 74 504 89.5 508 c 128,-1,24
 105 512 105 512 119 512 c 0,25,26
 141 512 141 512 150.5 501 c 128,-1,27
 160 490 160 490 163 474 c 2,28,-1
 209 149 l 1,29,-1
 214 86 l 1,30,-1
 216 86 l 1,31,-1
 249 151 l 1,0,1
EndSplineSet
EndChar

StartChar: w
Encoding: 119 119 90
Width: 687
Flags: W
LayerCount: 2
Fore
SplineSet
493 151 m 1,0,1
 530 211 530 211 556 267 c 128,-1,2
 582 323 582 323 601 380 c 1,3,4
 601 391 601 391 598.5 409 c 128,-1,5
 596 427 596 427 593.5 445 c 128,-1,6
 591 463 591 463 588 478.5 c 128,-1,7
 585 494 585 494 583 500 c 1,8,9
 597 506 597 506 613 509 c 128,-1,10
 629 512 629 512 644 512 c 0,11,12
 674 512 674 512 697 500 c 1,13,14
 682 438 682 438 657 373.5 c 128,-1,15
 632 309 632 309 600 245 c 128,-1,16
 568 181 568 181 530 119 c 128,-1,17
 492 57 492 57 449 0 c 1,18,-1
 402 -12 l 1,19,-1
 360 272 l 1,20,-1
 360 354 l 1,21,-1
 357 354 l 1,22,-1
 317 272 l 2,23,24
 284 203 284 203 250 135.5 c 128,-1,25
 216 68 216 68 182 0 c 1,26,-1
 127 -12 l 1,27,-1
 79 442 l 1,28,-1
 15 450 l 1,29,-1
 15 475 l 1,30,31
 21 479 21 479 33 485.5 c 128,-1,32
 45 492 45 492 59.5 498 c 128,-1,33
 74 504 74 504 89.5 508 c 128,-1,34
 105 512 105 512 119 512 c 0,35,36
 141 512 141 512 152.5 501.5 c 128,-1,37
 164 491 164 491 166 474 c 2,38,-1
 193 158 l 1,39,-1
 189 86 l 1,40,-1
 191 86 l 1,41,-1
 221 159 l 1,42,-1
 383 488 l 1,43,-1
 417 500 l 1,44,45
 429 415 429 415 437 359.5 c 128,-1,46
 445 304 445 304 448 278 c 0,47,48
 456 218 456 218 464 158 c 1,49,-1
 465 86 l 1,50,-1
 467 86 l 1,51,-1
 493 151 l 1,0,1
EndSplineSet
EndChar

StartChar: x
Encoding: 120 120 91
Width: 454
Flags: W
LayerCount: 2
Fore
SplineSet
201 213 m 1,0,1
 190 201 190 201 175.5 187 c 128,-1,2
 161 173 161 173 147 158 c 128,-1,3
 133 143 133 143 121 128 c 128,-1,4
 109 113 109 113 102 100 c 1,5,6
 100 93 100 93 99.5 80 c 128,-1,7
 99 67 99 67 98.5 52.5 c 128,-1,8
 98 38 98 38 98 25.5 c 128,-1,9
 98 13 98 13 99 7 c 1,10,11
 82 0 82 0 64.5 -3 c 128,-1,12
 47 -6 47 -6 31 -6 c 0,13,14
 -2 -6 -2 -6 -24 7 c 1,15,16
 -15 37 -15 37 13 74 c 128,-1,17
 41 111 41 111 75 146 c 128,-1,18
 109 181 109 181 141 209.5 c 128,-1,19
 173 238 173 238 189 252 c 1,20,-1
 121 436 l 1,21,-1
 57 444 l 1,22,-1
 57 469 l 1,23,24
 63 473 63 473 74.5 479.5 c 128,-1,25
 86 486 86 486 100.5 492 c 128,-1,26
 115 498 115 498 130 502 c 128,-1,27
 145 506 145 506 159 506 c 0,28,29
 181 506 181 506 191 494.5 c 128,-1,30
 201 483 201 483 207 468 c 1,31,-1
 256 294 l 1,32,33
 279 317 279 317 306.5 346 c 128,-1,34
 334 375 334 375 348 401 c 1,35,36
 349 408 349 408 349 421 c 128,-1,37
 349 434 349 434 348 448.5 c 128,-1,38
 347 463 347 463 346 475.5 c 128,-1,39
 345 488 345 488 344 494 c 1,40,41
 361 500 361 500 377.5 503.5 c 128,-1,42
 394 507 394 507 411 507 c 0,43,44
 443 507 443 507 467 494 c 1,45,46
 461 474 461 474 447 451 c 128,-1,47
 433 428 433 428 414 405 c 128,-1,48
 395 382 395 382 373.5 359.5 c 128,-1,49
 352 337 352 337 332 317.5 c 128,-1,50
 312 298 312 298 294.5 282.5 c 128,-1,51
 277 267 277 267 267 258 c 1,52,-1
 339 63 l 1,53,-1
 404 55 l 1,54,-1
 404 30 l 1,55,56
 398 26 398 26 386.5 20 c 128,-1,57
 375 14 375 14 361.5 8 c 128,-1,58
 348 2 348 2 332.5 -2 c 128,-1,59
 317 -6 317 -6 304 -6 c 0,60,61
 283 -6 283 -6 272 5 c 128,-1,62
 261 16 261 16 256 32 c 2,63,-1
 201 213 l 1,0,1
EndSplineSet
EndChar

StartChar: y
Encoding: 121 121 92
Width: 455
Flags: W
LayerCount: 2
Fore
SplineSet
88 442 m 1,0,-1
 24 450 l 1,1,-1
 24 475 l 1,2,3
 29 479 29 479 40.5 485 c 128,-1,4
 52 491 52 491 67 497 c 128,-1,5
 82 503 82 503 98 507.5 c 128,-1,6
 114 512 114 512 128 512 c 0,7,8
 149 512 149 512 158.5 501.5 c 128,-1,9
 168 491 168 491 173 474 c 2,10,-1
 256 124 l 1,11,-1
 259 64 l 1,12,-1
 261 64 l 1,13,-1
 284 123 l 1,14,15
 297 151 297 151 310.5 184.5 c 128,-1,16
 324 218 324 218 337 252 c 128,-1,17
 350 286 350 286 361 319 c 128,-1,18
 372 352 372 352 380 380 c 1,19,20
 380 391 380 391 377.5 409 c 128,-1,21
 375 427 375 427 372 445 c 128,-1,22
 369 463 369 463 366 478.5 c 128,-1,23
 363 494 363 494 361 500 c 1,24,25
 375 506 375 506 391 509 c 128,-1,26
 407 512 407 512 422 512 c 0,27,28
 452 512 452 512 475 500 c 1,29,30
 444 376 444 376 390.5 252 c 128,-1,31
 337 128 337 128 272 0 c 0,32,33
 218 -105 218 -105 164 -157 c 128,-1,34
 110 -209 110 -209 42 -209 c 0,35,36
 27 -209 27 -209 13.5 -205 c 128,-1,37
 0 -201 0 -201 -15 -193 c 1,38,39
 -16 -182 -16 -182 -13 -168 c 128,-1,40
 -10 -154 -10 -154 -3.5 -140 c 128,-1,41
 3 -126 3 -126 13.5 -114 c 128,-1,42
 24 -102 24 -102 37 -95 c 1,43,-1
 118 -137 l 1,44,45
 125 -132 125 -132 136 -122.5 c 128,-1,46
 147 -113 147 -113 159 -96.5 c 128,-1,47
 171 -80 171 -80 183 -56.5 c 128,-1,48
 195 -33 195 -33 206 0 c 1,49,-1
 88 442 l 1,0,-1
EndSplineSet
EndChar

StartChar: z
Encoding: 122 122 93
Width: 436
Flags: W
LayerCount: 2
Fore
SplineSet
116 180 m 1,0,-1
 336 423 l 1,1,2
 291 420 291 420 238.5 424.5 c 128,-1,3
 186 429 186 429 130 438 c 1,4,-1
 84 366 l 1,5,-1
 59 372 l 1,6,-1
 73 474 l 2,7,8
 79 513 79 513 127 513 c 0,9,10
 163 513 163 513 231.5 502.5 c 128,-1,11
 300 492 300 492 395 487 c 1,12,-1
 418 512 l 1,13,14
 431 510 431 510 442.5 502 c 128,-1,15
 454 494 454 494 456 480 c 1,16,-1
 112 101 l 1,17,18
 171 90 171 90 227 71.5 c 128,-1,19
 283 53 283 53 331 27 c 1,20,-1
 389 93 l 1,21,-1
 413 79 l 1,22,-1
 378 -23 l 2,23,24
 373 -38 373 -38 360 -48 c 128,-1,25
 347 -58 347 -58 328 -58 c 256,26,27
 309 -58 309 -58 281 -45.5 c 128,-1,28
 253 -33 253 -33 217.5 -17 c 128,-1,29
 182 -1 182 -1 141 15 c 128,-1,30
 100 31 100 31 55 38 c 1,31,-1
 14 -6 l 1,32,33
 1 -4 1 -4 -11 4 c 128,-1,34
 -23 12 -23 12 -24 27 c 1,35,-1
 116 180 l 1,0,-1
EndSplineSet
EndChar

StartChar: braceleft
Encoding: 123 123 94
Width: 351
Flags: W
LayerCount: 2
Fore
SplineSet
111 112 m 2,0,1
 116 135 116 135 116 151 c 0,2,3
 116 184 116 184 100 202.5 c 128,-1,4
 84 221 84 221 54 221 c 1,5,-1
 60 251 l 1,6,7
 79 251 79 251 95.5 259 c 128,-1,8
 112 267 112 267 125.5 281.5 c 128,-1,9
 139 296 139 296 148.5 315 c 128,-1,10
 158 334 158 334 163 356 c 2,11,-1
 214 594 l 2,12,13
 224 642 224 642 254 671 c 128,-1,14
 284 700 284 700 332 700 c 2,15,-1
 422 700 l 1,16,-1
 414 657 l 1,17,-1
 365 657 l 2,18,19
 338 657 338 657 322.5 643.5 c 128,-1,20
 307 630 307 630 300 598 c 2,21,-1
 251 366 l 2,22,23
 244 333 244 333 228.5 310 c 128,-1,24
 213 287 213 287 194 272.5 c 128,-1,25
 175 258 175 258 154 250.5 c 128,-1,26
 133 243 133 243 115 241 c 1,27,-1
 113 235 l 1,28,29
 128 233 128 233 143 226.5 c 128,-1,30
 158 220 158 220 170.5 208 c 128,-1,31
 183 196 183 196 191 178.5 c 128,-1,32
 199 161 199 161 199 137 c 0,33,34
 199 122 199 122 196 106 c 2,35,-1
 146 -129 l 2,36,37
 143 -141 143 -141 143 -152 c 0,38,39
 143 -189 143 -189 186 -187 c 1,40,-1
 234 -187 l 1,41,-1
 225 -230 l 1,42,-1
 135 -230 l 2,43,44
 98 -230 98 -230 77.5 -212 c 128,-1,45
 57 -194 57 -194 57 -158 c 0,46,47
 57 -141 57 -141 61 -125 c 2,48,-1
 111 112 l 2,0,1
EndSplineSet
Position2: "'case' Case-Sensitive Forms lookup 1 per glyph data 3" dx=0 dy=100 dh=0 dv=0
EndChar

StartChar: bar
Encoding: 124 124 95
Width: 237
Flags: W
LayerCount: 2
Fore
SplineSet
122 700 m 1,0,-1
 174 700 l 1,1,-1
 174 -130 l 1,2,-1
 122 -130 l 1,3,-1
 122 700 l 1,0,-1
EndSplineSet
EndChar

StartChar: braceright
Encoding: 125 125 96
Width: 351
Flags: W
LayerCount: 2
Fore
SplineSet
259 360 m 2,0,1
 254 337 254 337 254 321 c 0,2,3
 254 251 254 251 316 251 c 1,4,-1
 310 221 l 1,5,6
 291 221 291 221 274.5 212.5 c 128,-1,7
 258 204 258 204 244.5 190 c 128,-1,8
 231 176 231 176 221.5 157 c 128,-1,9
 212 138 212 138 207 116 c 2,10,-1
 156 -124 l 2,11,12
 146 -172 146 -172 116 -201 c 128,-1,13
 86 -230 86 -230 38 -230 c 2,14,-1
 -52 -230 l 1,15,-1
 -43 -187 l 1,16,-1
 5 -187 l 2,17,18
 32 -187 32 -187 47.5 -174 c 128,-1,19
 63 -161 63 -161 70 -129 c 2,20,-1
 120 106 l 2,21,22
 127 139 127 139 141 162 c 128,-1,23
 155 185 155 185 172.5 199.5 c 128,-1,24
 190 214 190 214 209.5 221.5 c 128,-1,25
 229 229 229 229 247 231 c 1,26,-1
 248 237 l 1,27,28
 234 238 234 238 220 244.5 c 128,-1,29
 206 251 206 251 195 262 c 128,-1,30
 184 273 184 273 177.5 290 c 128,-1,31
 171 307 171 307 171 330 c 0,32,33
 171 349 171 349 175 366 c 2,34,-1
 224 598 l 2,35,36
 227 610 227 610 227 620 c 0,37,38
 228 658 228 658 184 657 c 1,39,-1
 137 657 l 1,40,-1
 145 700 l 1,41,-1
 236 700 l 2,42,43
 273 700 273 700 293 681.5 c 128,-1,44
 313 663 313 663 313 628 c 0,45,46
 313 611 313 611 309 595 c 2,47,-1
 259 360 l 2,0,1
EndSplineSet
Position2: "'case' Case-Sensitive Forms lookup 1 per glyph data 3" dx=0 dy=100 dh=0 dv=0
EndChar

StartChar: asciitilde
Encoding: 126 126 97
Width: 524
Flags: W
LayerCount: 2
Fore
SplineSet
66 322 m 1,0,1
 102 376 102 376 135 396.5 c 128,-1,2
 168 417 168 417 198 417 c 0,3,4
 223 417 223 417 247 406.5 c 128,-1,5
 271 396 271 396 294 383 c 128,-1,6
 317 370 317 370 340.5 359.5 c 128,-1,7
 364 349 364 349 389 349 c 0,8,9
 407 349 407 349 426.5 356.5 c 128,-1,10
 446 364 446 364 466 383 c 1,11,-1
 479 362 l 1,12,13
 450 320 450 320 421.5 302.5 c 128,-1,14
 393 285 393 285 366 285 c 0,15,16
 340 285 340 285 315.5 295.5 c 128,-1,17
 291 306 291 306 267 319 c 128,-1,18
 243 332 243 332 219 342.5 c 128,-1,19
 195 353 195 353 171 353 c 0,20,21
 149 353 149 353 126.5 341 c 128,-1,22
 104 329 104 329 81 298 c 1,23,-1
 66 322 l 1,0,1
EndSplineSet
EndChar

StartChar: exclamdown
Encoding: 161 161 99
Width: 327
Flags: W
LayerCount: 2
Fore
SplineSet
197 286 m 1,0,-1
 192 110 l 1,1,-1
 133 -186 l 1,2,3
 121 -192 121 -192 108 -194.5 c 128,-1,4
 95 -197 95 -197 83 -197 c 0,5,6
 69 -197 69 -197 57.5 -194.5 c 128,-1,7
 46 -192 46 -192 37 -186 c 1,8,-1
 102 110 l 1,9,-1
 171 286 l 1,10,-1
 197 286 l 1,0,-1
142 446 m 0,11,12
 142 476 142 476 161 494 c 128,-1,13
 180 512 180 512 210 512 c 0,14,15
 241 512 241 512 260 494 c 128,-1,16
 279 476 279 476 279 446 c 0,17,18
 279 417 279 417 260 399 c 128,-1,19
 241 381 241 381 210 381 c 0,20,21
 180 381 180 381 161 399 c 128,-1,22
 142 417 142 417 142 446 c 0,11,12
EndSplineSet
Position2: "'case' Case-Sensitive Forms lookup 1 per glyph data 3" dx=0 dy=100 dh=0 dv=0
EndChar

StartChar: cent
Encoding: 162 162 100
Width: 524
Flags: W
LayerCount: 2
Fore
SplineSet
430 89 m 1,0,1
 419 71 419 71 403 54.5 c 128,-1,2
 387 38 387 38 366 24.5 c 128,-1,3
 345 11 345 11 319 1.5 c 128,-1,4
 293 -8 293 -8 263 -10 c 1,5,-1
 230 -170 l 1,6,-1
 178 -170 l 1,7,-1
 212 -10 l 1,8,9
 127 -2 127 -2 87 46 c 128,-1,10
 47 94 47 94 47 171 c 0,11,12
 47 234 47 234 68.5 290 c 128,-1,13
 90 346 90 346 127 390.5 c 128,-1,14
 164 435 164 435 214 464.5 c 128,-1,15
 264 494 264 494 321 505 c 1,16,-1
 355 660 l 1,17,-1
 407 660 l 1,18,-1
 375 511 l 1,19,20
 378 511 378 511 381 511.5 c 128,-1,21
 384 512 384 512 387 511 c 1,22,23
 405 511 405 511 426 509.5 c 128,-1,24
 447 508 447 508 465.5 505 c 128,-1,25
 484 502 484 502 498.5 498 c 128,-1,26
 513 494 513 494 519 489 c 1,27,28
 520 478 520 478 517.5 464.5 c 128,-1,29
 515 451 515 451 509.5 438 c 128,-1,30
 504 425 504 425 496 414 c 128,-1,31
 488 403 488 403 479 399 c 1,32,-1
 411 468 l 1,33,34
 386 468 386 468 364 465 c 1,35,-1
 276 52 l 1,36,37
 327 54 327 54 361 72 c 128,-1,38
 395 90 395 90 415 108 c 1,39,-1
 430 89 l 1,0,1
143 179 m 1,40,41
 142 125 142 125 164.5 94.5 c 128,-1,42
 187 64 187 64 225 55 c 1,43,-1
 311 451 l 1,44,45
 272 436 272 436 240.5 410 c 128,-1,46
 209 384 209 384 187 349 c 128,-1,47
 165 314 165 314 153.5 271 c 128,-1,48
 142 228 142 228 143 179 c 1,40,41
EndSplineSet
EndChar

StartChar: sterling
Encoding: 163 163 101
Width: 524
Flags: W
LayerCount: 2
Fore
SplineSet
52 381 m 1,0,-1
 137 381 l 1,1,2
 129 413 129 413 125.5 444.5 c 128,-1,3
 122 476 122 476 122 498 c 0,4,5
 122 547 122 547 135.5 586.5 c 128,-1,6
 149 626 149 626 179.5 654 c 128,-1,7
 210 682 210 682 258 697 c 128,-1,8
 306 712 306 712 375 712 c 0,9,10
 436 712 436 712 485.5 702 c 128,-1,11
 535 692 535 692 562 678 c 1,12,13
 558 662 558 662 550.5 639.5 c 128,-1,14
 543 617 543 617 534.5 593.5 c 128,-1,15
 526 570 526 570 517 547 c 128,-1,16
 508 524 508 524 501 507 c 1,17,-1
 476 507 l 1,18,-1
 465 644 l 1,19,20
 446 652 446 652 420.5 656 c 128,-1,21
 395 660 395 660 363 660 c 0,22,23
 316 660 316 660 283 645 c 128,-1,24
 250 630 250 630 233 597 c 0,25,26
 223 577 223 577 219 551.5 c 128,-1,27
 215 526 215 526 216 505 c 0,28,29
 217 472 217 472 220.5 445 c 128,-1,30
 224 418 224 418 230 381 c 1,31,-1
 386 381 l 1,32,-1
 375 329 l 1,33,-1
 237 329 l 1,34,35
 238 318 238 318 239 309.5 c 128,-1,36
 240 301 240 301 240.5 292.5 c 128,-1,37
 241 284 241 284 240.5 274.5 c 128,-1,38
 240 265 240 265 238 250 c 1,39,40
 236 217 236 217 214 177.5 c 128,-1,41
 192 138 192 138 150 108 c 2,42,-1
 111 80 l 1,43,-1
 111 76 l 1,44,-1
 166 82 l 1,45,-1
 366 82 l 1,46,-1
 439 194 l 1,47,-1
 464 194 l 1,48,49
 462 172 462 172 458.5 146 c 128,-1,50
 455 120 455 120 451 93.5 c 128,-1,51
 447 67 447 67 442.5 42.5 c 128,-1,52
 438 18 438 18 434 0 c 1,53,-1
 -26 0 l 1,54,-1
 -20 31 l 1,55,56
 6 41 6 41 26 52 c 128,-1,57
 46 63 46 63 62 75.5 c 128,-1,58
 78 88 78 88 91.5 103 c 128,-1,59
 105 118 105 118 119 137 c 0,60,61
 138 162 138 162 149 192 c 128,-1,62
 160 222 160 222 160 245 c 0,63,64
 160 273 160 273 156.5 293.5 c 128,-1,65
 153 314 153 314 148 329 c 1,66,-1
 41 329 l 1,67,-1
 52 381 l 1,0,-1
EndSplineSet
EndChar

StartChar: currency
Encoding: 164 164 102
Width: 524
Flags: W
LayerCount: 2
Fore
SplineSet
31 170 m 1,0,-1
 114 252 l 1,1,-1
 149 263 l 1,2,3
 135 280 135 280 129 301 c 128,-1,4
 123 322 123 322 123 346 c 0,5,6
 123 369 123 369 129 390.5 c 128,-1,7
 135 412 135 412 149 429 c 1,8,-1
 114 440 l 1,9,-1
 32 523 l 1,10,-1
 86 577 l 1,11,-1
 168 494 l 1,12,-1
 180 460 l 1,13,14
 197 473 197 473 218 480 c 128,-1,15
 239 487 239 487 262 487 c 0,16,17
 312 485 312 485 345 460 c 1,18,-1
 357 494 l 1,19,-1
 439 576 l 1,20,-1
 493 522 l 1,21,-1
 410 440 l 1,22,-1
 377 429 l 1,23,24
 389 412 389 412 395 390.5 c 128,-1,25
 401 369 401 369 401 346 c 0,26,27
 401 298 401 298 377 262 c 1,28,-1
 410 252 l 1,29,-1
 492 169 l 1,30,-1
 438 115 l 1,31,-1
 356 197 l 1,32,-1
 345 231 l 1,33,34
 310 207 310 207 262 207 c 0,35,36
 239 207 239 207 218 213.5 c 128,-1,37
 197 220 197 220 178 231 c 1,38,-1
 168 198 l 1,39,-1
 85 116 l 1,40,-1
 31 170 l 1,0,-1
262 264 m 256,41,42
 298 264 298 264 322.5 287 c 128,-1,43
 347 310 347 310 347 346 c 256,44,45
 347 382 347 382 322.5 405.5 c 128,-1,46
 298 429 298 429 262 429 c 0,47,48
 226 430 226 430 201.5 406 c 128,-1,49
 177 382 177 382 177 346 c 256,50,51
 177 310 177 310 201.5 287 c 128,-1,52
 226 264 226 264 262 264 c 256,41,42
EndSplineSet
EndChar

StartChar: yen
Encoding: 165 165 103
Width: 524
Flags: W
LayerCount: 2
Fore
SplineSet
447 700 m 1,0,-1
 668 700 l 1,1,-1
 662 671 l 1,2,3
 619 652 619 652 581 646 c 1,4,-1
 354 335 l 1,5,-1
 498 335 l 1,6,-1
 488 283 l 1,7,-1
 325 283 l 1,8,-1
 311 220 l 1,9,-1
 474 220 l 1,10,-1
 464 168 l 1,11,-1
 301 168 l 1,12,-1
 277 53 l 1,13,14
 315 48 315 48 346 29 c 1,15,-1
 341 0 l 1,16,-1
 87 0 l 1,17,-1
 92 29 l 1,18,19
 132 47 132 47 181 53 c 1,20,-1
 205 168 l 1,21,-1
 42 168 l 1,22,-1
 52 220 l 1,23,-1
 215 220 l 1,24,-1
 229 283 l 1,25,-1
 66 283 l 1,26,-1
 77 335 l 1,27,-1
 219 335 l 1,28,-1
 114 646 l 1,29,30
 92 651 92 651 73.5 657 c 128,-1,31
 55 663 55 663 38 671 c 1,32,-1
 44 700 l 1,33,-1
 307 700 l 1,34,-1
 301 671 l 1,35,36
 285 665 285 665 265 659 c 128,-1,37
 245 653 245 653 219 646 c 1,38,-1
 310 351 l 1,39,-1
 517 646 l 1,40,41
 496 651 496 651 476.5 657 c 128,-1,42
 457 663 457 663 441 671 c 1,43,-1
 447 700 l 1,0,-1
EndSplineSet
EndChar

StartChar: brokenbar
Encoding: 166 166 104
Width: 237
Flags: W
LayerCount: 2
Fore
SplineSet
120 190 m 1,0,-1
 172 190 l 1,1,-1
 172 -130 l 1,2,-1
 120 -130 l 1,3,-1
 120 190 l 1,0,-1
172 380 m 1,4,-1
 120 380 l 1,5,-1
 120 700 l 1,6,-1
 172 700 l 1,7,-1
 172 380 l 1,4,-1
EndSplineSet
EndChar

StartChar: section
Encoding: 167 167 105
Width: 527
Flags: W
LayerCount: 2
Fore
SplineSet
379 44 m 1,0,1
 380 74 380 74 358.5 92 c 128,-1,2
 337 110 337 110 305 123.5 c 128,-1,3
 273 137 273 137 235.5 149.5 c 128,-1,4
 198 162 198 162 166 180.5 c 128,-1,5
 134 199 134 199 112.5 228 c 128,-1,6
 91 257 91 257 91 304 c 0,7,8
 91 354 91 354 128.5 390 c 128,-1,9
 166 426 166 426 222 449 c 1,10,11
 201 459 201 459 183 471 c 128,-1,12
 165 483 165 483 151.5 499.5 c 128,-1,13
 138 516 138 516 130 537.5 c 128,-1,14
 122 559 122 559 122 587 c 0,15,16
 122 614 122 614 134 637 c 128,-1,17
 146 660 146 660 167.5 676.5 c 128,-1,18
 189 693 189 693 219 702.5 c 128,-1,19
 249 712 249 712 286 712 c 0,20,21
 340 712 340 712 379 706.5 c 128,-1,22
 418 701 418 701 450 689 c 1,23,24
 448 673 448 673 445.5 661.5 c 128,-1,25
 443 650 443 650 440 639 c 128,-1,26
 437 628 437 628 433.5 616 c 128,-1,27
 430 604 430 604 425 588 c 1,28,-1
 400 588 l 1,29,-1
 344 660 l 1,30,31
 332 665 332 665 321.5 666.5 c 128,-1,32
 311 668 311 668 295 669 c 1,33,34
 252 668 252 668 231.5 645 c 128,-1,35
 211 622 211 622 212 596 c 1,36,37
 211 566 211 566 232.5 546.5 c 128,-1,38
 254 527 254 527 286 512 c 128,-1,39
 318 497 318 497 355.5 483.5 c 128,-1,40
 393 470 393 470 425 451 c 128,-1,41
 457 432 457 432 478.5 405 c 128,-1,42
 500 378 500 378 500 337 c 0,43,44
 500 308 500 308 488 284.5 c 128,-1,45
 476 261 476 261 457 242 c 128,-1,46
 438 223 438 223 415 208.5 c 128,-1,47
 392 194 392 194 371 184 c 1,48,49
 391 175 391 175 408.5 164.5 c 128,-1,50
 426 154 426 154 439.5 140 c 128,-1,51
 453 126 453 126 461 108.5 c 128,-1,52
 469 91 469 91 469 68 c 0,53,54
 469 -2 469 -2 416 -42 c 128,-1,55
 363 -82 363 -82 274 -82 c 0,56,57
 190 -82 190 -82 112 -53 c 1,58,59
 113 -35 113 -35 115 -22.5 c 128,-1,60
 117 -10 117 -10 120 1.5 c 128,-1,61
 123 13 123 13 127.5 24.5 c 128,-1,62
 132 36 132 36 137 52 c 1,63,-1
 162 52 l 1,64,-1
 226 -27 l 1,65,66
 237 -36 237 -36 247.5 -37.5 c 128,-1,67
 258 -39 258 -39 271 -39 c 0,68,69
 320 -39 320 -39 350 -14.5 c 128,-1,70
 380 10 380 10 379 44 c 1,0,1
410 313 m 1,71,72
 411 337 411 337 398.5 354.5 c 128,-1,73
 386 372 386 372 366 384.5 c 128,-1,74
 346 397 346 397 320 407.5 c 128,-1,75
 294 418 294 418 267 429 c 1,76,77
 234 413 234 413 207 385.5 c 128,-1,78
 180 358 180 358 181 326 c 1,79,80
 180 300 180 300 192.5 281 c 128,-1,81
 205 262 205 262 225.5 248 c 128,-1,82
 246 234 246 234 272 223 c 128,-1,83
 298 212 298 212 325 202 c 1,84,85
 342 212 342 212 357.5 226 c 128,-1,86
 373 240 373 240 385 254.5 c 128,-1,87
 397 269 397 269 404 284 c 128,-1,88
 411 299 411 299 410 313 c 1,71,72
EndSplineSet
EndChar

StartChar: dieresis
Encoding: 168 168 106
Width: 411
Flags: W
LayerCount: 2
Fore
SplineSet
160 662 m 0,0,1
 160 686 160 686 175 700.5 c 128,-1,2
 190 715 190 715 215 715 c 0,3,4
 239 715 239 715 254 700.5 c 128,-1,5
 269 686 269 686 269 662 c 0,6,7
 269 639 269 639 254 625 c 128,-1,8
 239 611 239 611 215 611 c 0,9,10
 190 611 190 611 175 625 c 128,-1,11
 160 639 160 639 160 662 c 0,0,1
362 662 m 0,12,13
 362 686 362 686 377 700.5 c 128,-1,14
 392 715 392 715 416 715 c 0,15,16
 441 715 441 715 456 700.5 c 128,-1,17
 471 686 471 686 471 662 c 0,18,19
 471 639 471 639 456 625 c 128,-1,20
 441 611 441 611 416 611 c 0,21,22
 392 611 392 611 377 625 c 128,-1,23
 362 639 362 639 362 662 c 0,12,13
EndSplineSet
EndChar

StartChar: copyright
Encoding: 169 169 107
Width: 797
Flags: W
LayerCount: 2
Fore
SplineSet
60 290 m 256,0,1
 60 373 60 373 89.5 438.5 c 128,-1,2
 119 504 119 504 167.5 549 c 128,-1,3
 216 594 216 594 279.5 618 c 128,-1,4
 343 642 343 642 412 642 c 256,5,6
 481 642 481 642 544.5 618 c 128,-1,7
 608 594 608 594 656.5 549 c 128,-1,8
 705 504 705 504 734.5 438.5 c 128,-1,9
 764 373 764 373 764 290 c 256,10,11
 764 207 764 207 734.5 141.5 c 128,-1,12
 705 76 705 76 656.5 31 c 128,-1,13
 608 -14 608 -14 544.5 -38 c 128,-1,14
 481 -62 481 -62 412 -62 c 0,15,16
 340 -62 340 -62 276 -38 c 128,-1,17
 212 -14 212 -14 164 31 c 128,-1,18
 116 76 116 76 88 141.5 c 128,-1,19
 60 207 60 207 60 290 c 256,0,1
111 290 m 256,20,21
 111 221 111 221 134.5 164.5 c 128,-1,22
 158 108 158 108 199.5 68.5 c 128,-1,23
 241 29 241 29 295.5 7 c 128,-1,24
 350 -15 350 -15 412 -15 c 256,25,26
 474 -15 474 -15 529 7 c 128,-1,27
 584 29 584 29 624.5 68.5 c 128,-1,28
 665 108 665 108 688.5 164.5 c 128,-1,29
 712 221 712 221 713 290 c 1,30,31
 712 359 712 359 687 415.5 c 128,-1,32
 662 472 662 472 620.5 511.5 c 128,-1,33
 579 551 579 551 524.5 573 c 128,-1,34
 470 595 470 595 412 595 c 0,35,36
 346 595 346 595 290.5 573 c 128,-1,37
 235 551 235 551 195.5 511 c 128,-1,38
 156 471 156 471 133.5 415 c 128,-1,39
 111 359 111 359 111 290 c 256,20,21
519 206 m 1,40,-1
 544 206 l 1,41,42
 548 191 548 191 550 160.5 c 128,-1,43
 552 130 552 130 549 106 c 1,44,45
 540 99 540 99 526.5 94.5 c 128,-1,46
 513 90 513 90 498 87 c 128,-1,47
 483 84 483 84 467 83 c 128,-1,48
 451 82 451 82 438 82 c 0,49,50
 389 82 389 82 348.5 95.5 c 128,-1,51
 308 109 308 109 278.5 135.5 c 128,-1,52
 249 162 249 162 232.5 201 c 128,-1,53
 216 240 216 240 216 291 c 0,54,55
 216 343 216 343 234.5 382 c 128,-1,56
 253 421 253 421 282.5 447 c 128,-1,57
 312 473 312 473 349.5 486.5 c 128,-1,58
 387 500 387 500 425 500 c 0,59,60
 464 500 464 500 495 494.5 c 128,-1,61
 526 489 526 489 546 479 c 1,62,63
 547 470 547 470 547 455.5 c 128,-1,64
 547 441 547 441 546 425 c 128,-1,65
 545 409 545 409 543 394 c 128,-1,66
 541 379 541 379 538 369 c 1,67,-1
 513 369 l 1,68,-1
 483 452 l 1,69,70
 475 457 475 457 460.5 457.5 c 128,-1,71
 446 458 446 458 432 459 c 1,72,73
 375 458 375 458 343.5 413.5 c 128,-1,74
 312 369 312 369 312 291 c 0,75,76
 312 258 312 258 319 227.5 c 128,-1,77
 326 197 326 197 341.5 173.5 c 128,-1,78
 357 150 357 150 382 136.5 c 128,-1,79
 407 123 407 123 442 123 c 0,80,81
 462 123 462 123 474.5 127 c 128,-1,82
 487 131 487 131 491 135 c 1,83,-1
 519 206 l 1,40,-1
EndSplineSet
EndChar

StartChar: ordfeminine
Encoding: 170 170 108
Width: 430
Flags: W
LayerCount: 2
Fore
SplineSet
283 488 m 1,0,1
 276 474 276 474 263 455 c 128,-1,2
 250 436 250 436 231 419 c 128,-1,3
 212 402 212 402 188 390 c 128,-1,4
 164 378 164 378 136 378 c 0,5,6
 90 378 90 378 64.5 408.5 c 128,-1,7
 39 439 39 439 39 494 c 0,8,9
 39 543 39 543 56 583.5 c 128,-1,10
 73 624 73 624 102 652.5 c 128,-1,11
 131 681 131 681 169 696.5 c 128,-1,12
 207 712 207 712 249 712 c 0,13,14
 269 712 269 712 290.5 707.5 c 128,-1,15
 312 703 312 703 329 693 c 1,16,-1
 389 708 l 1,17,-1
 406 700 l 1,18,-1
 349 431 l 1,19,-1
 400 422 l 1,20,-1
 400 404 l 1,21,22
 384 393 384 393 359 385.5 c 128,-1,23
 334 378 334 378 304 378 c 0,24,25
 284 378 284 378 277.5 389 c 128,-1,26
 271 400 271 400 273 414 c 2,27,-1
 287 488 l 1,28,-1
 283 488 l 1,0,1
171 428 m 0,29,30
 189 428 189 428 207.5 439.5 c 128,-1,31
 226 451 226 451 243 467.5 c 128,-1,32
 260 484 260 484 274 503.5 c 128,-1,33
 288 523 288 523 296 540 c 1,34,-1
 319 655 l 1,35,36
 305 661 305 661 289.5 667 c 128,-1,37
 274 673 274 673 257 673 c 0,38,39
 232 673 232 673 208 662 c 128,-1,40
 184 651 184 651 165 629 c 128,-1,41
 146 607 146 607 134.5 574.5 c 128,-1,42
 123 542 123 542 123 500 c 0,43,44
 123 469 123 469 135 448.5 c 128,-1,45
 147 428 147 428 171 428 c 0,29,30
EndSplineSet
EndChar

StartChar: guillemotleft
Encoding: 171 171 109
Width: 461
Flags: W
LayerCount: 2
Fore
SplineSet
240 259 m 1,0,-1
 452 464 l 1,1,-1
 473 445 l 1,2,-1
 325 258 l 1,3,-1
 401 77 l 1,4,-1
 372 57 l 1,5,-1
 240 259 l 1,0,-1
46 259 m 1,6,-1
 303 466 l 1,7,-1
 324 446 l 1,8,-1
 143 257 l 1,9,-1
 252 76 l 1,10,-1
 222 55 l 1,11,-1
 46 259 l 1,6,-1
EndSplineSet
Position2: "'case' Case-Sensitive Forms lookup 1 per glyph data 3" dx=0 dy=100 dh=0 dv=0
EndChar

StartChar: logicalnot
Encoding: 172 172 110
Width: 524
Flags: W
LayerCount: 2
Fore
SplineSet
60 387 m 1,0,-1
 485 387 l 1,1,-1
 485 198 l 1,2,-1
 423 198 l 1,3,-1
 423 324 l 1,4,-1
 60 324 l 1,5,-1
 60 387 l 1,0,-1
EndSplineSet
EndChar

StartChar: registered
Encoding: 174 174 112
Width: 696
Flags: W
LayerCount: 2
Fore
SplineSet
127 451 m 0,0,1
 127 515 127 515 148.5 564.5 c 128,-1,2
 170 614 170 614 206 648 c 128,-1,3
 242 682 242 682 290.5 699.5 c 128,-1,4
 339 717 339 717 393 717 c 0,5,6
 449 717 449 717 497.5 699.5 c 128,-1,7
 546 682 546 682 582 648 c 128,-1,8
 618 614 618 614 639 564.5 c 128,-1,9
 660 515 660 515 660 451 c 0,10,11
 660 386 660 386 638.5 336.5 c 128,-1,12
 617 287 617 287 580.5 253 c 128,-1,13
 544 219 544 219 495.5 201.5 c 128,-1,14
 447 184 447 184 393 184 c 0,15,16
 337 184 337 184 288.5 201.5 c 128,-1,17
 240 219 240 219 204 253 c 128,-1,18
 168 287 168 287 147.5 336.5 c 128,-1,19
 127 386 127 386 127 451 c 0,0,1
174 451 m 1,20,21
 173 399 173 399 190.5 357.5 c 128,-1,22
 208 316 208 316 238 286.5 c 128,-1,23
 268 257 268 257 308.5 241.5 c 128,-1,24
 349 226 349 226 393 227 c 1,25,26
 440 226 440 226 480.5 241.5 c 128,-1,27
 521 257 521 257 550.5 286 c 128,-1,28
 580 315 580 315 596.5 356.5 c 128,-1,29
 613 398 613 398 613 451 c 0,30,31
 613 503 613 503 595.5 544.5 c 128,-1,32
 578 586 578 586 548 615 c 128,-1,33
 518 644 518 644 478 660 c 128,-1,34
 438 676 438 676 393 675 c 1,35,36
 346 676 346 676 305.5 660 c 128,-1,37
 265 644 265 644 235.5 615 c 128,-1,38
 206 586 206 586 189.5 544.5 c 128,-1,39
 173 503 173 503 174 451 c 1,20,21
359 342 m 1,40,41
 372 341 372 341 380.5 338.5 c 128,-1,42
 389 336 389 336 396 333 c 1,43,-1
 396 309 l 1,44,-1
 272 309 l 1,45,-1
 272 333 l 1,46,47
 289 339 289 339 307 342 c 1,48,-1
 307 575 l 1,49,50
 296 576 296 576 288 578.5 c 128,-1,51
 280 581 280 581 272 586 c 1,52,-1
 272 608 l 1,53,-1
 310 608 l 2,54,55
 328 608 328 608 353 610 c 128,-1,56
 378 612 378 612 394 612 c 0,57,58
 416 612 416 612 436.5 607.5 c 128,-1,59
 457 603 457 603 473 592.5 c 128,-1,60
 489 582 489 582 498 566 c 128,-1,61
 507 550 507 550 507 528 c 0,62,63
 507 497 507 497 485.5 479 c 128,-1,64
 464 461 464 461 436 452 c 1,65,66
 454 423 454 423 470.5 395.5 c 128,-1,67
 487 368 487 368 516 342 c 1,68,-1
 539 330 l 1,69,-1
 539 309 l 1,70,-1
 489 309 l 1,71,-1
 461 320 l 1,72,73
 436 350 436 350 421 382 c 128,-1,74
 406 414 406 414 395 443 c 1,75,-1
 359 443 l 1,76,-1
 359 342 l 1,40,41
389 580 m 0,77,78
 378 580 378 580 371.5 579.5 c 128,-1,79
 365 579 365 579 359 577 c 1,80,-1
 359 472 l 1,81,-1
 391 472 l 2,82,83
 451 472 451 472 449 528 c 0,84,85
 448 554 448 554 431.5 567 c 128,-1,86
 415 580 415 580 389 580 c 0,77,78
EndSplineSet
EndChar

StartChar: macron
Encoding: 175 175 113
Width: 364
Flags: W
LayerCount: 2
Fore
SplineSet
160 637 m 1,0,-1
 170 689 l 1,1,-1
 424 689 l 1,2,-1
 413 637 l 1,3,-1
 160 637 l 1,0,-1
EndSplineSet
EndChar

StartChar: degree
Encoding: 176 176 114
Width: 414
Flags: W
LayerCount: 2
Fore
SplineSet
127 571 m 0,0,1
 127 602 127 602 138 628 c 128,-1,2
 149 654 149 654 168.5 672.5 c 128,-1,3
 188 691 188 691 214 701.5 c 128,-1,4
 240 712 240 712 269 712 c 256,5,6
 298 712 298 712 324 703 c 128,-1,7
 350 694 350 694 369 676.5 c 128,-1,8
 388 659 388 659 399 632.5 c 128,-1,9
 410 606 410 606 410 571 c 0,10,11
 410 538 410 538 399 512 c 128,-1,12
 388 486 388 486 369 467.5 c 128,-1,13
 350 449 350 449 324 439.5 c 128,-1,14
 298 430 298 430 269 430 c 256,15,16
 240 430 240 430 214 439.5 c 128,-1,17
 188 449 188 449 168.5 467.5 c 128,-1,18
 149 486 149 486 138 512 c 128,-1,19
 127 538 127 538 127 571 c 0,0,1
183 571 m 0,20,21
 183 530 183 530 208.5 504.5 c 128,-1,22
 234 479 234 479 269 479 c 0,23,24
 307 479 307 479 330.5 503 c 128,-1,25
 354 527 354 527 354 571 c 0,26,27
 354 613 354 613 330.5 638 c 128,-1,28
 307 663 307 663 269 663 c 0,29,30
 230 663 230 663 206.5 638 c 128,-1,31
 183 613 183 613 183 571 c 0,20,21
EndSplineSet
EndChar

StartChar: plusminus
Encoding: 177 177 115
Width: 524
Flags: W
LayerCount: 2
Fore
SplineSet
47 490 m 1,0,-1
 246 490 l 1,1,-1
 246 700 l 1,2,-1
 299 700 l 1,3,-1
 299 490 l 1,4,-1
 498 490 l 1,5,-1
 498 437 l 1,6,-1
 299 437 l 1,7,-1
 299 283 l 1,8,-1
 246 283 l 1,9,-1
 246 437 l 1,10,-1
 47 437 l 1,11,-1
 47 490 l 1,0,-1
47 230 m 1,12,-1
 498 230 l 1,13,-1
 498 177 l 1,14,-1
 47 177 l 1,15,-1
 47 230 l 1,12,-1
EndSplineSet
EndChar

StartChar: acute
Encoding: 180 180 118
Width: 319
Flags: W
LayerCount: 2
Fore
SplineSet
287 767 m 1,0,1
 295 768 295 768 308 766.5 c 128,-1,2
 321 765 321 765 335 762 c 128,-1,3
 349 759 349 759 361 754.5 c 128,-1,4
 373 750 373 750 379 745 c 1,5,-1
 379 726 l 1,6,-1
 182 575 l 1,7,-1
 160 593 l 1,8,-1
 287 767 l 1,0,1
EndSplineSet
EndChar

StartChar: mu
Encoding: 181 181 119
AltUni2: 0003bc.ffffffff.0
Width: 574
Flags: W
LayerCount: 2
Fore
SplineSet
157 15 m 1,0,-1
 161 -175 l 1,1,-1
 156 -200 l 1,2,3
 105 -213 105 -213 65 -200 c 1,4,-1
 200 442 l 1,5,-1
 140 450 l 1,6,-1
 140 476 l 1,7,8
 175 489 175 489 210 498 c 128,-1,9
 245 507 245 507 277 512 c 1,10,-1
 300 501 l 1,11,12
 292 464 292 464 285 433 c 128,-1,13
 278 402 278 402 270.5 370 c 128,-1,14
 263 338 263 338 255 301.5 c 128,-1,15
 247 265 247 265 237 216 c 0,16,17
 229 177 229 177 225 146 c 128,-1,18
 221 115 221 115 222.5 93.5 c 128,-1,19
 224 72 224 72 233 61 c 128,-1,20
 242 50 242 50 261 50 c 0,21,22
 283 50 283 50 309 67 c 128,-1,23
 335 84 335 84 360.5 114 c 128,-1,24
 386 144 386 144 410 184.5 c 128,-1,25
 434 225 434 225 452 273 c 1,26,-1
 494 496 l 1,27,-1
 579 501 l 1,28,-1
 496 56 l 1,29,-1
 570 55 l 1,30,-1
 569 29 l 1,31,32
 546 15 546 15 526.5 1.5 c 128,-1,33
 507 -12 507 -12 487 -13 c 0,34,35
 474 -13 474 -13 464 -6 c 2,36,-1
 411 31 l 1,37,-1
 440 195 l 1,38,-1
 436 195 l 1,39,40
 385 87 385 87 332.5 37.5 c 128,-1,41
 280 -12 280 -12 220 -12 c 0,42,43
 203 -12 203 -12 191 -6 c 128,-1,44
 179 0 179 0 163 15 c 1,45,-1
 157 15 l 1,0,-1
EndSplineSet
EndChar

StartChar: paragraph
Encoding: 182 182 120
Width: 511
Flags: W
LayerCount: 2
Fore
SplineSet
404 94 m 2,0,1
 404 27 404 27 395 -15.5 c 128,-1,2
 386 -58 386 -58 369 -83.5 c 128,-1,3
 352 -109 352 -109 328.5 -121 c 128,-1,4
 305 -133 305 -133 277 -139 c 1,5,6
 257 -171 257 -171 230 -187.5 c 128,-1,7
 203 -204 203 -204 177 -212 c 1,8,-1
 166 -192 l 1,9,10
 188 -183 188 -183 206.5 -167.5 c 128,-1,11
 225 -152 225 -152 238.5 -127 c 128,-1,12
 252 -102 252 -102 259.5 -65 c 128,-1,13
 267 -28 267 -28 267 24 c 2,14,-1
 267 310 l 1,15,16
 235 310 235 310 203.5 320 c 128,-1,17
 172 330 172 330 146.5 352.5 c 128,-1,18
 121 375 121 375 105 411.5 c 128,-1,19
 89 448 89 448 89 500 c 0,20,21
 89 542 89 542 101.5 578.5 c 128,-1,22
 114 615 114 615 138.5 642 c 128,-1,23
 163 669 163 669 201 684.5 c 128,-1,24
 239 700 239 700 290 700 c 2,25,-1
 480 700 l 1,26,-1
 480 670 l 1,27,28
 463 662 463 662 445 656 c 128,-1,29
 427 650 427 650 404 646 c 1,30,-1
 404 94 l 2,0,1
288 -116 m 1,31,32
 330 -99 330 -99 344 -47 c 128,-1,33
 358 5 358 5 358 94 c 2,34,-1
 358 651 l 1,35,-1
 314 651 l 1,36,-1
 314 24 l 2,37,38
 314 -16 314 -16 308 -53 c 128,-1,39
 302 -90 302 -90 288 -116 c 1,31,32
EndSplineSet
EndChar

StartChar: cedilla
Encoding: 184 184 122
Width: 333
Flags: W
LayerCount: 2
Fore
SplineSet
160 -68 m 1,0,1
 202 -70 202 -70 220 -87.5 c 128,-1,2
 238 -105 238 -105 240 -134 c 1,3,4
 241 -165 241 -165 222.5 -187.5 c 128,-1,5
 204 -210 204 -210 176 -224.5 c 128,-1,6
 148 -239 148 -239 115.5 -245.5 c 128,-1,7
 83 -252 83 -252 56 -251 c 1,8,-1
 56 -221 l 1,9,10
 75 -218 75 -218 94 -212.5 c 128,-1,11
 113 -207 113 -207 128 -199 c 128,-1,12
 143 -191 143 -191 152 -179.5 c 128,-1,13
 161 -168 161 -168 160 -154 c 0,14,15
 160 -145 160 -145 157.5 -137 c 128,-1,16
 155 -129 155 -129 148.5 -122.5 c 128,-1,17
 142 -116 142 -116 130 -111.5 c 128,-1,18
 118 -107 118 -107 98 -105 c 1,19,-1
 154 1 l 1,20,-1
 200 1 l 1,21,-1
 160 -68 l 1,0,1
EndSplineSet
EndChar

StartChar: ordmasculine
Encoding: 186 186 124
Width: 436
Flags: W
LayerCount: 2
Fore
SplineSet
39 500 m 0,0,1
 39 546 39 546 57 585 c 128,-1,2
 75 624 75 624 105 652 c 128,-1,3
 135 680 135 680 174 696 c 128,-1,4
 213 712 213 712 255 712 c 0,5,6
 324 712 324 712 361 676 c 128,-1,7
 398 640 398 640 398 583 c 0,8,9
 398 531 398 531 378.5 491.5 c 128,-1,10
 359 452 359 452 328.5 425.5 c 128,-1,11
 298 399 298 399 259.5 385.5 c 128,-1,12
 221 372 221 372 183 372 c 0,13,14
 153 372 153 372 126.5 381.5 c 128,-1,15
 100 391 100 391 80.5 408 c 128,-1,16
 61 425 61 425 50 448.5 c 128,-1,17
 39 472 39 472 39 500 c 0,0,1
122 499 m 0,18,19
 122 481 122 481 125.5 465 c 128,-1,20
 129 449 129 449 137.5 436.5 c 128,-1,21
 146 424 146 424 159 416.5 c 128,-1,22
 172 409 172 409 190 409 c 0,23,24
 212 409 212 409 234.5 420 c 128,-1,25
 257 431 257 431 275 454 c 128,-1,26
 293 477 293 477 304 512 c 128,-1,27
 315 547 315 547 315 595 c 0,28,29
 315 610 315 610 311.5 624 c 128,-1,30
 308 638 308 638 300 649.5 c 128,-1,31
 292 661 292 661 279 667.5 c 128,-1,32
 266 674 266 674 246 674 c 0,33,34
 224 674 224 674 202 660.5 c 128,-1,35
 180 647 180 647 162 624 c 128,-1,36
 144 601 144 601 133 568.5 c 128,-1,37
 122 536 122 536 122 499 c 0,18,19
EndSplineSet
EndChar

StartChar: guillemotright
Encoding: 187 187 125
Width: 461
Flags: W
LayerCount: 2
Fore
SplineSet
261 262 m 1,0,-1
 48 57 l 1,1,-1
 28 76 l 1,2,-1
 175 263 l 1,3,-1
 100 444 l 1,4,-1
 128 464 l 1,5,-1
 261 262 l 1,0,-1
454 262 m 1,6,-1
 198 55 l 1,7,-1
 177 75 l 1,8,-1
 358 264 l 1,9,-1
 249 445 l 1,10,-1
 279 466 l 1,11,-1
 454 262 l 1,6,-1
EndSplineSet
Position2: "'case' Case-Sensitive Forms lookup 1 per glyph data 3" dx=0 dy=100 dh=0 dv=0
EndChar

StartChar: questiondown
Encoding: 191 191 129
Width: 473
Flags: W
LayerCount: 2
Fore
SplineSet
299 -15 m 1,0,-1
 324 -15 l 1,1,2
 327 -36 327 -36 331 -65.5 c 128,-1,3
 335 -95 335 -95 335 -126 c 0,4,5
 335 -137 335 -137 334.5 -146.5 c 128,-1,6
 334 -156 334 -156 333 -166 c 1,7,8
 290 -189 290 -189 247 -198.5 c 128,-1,9
 204 -208 204 -208 152 -208 c 0,10,11
 72 -208 72 -208 29 -173 c 128,-1,12
 -14 -138 -14 -138 -14 -75 c 0,13,14
 -14 -25 -14 -25 7 12 c 128,-1,15
 28 49 28 49 60 78.5 c 128,-1,16
 92 108 92 108 130 133.5 c 128,-1,17
 168 159 168 159 202 186.5 c 128,-1,18
 236 214 236 214 261 246.5 c 128,-1,19
 286 279 286 279 292 323 c 1,20,-1
 311 323 l 1,21,22
 315 271 315 271 300 232 c 128,-1,23
 285 193 285 193 259.5 161.5 c 128,-1,24
 234 130 234 130 203.5 104 c 128,-1,25
 173 78 173 78 146 51.5 c 128,-1,26
 119 25 119 25 101 -4 c 128,-1,27
 83 -33 83 -33 82 -69 c 1,28,29
 83 -114 83 -114 109 -135.5 c 128,-1,30
 135 -157 135 -157 176 -156 c 1,31,32
 208 -157 208 -157 229 -151.5 c 128,-1,33
 250 -146 250 -146 260 -138 c 1,34,-1
 299 -15 l 1,0,-1
242 446 m 0,35,36
 242 476 242 476 261 494 c 128,-1,37
 280 512 280 512 310 512 c 0,38,39
 341 512 341 512 360 494 c 128,-1,40
 379 476 379 476 379 446 c 0,41,42
 379 417 379 417 360 399 c 128,-1,43
 341 381 341 381 310 381 c 0,44,45
 280 381 280 381 261 399 c 128,-1,46
 242 417 242 417 242 446 c 0,35,36
EndSplineSet
Position2: "'case' Case-Sensitive Forms lookup 1 per glyph data 3" dx=0 dy=100 dh=0 dv=0
EndChar

StartChar: Aring
Encoding: 197 197 135
Width: 674
Flags: W
LayerCount: 2
Fore
SplineSet
346 778 m 0,0,1
 346 798 346 798 357 815.5 c 128,-1,2
 368 833 368 833 386 846 c 128,-1,3
 404 859 404 859 428 866.5 c 128,-1,4
 452 874 452 874 479 874 c 0,5,6
 496 874 496 874 512.5 871 c 128,-1,7
 529 868 529 868 541.5 859.5 c 128,-1,8
 554 851 554 851 562 837 c 128,-1,9
 570 823 570 823 570 802 c 0,10,11
 570 783 570 783 560.5 767 c 128,-1,12
 551 751 551 751 535 738.5 c 128,-1,13
 519 726 519 726 498.5 718.5 c 128,-1,14
 478 711 478 711 456 709 c 1,15,-1
 569 53 l 1,16,17
 587 49 587 49 605.5 43.5 c 128,-1,18
 624 38 624 38 639 29 c 1,19,-1
 634 0 l 1,20,-1
 380 0 l 1,21,-1
 385 29 l 1,22,23
 430 46 430 46 473 53 c 1,24,-1
 443 236 l 1,25,-1
 208 236 l 1,26,-1
 101 53 l 1,27,28
 144 47 144 47 181 29 c 1,29,-1
 176 0 l 1,30,-1
 -49 0 l 1,31,-1
 -43 29 l 1,32,33
 -4 45 -4 45 35 53 c 1,34,-1
 428 709 l 1,35,36
 390 711 390 711 368 728.5 c 128,-1,37
 346 746 346 746 346 778 c 0,0,1
237 288 m 1,38,-1
 435 288 l 1,39,-1
 403 500 l 1,40,-1
 401 586 l 1,41,-1
 399 586 l 1,42,-1
 359 498 l 1,43,-1
 237 288 l 1,38,-1
402 781 m 0,44,45
 402 764 402 764 415 757 c 128,-1,46
 428 750 428 750 447 750 c 0,47,48
 476 750 476 750 495 763.5 c 128,-1,49
 514 777 514 777 514 797 c 256,50,51
 514 817 514 817 501 825 c 128,-1,52
 488 833 488 833 469 833 c 0,53,54
 440 833 440 833 421 818.5 c 128,-1,55
 402 804 402 804 402 781 c 0,44,45
EndSplineSet
Position2: "'cpsp' Capital Spacing lookup 0 subtable" dx=40 dy=0 dh=80 dv=0
EndChar

StartChar: AE
Encoding: 198 198 136
Width: 913
Flags: W
LayerCount: 2
Fore
SplineSet
943 700 m 1,0,1
 928 623 928 623 897 538 c 1,2,-1
 871 538 l 1,3,-1
 854 648 l 1,4,-1
 635 648 l 1,5,-1
 580 383 l 1,6,-1
 742 383 l 1,7,-1
 797 457 l 1,8,-1
 822 457 l 1,9,10
 815 407 815 407 805 355 c 128,-1,11
 795 303 795 303 779 255 c 1,12,-1
 755 255 l 1,13,-1
 731 331 l 1,14,-1
 569 331 l 1,15,-1
 509 51 l 1,16,-1
 739 51 l 1,17,-1
 814 172 l 1,18,-1
 839 172 l 1,19,20
 837 131 837 131 831 87.5 c 128,-1,21
 825 44 825 44 814 0 c 1,22,-1
 321 0 l 1,23,-1
 326 29 l 1,24,25
 367 46 367 46 414 53 c 1,26,-1
 457 256 l 1,27,-1
 264 256 l 1,28,-1
 107 53 l 1,29,30
 128 50 128 50 147 44 c 128,-1,31
 166 38 166 38 186 29 c 1,32,-1
 181 0 l 1,33,-1
 -49 0 l 1,34,-1
 -43 29 l 1,35,36
 -4 45 -4 45 35 53 c 1,37,-1
 514 652 l 1,38,39
 485 658 485 658 460 671 c 1,40,-1
 467 700 l 1,41,-1
 943 700 l 1,0,1
304 307 m 1,42,-1
 468 307 l 1,43,-1
 533 611 l 1,44,-1
 531 611 l 1,45,-1
 472 518 l 1,46,-1
 304 307 l 1,42,-1
EndSplineSet
Position2: "'cpsp' Capital Spacing lookup 0 subtable" dx=40 dy=0 dh=80 dv=0
EndChar

StartChar: Ccedilla
Encoding: 199 199 137
Width: 635
Flags: W
LayerCount: 2
Fore
SplineSet
557 182 m 1,0,-1
 582 182 l 1,1,2
 582 154 582 154 576.5 111.5 c 128,-1,3
 571 69 571 69 560 29 c 1,4,5
 522 7 522 7 474 -2 c 128,-1,6
 426 -11 426 -11 384 -12 c 1,7,-1
 347 -75 l 1,8,9
 402 -76 402 -76 420.5 -96.5 c 128,-1,10
 439 -117 439 -117 439 -148 c 0,11,12
 439 -180 439 -180 418.5 -203.5 c 128,-1,13
 398 -227 398 -227 368 -242 c 128,-1,14
 338 -257 338 -257 303 -264.5 c 128,-1,15
 268 -272 268 -272 239 -272 c 1,16,-1
 239 -239 l 1,17,18
 258 -236 258 -236 278.5 -230.5 c 128,-1,19
 299 -225 299 -225 315 -216 c 128,-1,20
 331 -207 331 -207 341 -194 c 128,-1,21
 351 -181 351 -181 351 -163 c 0,22,23
 351 -153 351 -153 348 -144.5 c 128,-1,24
 345 -136 345 -136 337.5 -130.5 c 128,-1,25
 330 -125 330 -125 317 -121.5 c 128,-1,26
 304 -118 304 -118 282 -116 c 1,27,-1
 335 -10 l 1,28,29
 261 -4 261 -4 210 21.5 c 128,-1,30
 159 47 159 47 127 84.5 c 128,-1,31
 95 122 95 122 80.5 167.5 c 128,-1,32
 66 213 66 213 66 258 c 0,33,34
 66 360 66 360 95 443.5 c 128,-1,35
 124 527 124 527 177.5 586.5 c 128,-1,36
 231 646 231 646 307.5 679 c 128,-1,37
 384 712 384 712 480 712 c 0,38,39
 546 712 546 712 592 703 c 128,-1,40
 638 694 638 694 669 678 c 1,41,42
 666 662 666 662 660.5 640.5 c 128,-1,43
 655 619 655 619 647.5 595 c 128,-1,44
 640 571 640 571 632 548 c 128,-1,45
 624 525 624 525 617 506 c 1,46,-1
 591 506 l 1,47,-1
 570 650 l 1,48,49
 557 655 557 655 530.5 657.5 c 128,-1,50
 504 660 504 660 479 660 c 0,51,52
 413 660 413 660 357 634.5 c 128,-1,53
 301 609 301 609 260 559 c 128,-1,54
 219 509 219 509 196 434 c 128,-1,55
 173 359 173 359 173 260 c 0,56,57
 173 198 173 198 194.5 155.5 c 128,-1,58
 216 113 216 113 248.5 87 c 128,-1,59
 281 61 281 61 319 50 c 128,-1,60
 357 39 357 39 391 40 c 1,61,62
 425 39 425 39 448.5 45 c 128,-1,63
 472 51 472 51 483 58 c 1,64,-1
 557 182 l 1,0,-1
EndSplineSet
Position2: "'cpsp' Capital Spacing lookup 0 subtable" dx=40 dy=0 dh=80 dv=0
EndChar

StartChar: multiply
Encoding: 215 215 153
Width: 524
Flags: W
LayerCount: 2
Fore
SplineSet
93 204 m 1,0,-1
 233 344 l 1,1,-1
 95 483 l 1,2,-1
 132 520 l 1,3,-1
 271 382 l 1,4,-1
 411 522 l 1,5,-1
 448 485 l 1,6,-1
 308 345 l 1,7,-1
 451 202 l 1,8,-1
 413 164 l 1,9,-1
 270 307 l 1,10,-1
 130 167 l 1,11,-1
 93 204 l 1,0,-1
EndSplineSet
EndChar

StartChar: Oslash
Encoding: 216 216 154
Width: 730
Flags: W
LayerCount: 2
Fore
SplineSet
66 278 m 0,0,1
 66 369 66 369 93.5 448 c 128,-1,2
 121 527 121 527 173 585.5 c 128,-1,3
 225 644 225 644 298 678 c 128,-1,4
 371 712 371 712 463 712 c 0,5,6
 515 712 515 712 554.5 700 c 128,-1,7
 594 688 594 688 623 667 c 1,8,-1
 662 713 l 1,9,-1
 702 681 l 1,10,-1
 661 632 l 1,11,12
 695 593 695 593 709.5 540 c 128,-1,13
 724 487 724 487 724 431 c 0,14,15
 724 351 724 351 701.5 271.5 c 128,-1,16
 679 192 679 192 632 129 c 128,-1,17
 585 66 585 66 513.5 27 c 128,-1,18
 442 -12 442 -12 344 -12 c 0,19,20
 287 -12 287 -12 243 2.5 c 128,-1,21
 199 17 199 17 166 43 c 1,22,-1
 119 -13 l 1,23,-1
 80 20 l 1,24,-1
 129 78 l 1,25,26
 97 118 97 118 81.5 169.5 c 128,-1,27
 66 221 66 221 66 278 c 0,0,1
363 40 m 1,28,29
 411 39 411 39 448.5 55.5 c 128,-1,30
 486 72 486 72 514 100.5 c 128,-1,31
 542 129 542 129 561.5 167 c 128,-1,32
 581 205 581 205 593 248 c 128,-1,33
 605 291 605 291 610.5 336.5 c 128,-1,34
 616 382 616 382 617 426 c 1,35,36
 616 496 616 496 593 551 c 1,37,-1
 223 110 l 1,38,39
 275 39 275 39 363 40 c 1,28,29
437 660 m 0,40,41
 368 660 368 660 318.5 624.5 c 128,-1,42
 269 589 269 589 237 534.5 c 128,-1,43
 205 480 205 480 189.5 413 c 128,-1,44
 174 346 174 346 173 283 c 0,45,46
 173 248 173 248 179 216.5 c 128,-1,47
 185 185 185 185 196 159 c 1,48,-1
 567 600 l 1,49,50
 544 629 544 629 511.5 644.5 c 128,-1,51
 479 660 479 660 437 660 c 0,40,41
EndSplineSet
Position2: "'cpsp' Capital Spacing lookup 0 subtable" dx=40 dy=0 dh=80 dv=0
EndChar

StartChar: Thorn
Encoding: 222 222 160
Width: 584
Flags: W
LayerCount: 2
Fore
SplineSet
169 53 m 1,0,1
 195 49 195 49 217.5 43 c 128,-1,2
 240 37 240 37 259 28 c 1,3,-1
 254 0 l 1,4,-1
 -20 0 l 1,5,-1
 -15 28 l 1,6,7
 8 39 8 39 29.5 44 c 128,-1,8
 51 49 51 49 73 53 c 1,9,-1
 198 647 l 1,10,11
 178 651 178 651 159 657 c 128,-1,12
 140 663 140 663 121 672 c 1,13,-1
 128 700 l 1,14,-1
 386 700 l 1,15,-1
 380 672 l 1,16,17
 360 663 360 663 337 657 c 128,-1,18
 314 651 314 651 294 647 c 1,19,-1
 284 598 l 1,20,21
 307 600 307 600 330 601 c 128,-1,22
 353 602 353 602 374 602 c 0,23,24
 479 602 479 602 536.5 561 c 128,-1,25
 594 520 594 520 594 434 c 0,26,27
 594 389 594 389 575 343 c 128,-1,28
 556 297 556 297 517 259.5 c 128,-1,29
 478 222 478 222 417 198.5 c 128,-1,30
 356 175 356 175 272 175 c 0,31,32
 267 175 267 175 256.5 175 c 128,-1,33
 246 175 246 175 234 175.5 c 128,-1,34
 222 176 222 176 211 177 c 128,-1,35
 200 178 200 178 195 179 c 1,36,-1
 169 53 l 1,0,1
343 550 m 0,37,38
 318 550 318 550 302.5 549 c 128,-1,39
 287 548 287 548 273 544 c 1,40,-1
 206 232 l 1,41,42
 211 230 211 230 220.5 229.5 c 128,-1,43
 230 229 230 229 240.5 228 c 128,-1,44
 251 227 251 227 260.5 227 c 128,-1,45
 270 227 270 227 276 227 c 0,46,47
 325 227 325 227 364.5 241 c 128,-1,48
 404 255 404 255 431 281 c 128,-1,49
 458 307 458 307 472.5 343.5 c 128,-1,50
 487 380 487 380 487 424 c 0,51,52
 487 490 487 490 454.5 520 c 128,-1,53
 422 550 422 550 343 550 c 0,37,38
EndSplineSet
Position2: "'cpsp' Capital Spacing lookup 0 subtable" dx=40 dy=0 dh=80 dv=0
EndChar

StartChar: germandbls
Encoding: 223 223 161
Width: 611
Flags: W
LayerCount: 2
Fore
SplineSet
282 387 m 0,0,1
 282 420 282 420 295 450.5 c 128,-1,2
 308 481 308 481 333.5 508 c 128,-1,3
 359 535 359 535 396 556 c 128,-1,4
 433 577 433 577 481 590 c 1,5,6
 485 612 485 612 481.5 633 c 128,-1,7
 478 654 478 654 466 670.5 c 128,-1,8
 454 687 454 687 434.5 697.5 c 128,-1,9
 415 708 415 708 389 709 c 1,10,11
 366 708 366 708 342 701 c 128,-1,12
 318 694 318 694 296.5 676 c 128,-1,13
 275 658 275 658 258.5 627.5 c 128,-1,14
 242 597 242 597 234 550 c 2,15,-1
 150 43 l 2,16,17
 139 -28 139 -28 113 -75 c 128,-1,18
 87 -122 87 -122 57.5 -151 c 128,-1,19
 28 -180 28 -180 0 -194 c 128,-1,20
 -28 -208 -28 -208 -43 -212 c 1,21,-1
 -52 -190 l 1,22,23
 -40 -184 -40 -184 -23 -168.5 c 128,-1,24
 -6 -153 -6 -153 10.5 -127 c 128,-1,25
 27 -101 27 -101 41.5 -63.5 c 128,-1,26
 56 -26 56 -26 64 24 c 2,27,-1
 129 450 l 1,28,-1
 56 450 l 1,29,-1
 56 476 l 1,30,31
 76 487 76 487 98.5 495.5 c 128,-1,32
 121 504 121 504 141 509 c 1,33,-1
 148 544 l 2,34,35
 160 606 160 606 190 646.5 c 128,-1,36
 220 687 220 687 257.5 710.5 c 128,-1,37
 295 734 295 734 334.5 743 c 128,-1,38
 374 752 374 752 407 752 c 0,39,40
 452 752 452 752 483.5 741 c 128,-1,41
 515 730 515 730 534.5 711.5 c 128,-1,42
 554 693 554 693 562.5 668 c 128,-1,43
 571 643 571 643 571 616 c 0,44,45
 571 606 571 606 570 595.5 c 128,-1,46
 569 585 569 585 567 574 c 1,47,48
 528 569 528 569 492.5 556.5 c 128,-1,49
 457 544 457 544 430 524.5 c 128,-1,50
 403 505 403 505 386.5 477 c 128,-1,51
 370 449 370 449 370 412 c 0,52,53
 370 388 370 388 383 368.5 c 128,-1,54
 396 349 396 349 415.5 331.5 c 128,-1,55
 435 314 435 314 457.5 297 c 128,-1,56
 480 280 480 280 499.5 258.5 c 128,-1,57
 519 237 519 237 532 210.5 c 128,-1,58
 545 184 545 184 545 149 c 0,59,60
 545 113 545 113 528.5 83.5 c 128,-1,61
 512 54 512 54 483.5 32.5 c 128,-1,62
 455 11 455 11 417.5 -0.5 c 128,-1,63
 380 -12 380 -12 338 -12 c 256,64,65
 296 -12 296 -12 262 -4 c 128,-1,66
 228 4 228 4 208 17 c 1,67,68
 213 44 213 44 220 68 c 128,-1,69
 227 92 227 92 249 112 c 1,70,-1
 338 31 l 1,71,72
 358 31 358 31 379 37.5 c 128,-1,73
 400 44 400 44 416.5 57 c 128,-1,74
 433 70 433 70 443.5 88 c 128,-1,75
 454 106 454 106 455 129 c 1,76,77
 454 158 454 158 441.5 179.5 c 128,-1,78
 429 201 429 201 409.5 218.5 c 128,-1,79
 390 236 390 236 368 252 c 128,-1,80
 346 268 346 268 326.5 287 c 128,-1,81
 307 306 307 306 294.5 329.5 c 128,-1,82
 282 353 282 353 282 387 c 0,0,1
EndSplineSet
EndChar

StartChar: eth
Encoding: 240 240 178
Width: 496
Flags: W
LayerCount: 2
Fore
SplineSet
227 609 m 1,0,-1
 338 659 l 1,1,2
 317 686 317 686 291 703.5 c 128,-1,3
 265 721 265 721 238 729 c 1,4,-1
 238 750 l 1,5,-1
 328 750 l 1,6,7
 346 743 346 743 367.5 728.5 c 128,-1,8
 389 714 389 714 409 691 c 1,9,-1
 508 736 l 1,10,-1
 529 698 l 1,11,-1
 434 654 l 1,12,13
 454 621 454 621 466.5 575 c 128,-1,14
 479 529 479 529 479 467 c 0,15,16
 479 365 479 365 454.5 277.5 c 128,-1,17
 430 190 430 190 389 125.5 c 128,-1,18
 348 61 348 61 292.5 24.5 c 128,-1,19
 237 -12 237 -12 176 -12 c 0,20,21
 104 -12 104 -12 66.5 35.5 c 128,-1,22
 29 83 29 83 29 168 c 0,23,24
 29 229 29 229 49.5 289.5 c 128,-1,25
 70 350 70 350 108.5 398 c 128,-1,26
 147 446 147 446 201.5 476 c 128,-1,27
 256 506 256 506 324 506 c 0,28,29
 342 506 342 506 360 502 c 128,-1,30
 378 498 378 498 389 490 c 1,31,32
 389 530 389 530 381.5 562.5 c 128,-1,33
 374 595 374 595 360 622 c 1,34,-1
 250 572 l 1,35,-1
 227 609 l 1,0,-1
314 463 m 0,36,37
 259 463 259 463 222 432.5 c 128,-1,38
 185 402 185 402 162 357 c 128,-1,39
 139 312 139 312 129 260 c 128,-1,40
 119 208 119 208 119 163 c 0,41,42
 119 140 119 140 122 117 c 128,-1,43
 125 94 125 94 134 74.5 c 128,-1,44
 143 55 143 55 159 43 c 128,-1,45
 175 31 175 31 201 31 c 0,46,47
 234 31 234 31 267.5 62.5 c 128,-1,48
 301 94 301 94 328 149.5 c 128,-1,49
 355 205 355 205 372 280 c 128,-1,50
 389 355 389 355 389 443 c 1,51,52
 367 455 367 455 350 459 c 128,-1,53
 333 463 333 463 314 463 c 0,36,37
EndSplineSet
EndChar

StartChar: oslash
Encoding: 248 248 186
Width: 509
Flags: W
LayerCount: 2
Fore
SplineSet
41 186 m 0,0,1
 41 239 41 239 57.5 296.5 c 128,-1,2
 74 354 74 354 108 402 c 128,-1,3
 142 450 142 450 193 481 c 128,-1,4
 244 512 244 512 312 512 c 0,5,6
 376 512 376 512 417 476 c 1,7,-1
 488 558 l 1,8,-1
 526 527 l 1,9,-1
 447 435 l 1,10,11
 458 412 458 412 463.5 384.5 c 128,-1,12
 469 357 469 357 469 322 c 0,13,14
 469 256 469 256 450 195.5 c 128,-1,15
 431 135 431 135 397 89 c 128,-1,16
 363 43 363 43 315 15.5 c 128,-1,17
 267 -12 267 -12 209 -12 c 0,18,19
 139 -12 139 -12 95 29 c 1,20,-1
 17 -62 l 1,21,-1
 -19 -30 l 1,22,-1
 66 69 l 1,23,24
 41 113 41 113 41 186 c 0,0,1
227 31 m 0,25,26
 261 31 261 31 288.5 57 c 128,-1,27
 316 83 316 83 335.5 125.5 c 128,-1,28
 355 168 355 168 365.5 221.5 c 128,-1,29
 376 275 376 275 376 330 c 2,30,-1
 376 354 l 1,31,-1
 147 88 l 1,32,33
 158 61 158 61 178.5 46 c 128,-1,34
 199 31 199 31 227 31 c 0,25,26
292 469 m 1,35,36
 244 468 244 468 213 438 c 128,-1,37
 182 408 182 408 164 363 c 128,-1,38
 146 318 146 318 139 266 c 128,-1,39
 132 214 132 214 131 171 c 0,40,41
 131 164 131 164 131 158 c 128,-1,42
 131 152 131 152 132 145 c 1,43,-1
 365 414 l 1,44,45
 343 468 343 468 292 469 c 1,35,36
EndSplineSet
EndChar

StartChar: thorn
Encoding: 254 254 192
Width: 542
Flags: W
LayerCount: 2
Fore
SplineSet
97 -146 m 1,0,1
 132 -152 132 -152 167 -171 c 1,2,-1
 167 -200 l 1,3,-1
 10 -200 l 1,4,-1
 1 -191 l 1,5,-1
 184 692 l 1,6,-1
 123 701 l 1,7,-1
 123 726 l 1,8,9
 156 740 156 740 192.5 751 c 128,-1,10
 229 762 229 762 261 762 c 1,11,-1
 281 750 l 1,12,-1
 193 324 l 1,13,-1
 197 324 l 1,14,15
 215 364 215 364 236.5 398 c 128,-1,16
 258 432 258 432 283 457.5 c 128,-1,17
 308 483 308 483 337 497.5 c 128,-1,18
 366 512 366 512 399 512 c 0,19,20
 421 512 421 512 441 503.5 c 128,-1,21
 461 495 461 495 476 477.5 c 128,-1,22
 491 460 491 460 499.5 434 c 128,-1,23
 508 408 508 408 508 374 c 0,24,25
 508 297 508 297 485 227 c 128,-1,26
 462 157 462 157 422.5 104 c 128,-1,27
 383 51 383 51 330 19.5 c 128,-1,28
 277 -12 277 -12 216 -12 c 0,29,30
 199 -12 199 -12 187 -11 c 128,-1,31
 175 -10 175 -10 166 -7.5 c 128,-1,32
 157 -5 157 -5 148.5 -1 c 128,-1,33
 140 3 140 3 130 8 c 1,34,-1
 97 -146 l 1,0,1
352 450 m 256,35,36
 323 450 323 450 297 427.5 c 128,-1,37
 271 405 271 405 248.5 373 c 128,-1,38
 226 341 226 341 208 305.5 c 128,-1,39
 190 270 190 270 179 243 c 1,40,-1
 140 54 l 1,41,42
 154 42 154 42 169.5 36.5 c 128,-1,43
 185 31 185 31 219 31 c 0,44,45
 259 31 259 31 294.5 60.5 c 128,-1,46
 330 90 330 90 356.5 136 c 128,-1,47
 383 182 383 182 398.5 238.5 c 128,-1,48
 414 295 414 295 414 350 c 0,49,50
 414 398 414 398 397.5 424 c 128,-1,51
 381 450 381 450 352 450 c 256,35,36
EndSplineSet
EndChar

StartChar: Aogonek
Encoding: 260 260 198
Width: 674
Flags: W
LayerCount: 2
Fore
SplineSet
176 0 m 1,0,-1
 -49 0 l 1,1,-1
 -43 29 l 1,2,3
 -4 45 -4 45 35 53 c 1,4,-1
 430 712 l 1,5,-1
 456 712 l 1,6,-1
 569 53 l 1,7,8
 587 49 587 49 605.5 43.5 c 128,-1,9
 624 38 624 38 639 29 c 1,10,-1
 637 18 l 1,11,-1
 634 0 l 1,12,-1
 594 0 l 1,13,14
 571 -12 571 -12 551 -26.5 c 128,-1,15
 531 -41 531 -41 515.5 -58 c 128,-1,16
 500 -75 500 -75 491 -94.5 c 128,-1,17
 482 -114 482 -114 482 -135 c 0,18,19
 482 -163 482 -163 500 -181 c 128,-1,20
 518 -199 518 -199 549 -199 c 256,21,22
 580 -199 580 -199 604 -193 c 1,23,-1
 604 -222 l 1,24,25
 590 -233 590 -233 568 -242 c 128,-1,26
 546 -251 546 -251 513 -251 c 0,27,28
 490 -251 490 -251 469.5 -244 c 128,-1,29
 449 -237 449 -237 433.5 -224 c 128,-1,30
 418 -211 418 -211 409 -192.5 c 128,-1,31
 400 -174 400 -174 400 -152 c 0,32,33
 400 -101 400 -101 438 -64 c 128,-1,34
 476 -27 476 -27 538 0 c 1,35,-1
 380 0 l 1,36,-1
 385 29 l 1,37,38
 430 46 430 46 473 53 c 1,39,-1
 443 236 l 1,40,-1
 208 236 l 1,41,-1
 101 53 l 1,42,43
 144 47 144 47 181 29 c 1,44,-1
 176 0 l 1,0,-1
237 288 m 1,45,-1
 435 288 l 1,46,-1
 403 500 l 1,47,-1
 401 586 l 1,48,-1
 399 586 l 1,49,-1
 359 498 l 1,50,-1
 237 288 l 1,45,-1
EndSplineSet
Position2: "'cpsp' Capital Spacing lookup 0 subtable" dx=40 dy=0 dh=80 dv=0
EndChar

StartChar: aogonek
Encoding: 261 261 199
Width: 535
Flags: W
LayerCount: 2
Fore
SplineSet
347 196 m 1,0,1
 334 160 334 160 314.5 123 c 128,-1,2
 295 86 295 86 269.5 56 c 128,-1,3
 244 26 244 26 213 7 c 128,-1,4
 182 -12 182 -12 147 -12 c 0,5,6
 43 -12 43 -12 43 139 c 0,7,8
 43 209 43 209 63 275.5 c 128,-1,9
 83 342 83 342 121 394 c 128,-1,10
 159 446 159 446 213.5 477.5 c 128,-1,11
 268 509 268 509 337 509 c 0,12,13
 362 509 362 509 377 504.5 c 128,-1,14
 392 500 392 500 413 491 c 1,15,16
 453 512 453 512 497 512 c 1,17,-1
 407 55 l 1,18,-1
 480 55 l 1,19,-1
 480 30 l 1,20,21
 459 14 459 14 434 5 c 1,22,23
 418 -4 418 -4 402 -16.5 c 128,-1,24
 386 -29 386 -29 373 -44.5 c 128,-1,25
 360 -60 360 -60 351.5 -78.5 c 128,-1,26
 343 -97 343 -97 343 -118 c 0,27,28
 343 -144 343 -144 357 -161 c 128,-1,29
 371 -178 371 -178 404 -179 c 1,30,31
 415 -178 415 -178 423 -175.5 c 128,-1,32
 431 -173 431 -173 445 -169 c 1,33,-1
 445 -201 l 1,34,35
 431 -209 431 -209 409.5 -215.5 c 128,-1,36
 388 -222 388 -222 370 -222 c 0,37,38
 310 -222 310 -222 285 -197 c 128,-1,39
 260 -172 260 -172 260 -134 c 0,40,41
 260 -90 260 -90 288 -59 c 128,-1,42
 316 -28 316 -28 369 -5 c 1,43,44
 344 -3 344 -3 333.5 8 c 128,-1,45
 323 19 323 19 323 33 c 0,46,47
 323 51 323 51 330 92 c 128,-1,48
 337 133 337 133 351 196 c 1,49,-1
 347 196 l 1,0,1
189 50 m 0,50,51
 216 50 216 50 243 75.5 c 128,-1,52
 270 101 270 101 294 137 c 128,-1,53
 318 173 318 173 337 212 c 128,-1,54
 356 251 356 251 367 277 c 1,55,-1
 399 448 l 1,56,57
 385 458 385 458 372 462 c 128,-1,58
 359 466 359 466 336 466 c 0,59,60
 290 466 290 466 252.5 437.5 c 128,-1,61
 215 409 215 409 188.5 364 c 128,-1,62
 162 319 162 319 147.5 264 c 128,-1,63
 133 209 133 209 133 156 c 0,64,65
 133 105 133 105 145.5 77.5 c 128,-1,66
 158 50 158 50 189 50 c 0,50,51
EndSplineSet
EndChar

StartChar: Dcroat
Encoding: 272 272 208
Width: 702
Flags: W
LayerCount: 2
Fore
SplineSet
-20 0 m 1,0,-1
 -15 29 l 1,1,2
 26 46 26 46 73 53 c 1,3,-1
 132 331 l 1,4,-1
 42 331 l 1,5,-1
 53 383 l 1,6,-1
 142 383 l 1,7,-1
 198 646 l 1,8,9
 176 651 176 651 156.5 657.5 c 128,-1,10
 137 664 137 664 121 671 c 1,11,-1
 128 700 l 1,12,-1
 229 700 l 2,13,14
 246 700 246 700 269.5 701 c 128,-1,15
 293 702 293 702 317.5 703.5 c 128,-1,16
 342 705 342 705 365 706.5 c 128,-1,17
 388 708 388 708 403 708 c 0,18,19
 483 708 483 708 539 689 c 128,-1,20
 595 670 595 670 629.5 637.5 c 128,-1,21
 664 605 664 605 679.5 560.5 c 128,-1,22
 695 516 695 516 695 465 c 256,23,24
 695 414 695 414 686.5 358.5 c 128,-1,25
 678 303 678 303 658 250.5 c 128,-1,26
 638 198 638 198 604.5 151 c 128,-1,27
 571 104 571 104 520.5 68.5 c 128,-1,28
 470 33 470 33 401 12 c 128,-1,29
 332 -9 332 -9 242 -9 c 0,30,31
 227 -9 227 -9 206.5 -7.5 c 128,-1,32
 186 -6 186 -6 163 -4.5 c 128,-1,33
 140 -3 140 -3 117 -1.5 c 128,-1,34
 94 0 94 0 75 0 c 2,35,-1
 -20 0 l 1,0,-1
383 656 m 0,36,37
 357 656 357 656 330 655 c 128,-1,38
 303 654 303 654 289 652 c 1,39,-1
 232 383 l 1,40,-1
 399 383 l 1,41,-1
 388 331 l 1,42,-1
 221 331 l 1,43,-1
 161 47 l 1,44,45
 171 46 171 46 185.5 45.5 c 128,-1,46
 200 45 200 45 214.5 44.5 c 128,-1,47
 229 44 229 44 240.5 43.5 c 128,-1,48
 252 43 252 43 258 43 c 0,49,50
 352 42 352 42 415.5 80 c 128,-1,51
 479 118 479 118 517.5 179.5 c 128,-1,52
 556 241 556 241 572 317.5 c 128,-1,53
 588 394 588 394 588 471 c 0,54,55
 588 510 588 510 579 544 c 128,-1,56
 570 578 570 578 547 602.5 c 128,-1,57
 524 627 524 627 484.5 641.5 c 128,-1,58
 445 656 445 656 383 656 c 0,36,37
EndSplineSet
Position2: "'cpsp' Capital Spacing lookup 0 subtable" dx=40 dy=0 dh=80 dv=0
EndChar

StartChar: dcroat
Encoding: 273 273 209
Width: 535
Flags: W
LayerCount: 2
Fore
SplineSet
274 623 m 1,0,-1
 435 623 l 1,1,-1
 448 682 l 1,2,-1
 378 691 l 1,3,-1
 378 716 l 1,4,5
 393 722 393 722 411 727.5 c 128,-1,6
 429 733 429 733 448.5 737.5 c 128,-1,7
 468 742 468 742 488 746 c 128,-1,8
 508 750 508 750 525 752 c 1,9,-1
 546 744 l 1,10,-1
 521 623 l 1,11,-1
 610 623 l 1,12,-1
 597 571 l 1,13,-1
 511 571 l 1,14,-1
 409 55 l 1,15,-1
 482 55 l 1,16,-1
 482 30 l 1,17,18
 462 14 462 14 434 4 c 128,-1,19
 406 -6 406 -6 379 -6 c 0,20,21
 350 -6 350 -6 337.5 6.5 c 128,-1,22
 325 19 325 19 325 33 c 0,23,24
 325 51 325 51 332 92 c 128,-1,25
 339 133 339 133 353 196 c 1,26,-1
 349 196 l 1,27,28
 336 160 336 160 316 123 c 128,-1,29
 296 86 296 86 270.5 56 c 128,-1,30
 245 26 245 26 214.5 7 c 128,-1,31
 184 -12 184 -12 149 -12 c 0,32,33
 45 -12 45 -12 45 140 c 0,34,35
 45 211 45 211 65 277.5 c 128,-1,36
 85 344 85 344 123 395.5 c 128,-1,37
 161 447 161 447 215 478 c 128,-1,38
 269 509 269 509 338 509 c 0,39,40
 364 509 364 509 377 505.5 c 128,-1,41
 390 502 390 502 410 493 c 1,42,-1
 425 571 l 1,43,-1
 262 571 l 1,44,-1
 274 623 l 1,0,-1
191 50 m 0,45,46
 218 50 218 50 245 75.5 c 128,-1,47
 272 101 272 101 296 137 c 128,-1,48
 320 173 320 173 339 212 c 128,-1,49
 358 251 358 251 369 277 c 1,50,-1
 401 448 l 1,51,52
 386 458 386 458 373.5 461.5 c 128,-1,53
 361 465 361 465 338 466 c 1,54,55
 290 465 290 465 252 436.5 c 128,-1,56
 214 408 214 408 188 363.5 c 128,-1,57
 162 319 162 319 148.5 264 c 128,-1,58
 135 209 135 209 135 156 c 0,59,60
 135 105 135 105 147.5 77.5 c 128,-1,61
 160 50 160 50 191 50 c 0,45,46
EndSplineSet
EndChar

StartChar: Eogonek
Encoding: 280 280 214
Width: 572
Flags: W
LayerCount: 2
Fore
SplineSet
601 700 m 1,0,1
 593 660 593 660 582 619 c 128,-1,2
 571 578 571 578 556 538 c 1,3,-1
 530 538 l 1,4,-1
 513 648 l 1,5,-1
 294 648 l 1,6,-1
 239 383 l 1,7,-1
 401 383 l 1,8,-1
 456 457 l 1,9,-1
 481 457 l 1,10,11
 473 407 473 407 462.5 356.5 c 128,-1,12
 452 306 452 306 438 255 c 1,13,-1
 413 255 l 1,14,-1
 390 331 l 1,15,-1
 227 331 l 1,16,-1
 169 52 l 1,17,-1
 398 52 l 1,18,-1
 473 172 l 1,19,-1
 498 172 l 1,20,21
 496 133 496 133 490 88.5 c 128,-1,22
 484 44 484 44 473 0 c 1,23,-1
 426 0 l 1,24,25
 403 -12 403 -12 383 -26.5 c 128,-1,26
 363 -41 363 -41 347.5 -58 c 128,-1,27
 332 -75 332 -75 323 -94.5 c 128,-1,28
 314 -114 314 -114 314 -135 c 0,29,30
 314 -163 314 -163 332 -181 c 128,-1,31
 350 -199 350 -199 381 -199 c 256,32,33
 412 -199 412 -199 436 -193 c 1,34,-1
 436 -222 l 1,35,36
 422 -233 422 -233 400 -242 c 128,-1,37
 378 -251 378 -251 345 -251 c 0,38,39
 322 -251 322 -251 301.5 -244 c 128,-1,40
 281 -237 281 -237 265.5 -224 c 128,-1,41
 250 -211 250 -211 241 -192.5 c 128,-1,42
 232 -174 232 -174 232 -152 c 0,43,44
 232 -101 232 -101 270 -64 c 128,-1,45
 308 -27 308 -27 370 0 c 1,46,-1
 -20 0 l 1,47,-1
 -15 29 l 1,48,49
 26 46 26 46 73 53 c 1,50,-1
 198 646 l 1,51,52
 178 651 178 651 159 657 c 128,-1,53
 140 663 140 663 121 671 c 1,54,-1
 128 700 l 1,55,-1
 601 700 l 1,0,1
EndSplineSet
Position2: "'cpsp' Capital Spacing lookup 0 subtable" dx=40 dy=0 dh=80 dv=0
EndChar

StartChar: eogonek
Encoding: 281 281 215
Width: 454
Flags: W
LayerCount: 2
Fore
SplineSet
392 89 m 1,0,1
 380 63 380 63 354 40 c 128,-1,2
 328 17 328 17 293 3 c 1,3,4
 278 -6 278 -6 262 -18 c 128,-1,5
 246 -30 246 -30 233.5 -45.5 c 128,-1,6
 221 -61 221 -61 213 -79.5 c 128,-1,7
 205 -98 205 -98 205 -118 c 0,8,9
 205 -144 205 -144 219 -161 c 128,-1,10
 233 -178 233 -178 266 -179 c 0,11,12
 277 -179 277 -179 285 -176.5 c 128,-1,13
 293 -174 293 -174 307 -170 c 1,14,-1
 307 -201 l 1,15,16
 293 -209 293 -209 271 -215.5 c 128,-1,17
 249 -222 249 -222 231 -222 c 0,18,19
 172 -222 172 -222 146.5 -197 c 128,-1,20
 121 -172 121 -172 121 -134 c 0,21,22
 121 -93 121 -93 146 -63.5 c 128,-1,23
 171 -34 171 -34 217 -12 c 1,24,25
 132 -11 132 -11 86 34.5 c 128,-1,26
 40 80 40 80 40 167 c 0,27,28
 40 238 40 238 60 301 c 128,-1,29
 80 364 80 364 116 411 c 128,-1,30
 152 458 152 458 203.5 485 c 128,-1,31
 255 512 255 512 318 512 c 0,32,33
 366 512 366 512 400.5 487.5 c 128,-1,34
 435 463 435 463 435 415 c 0,35,36
 435 344 435 344 364.5 303 c 128,-1,37
 294 262 294 262 137 250 c 1,38,39
 133 233 133 233 131.5 217 c 128,-1,40
 130 201 130 201 130 186 c 0,41,42
 130 127 130 127 160 88.5 c 128,-1,43
 190 50 190 50 250 50 c 0,44,45
 269 50 269 50 287.5 56 c 128,-1,46
 306 62 306 62 322.5 71 c 128,-1,47
 339 80 339 80 352.5 90 c 128,-1,48
 366 100 366 100 376 108 c 1,49,-1
 392 89 l 1,0,1
287 469 m 1,50,51
 244 468 244 468 207 428.5 c 128,-1,52
 170 389 170 389 144 293 c 1,53,54
 241 296 241 296 295 326.5 c 128,-1,55
 349 357 349 357 349 411 c 0,56,57
 349 432 349 432 336.5 450 c 128,-1,58
 324 468 324 468 287 469 c 1,50,51
EndSplineSet
EndChar

StartChar: Hbar
Encoding: 294 294 226
Width: 721
Flags: W
LayerCount: 2
Fore
SplineSet
99 557 m 1,0,-1
 179 557 l 1,1,-1
 198 646 l 1,2,3
 153 655 153 655 121 671 c 1,4,-1
 128 700 l 1,5,-1
 381 700 l 1,6,-1
 375 671 l 1,7,8
 358 662 358 662 336 656 c 128,-1,9
 314 650 314 650 294 646 c 1,10,-1
 275 557 l 1,11,-1
 589 557 l 1,12,-1
 609 646 l 1,13,14
 589 651 589 651 571.5 656.5 c 128,-1,15
 554 662 554 662 538 671 c 1,16,-1
 545 700 l 1,17,-1
 798 700 l 1,18,-1
 792 671 l 1,19,20
 772 661 772 661 749.5 655.5 c 128,-1,21
 727 650 727 650 705 646 c 1,22,-1
 686 557 l 1,23,-1
 767 557 l 1,24,-1
 755 505 l 1,25,-1
 675 505 l 1,26,-1
 579 53 l 1,27,28
 624 45 624 45 655 29 c 1,29,-1
 650 0 l 1,30,-1
 397 0 l 1,31,-1
 402 29 l 1,32,33
 421 37 421 37 441.5 43 c 128,-1,34
 462 49 462 49 483 53 c 1,35,-1
 542 333 l 1,36,-1
 227 333 l 1,37,-1
 169 53 l 1,38,39
 187 49 187 49 205 43 c 128,-1,40
 223 37 223 37 238 29 c 1,41,-1
 233 0 l 1,42,-1
 -20 0 l 1,43,-1
 -15 29 l 1,44,45
 7 39 7 39 29 44.5 c 128,-1,46
 51 50 51 50 73 53 c 1,47,-1
 168 505 l 1,48,-1
 88 505 l 1,49,-1
 99 557 l 1,0,-1
553 385 m 1,50,-1
 579 505 l 1,51,-1
 264 505 l 1,52,-1
 239 385 l 1,53,-1
 553 385 l 1,50,-1
EndSplineSet
Position2: "'cpsp' Capital Spacing lookup 0 subtable" dx=40 dy=0 dh=80 dv=0
EndChar

StartChar: hbar
Encoding: 295 295 227
Width: 543
Flags: W
LayerCount: 2
Fore
SplineSet
73 612 m 1,0,-1
 157 612 l 1,1,-1
 171 682 l 1,2,-1
 103 691 l 1,3,-1
 103 714 l 1,4,5
 118 720 118 720 136.5 726.5 c 128,-1,6
 155 733 155 733 175 738.5 c 128,-1,7
 195 744 195 744 214 747.5 c 128,-1,8
 233 751 233 751 250 752 c 1,9,-1
 271 743 l 1,10,-1
 244 612 l 1,11,-1
 409 612 l 1,12,-1
 396 560 l 1,13,-1
 232 560 l 1,14,-1
 181 323 l 1,15,-1
 186 323 l 1,16,17
 205 363 205 363 229 397.5 c 128,-1,18
 253 432 253 432 279.5 457.5 c 128,-1,19
 306 483 306 483 335 497.5 c 128,-1,20
 364 512 364 512 394 512 c 0,21,22
 440 512 440 512 460.5 485.5 c 128,-1,23
 481 459 481 459 481 420 c 0,24,25
 481 393 481 393 476 362 c 128,-1,26
 471 331 471 331 464 302 c 2,27,-1
 407 56 l 1,28,-1
 481 56 l 1,29,-1
 481 30 l 1,30,31
 461 14 461 14 433 4 c 128,-1,32
 405 -6 405 -6 377 -6 c 0,33,34
 348 -6 348 -6 337 6 c 128,-1,35
 326 18 326 18 326 32 c 0,36,37
 326 50 326 50 331 72.5 c 128,-1,38
 336 95 336 95 341 118 c 2,39,-1
 377 285 l 2,40,41
 384 316 384 316 389.5 343 c 128,-1,42
 395 370 395 370 395 395 c 0,43,44
 395 418 395 418 385 434 c 128,-1,45
 375 450 375 450 358 450 c 0,46,47
 327 450 327 450 298 428 c 128,-1,48
 269 406 269 406 244 375 c 128,-1,49
 219 344 219 344 200 310.5 c 128,-1,50
 181 277 181 277 171 255 c 1,51,-1
 118 0 l 1,52,-1
 34 0 l 1,53,-1
 146 560 l 1,54,-1
 61 560 l 1,55,-1
 73 612 l 1,0,-1
EndSplineSet
EndChar

StartChar: Iogonek
Encoding: 302 302 230
Width: 343
Flags: W
LayerCount: 2
Fore
SplineSet
255 0 m 1,0,-1
 204 0 l 1,1,2
 158 -23 158 -23 125 -58 c 128,-1,3
 92 -93 92 -93 92 -135 c 0,4,5
 92 -163 92 -163 110 -181 c 128,-1,6
 128 -199 128 -199 159 -199 c 256,7,8
 190 -199 190 -199 214 -193 c 1,9,-1
 214 -222 l 1,10,11
 200 -233 200 -233 178 -242 c 128,-1,12
 156 -251 156 -251 123 -251 c 0,13,14
 100 -251 100 -251 79.5 -244 c 128,-1,15
 59 -237 59 -237 43.5 -224 c 128,-1,16
 28 -211 28 -211 19 -192.5 c 128,-1,17
 10 -174 10 -174 10 -152 c 0,18,19
 10 -101 10 -101 48 -64 c 128,-1,20
 86 -27 86 -27 148 0 c 1,21,-1
 -1 0 l 1,22,-1
 4 29 l 1,23,24
 48 47 48 47 90 53 c 1,25,-1
 215 646 l 1,26,27
 195 650 195 650 177 656.5 c 128,-1,28
 159 663 159 663 140 671 c 1,29,-1
 147 700 l 1,30,-1
 403 700 l 1,31,-1
 397 671 l 1,32,33
 377 663 377 663 354 656.5 c 128,-1,34
 331 650 331 650 311 646 c 1,35,-1
 186 53 l 1,36,37
 206 49 206 49 225.5 43 c 128,-1,38
 245 37 245 37 260 29 c 1,39,-1
 255 0 l 1,0,-1
EndSplineSet
Position2: "'cpsp' Capital Spacing lookup 0 subtable" dx=40 dy=0 dh=80 dv=0
EndChar

StartChar: iogonek
Encoding: 303 303 231
Width: 277
Flags: W
LayerCount: 2
Fore
SplineSet
70 451 m 1,0,-1
 70 476 l 1,1,2
 85 482 85 482 104 488.5 c 128,-1,3
 123 495 123 495 143 500 c 128,-1,4
 163 505 163 505 181 508.5 c 128,-1,5
 199 512 199 512 213 512 c 1,6,-1
 231 500 l 1,7,-1
 137 55 l 1,8,-1
 211 55 l 1,9,-1
 211 30 l 1,10,11
 200 22 200 22 187.5 15.5 c 128,-1,12
 175 9 175 9 161 4 c 1,13,14
 146 -5 146 -5 130 -17.5 c 128,-1,15
 114 -30 114 -30 101.5 -45.5 c 128,-1,16
 89 -61 89 -61 81 -79.5 c 128,-1,17
 73 -98 73 -98 73 -118 c 0,18,19
 73 -144 73 -144 87 -161 c 128,-1,20
 101 -178 101 -178 134 -179 c 0,21,22
 144 -179 144 -179 152.5 -176.5 c 128,-1,23
 161 -174 161 -174 175 -170 c 1,24,-1
 175 -201 l 1,25,26
 161 -209 161 -209 139 -215.5 c 128,-1,27
 117 -222 117 -222 99 -222 c 0,28,29
 40 -222 40 -222 14.5 -197 c 128,-1,30
 -11 -172 -11 -172 -11 -134 c 0,31,32
 -11 -90 -11 -90 17 -59 c 128,-1,33
 45 -28 45 -28 98 -5 c 1,34,35
 74 -3 74 -3 63.5 9 c 128,-1,36
 53 21 53 21 53 37 c 0,37,38
 53 57 53 57 56 76 c 128,-1,39
 59 95 59 95 64 118 c 2,40,-1
 134 441 l 1,41,-1
 70 451 l 1,0,-1
150 673 m 0,42,43
 150 699 150 699 166 714 c 128,-1,44
 182 729 182 729 208 729 c 0,45,46
 236 729 236 729 252 714 c 128,-1,47
 268 699 268 699 268 673 c 0,48,49
 268 648 268 648 252 634 c 128,-1,50
 236 620 236 620 208 620 c 0,51,52
 182 620 182 620 166 634 c 128,-1,53
 150 648 150 648 150 673 c 0,42,43
EndSplineSet
EndChar

StartChar: dotlessi
Encoding: 305 305 233
Width: 277
Flags: W
LayerCount: 2
Fore
SplineSet
70 451 m 1,0,-1
 70 476 l 1,1,2
 85 482 85 482 104 488.5 c 128,-1,3
 123 495 123 495 143 500 c 128,-1,4
 163 505 163 505 181 508.5 c 128,-1,5
 199 512 199 512 213 512 c 1,6,-1
 231 500 l 1,7,-1
 137 56 l 1,8,-1
 211 56 l 1,9,-1
 211 30 l 1,10,11
 190 14 190 14 162 4 c 128,-1,12
 134 -6 134 -6 107 -6 c 0,13,14
 78 -6 78 -6 65.5 7 c 128,-1,15
 53 20 53 20 53 37 c 0,16,17
 53 57 53 57 56 76 c 128,-1,18
 59 95 59 95 64 118 c 2,19,-1
 134 441 l 1,20,-1
 70 451 l 1,0,-1
EndSplineSet
EndChar

StartChar: Lslash
Encoding: 321 321 244
Width: 538
Flags: W
LayerCount: 2
Fore
SplineSet
128 700 m 1,0,-1
 402 700 l 1,1,-1
 395 671 l 1,2,3
 370 662 370 662 344.5 655.5 c 128,-1,4
 319 649 319 649 294 646 c 1,5,-1
 240 392 l 1,6,-1
 393 476 l 1,7,-1
 379 410 l 1,8,-1
 227 326 l 1,9,-1
 169 52 l 1,10,-1
 398 52 l 1,11,-1
 491 213 l 1,12,-1
 517 213 l 1,13,14
 515 192 515 192 512 164.5 c 128,-1,15
 509 137 509 137 504.5 107.5 c 128,-1,16
 500 78 500 78 494.5 50 c 128,-1,17
 489 22 489 22 483 0 c 1,18,-1
 -20 0 l 1,19,-1
 -15 29 l 1,20,21
 12 40 12 40 33 45 c 128,-1,22
 54 50 54 50 73 53 c 1,23,-1
 118 268 l 1,24,-1
 12 210 l 1,25,-1
 26 275 l 1,26,-1
 131 333 l 1,27,-1
 198 646 l 1,28,29
 151 655 151 655 121 671 c 1,30,-1
 128 700 l 1,0,-1
EndSplineSet
Position2: "'cpsp' Capital Spacing lookup 0 subtable" dx=40 dy=0 dh=80 dv=0
EndChar

StartChar: lslash
Encoding: 322 322 245
Width: 298
Flags: W
LayerCount: 2
Fore
SplineSet
13 295 m 1,0,-1
 113 353 l 1,1,-1
 181 682 l 1,2,-1
 110 691 l 1,3,-1
 110 716 l 1,4,5
 124 722 124 722 142.5 728 c 128,-1,6
 161 734 161 734 181.5 739.5 c 128,-1,7
 202 745 202 745 222 748.5 c 128,-1,8
 242 752 242 752 258 752 c 1,9,-1
 278 741 l 1,10,-1
 211 410 l 1,11,-1
 315 471 l 1,12,-1
 302 405 l 1,13,-1
 198 345 l 1,14,-1
 140 56 l 1,15,-1
 214 56 l 1,16,-1
 214 30 l 1,17,18
 194 14 194 14 165.5 4 c 128,-1,19
 137 -6 137 -6 110 -6 c 0,20,21
 81 -6 81 -6 67.5 7 c 128,-1,22
 54 20 54 20 54 37 c 0,23,24
 54 57 54 57 57 76 c 128,-1,25
 60 95 60 95 65 118 c 2,26,-1
 99 288 l 1,27,-1
 -1 229 l 1,28,-1
 13 295 l 1,0,-1
EndSplineSet
EndChar

StartChar: OE
Encoding: 338 338 256
Width: 946
Flags: W
LayerCount: 2
Fore
SplineSet
437 0 m 1,0,1
 410 -5 410 -5 388 -8.5 c 128,-1,2
 366 -12 366 -12 339 -12 c 0,3,4
 201 -12 201 -12 133.5 56.5 c 128,-1,5
 66 125 66 125 66 256 c 0,6,7
 66 336 66 336 88.5 417.5 c 128,-1,8
 111 499 111 499 159.5 564.5 c 128,-1,9
 208 630 208 630 283.5 671 c 128,-1,10
 359 712 359 712 465 712 c 0,11,12
 488 712 488 712 522 709 c 128,-1,13
 556 706 556 706 584 700 c 1,14,-1
 975 700 l 1,15,16
 966 660 966 660 955 619.5 c 128,-1,17
 944 579 944 579 930 538 c 1,18,-1
 904 538 l 1,19,-1
 887 648 l 1,20,-1
 668 648 l 1,21,-1
 613 383 l 1,22,-1
 775 383 l 1,23,-1
 830 457 l 1,24,-1
 855 457 l 1,25,26
 847 407 847 407 836.5 356.5 c 128,-1,27
 826 306 826 306 812 255 c 1,28,-1
 787 255 l 1,29,-1
 764 331 l 1,30,-1
 601 331 l 1,31,-1
 542 52 l 1,32,-1
 772 52 l 1,33,-1
 847 172 l 1,34,-1
 872 172 l 1,35,36
 870 130 870 130 864 87 c 128,-1,37
 858 44 858 44 847 0 c 1,38,-1
 437 0 l 1,0,1
339 40 m 1,39,40
 365 39 365 39 393 43.5 c 128,-1,41
 421 48 421 48 448 59 c 1,42,-1
 570 636 l 1,43,44
 547 647 547 647 517 653.5 c 128,-1,45
 487 660 487 660 453 660 c 0,46,47
 388 660 388 660 336 628 c 128,-1,48
 284 596 284 596 248 540.5 c 128,-1,49
 212 485 212 485 192.5 410 c 128,-1,50
 173 335 173 335 173 249 c 0,51,52
 173 213 173 213 180 175.5 c 128,-1,53
 187 138 187 138 205 107.5 c 128,-1,54
 223 77 223 77 255.5 58 c 128,-1,55
 288 39 288 39 339 40 c 1,39,40
EndSplineSet
Position2: "'cpsp' Capital Spacing lookup 0 subtable" dx=40 dy=0 dh=80 dv=0
EndChar

StartChar: oe
Encoding: 339 339 257
Width: 778
Flags: W
LayerCount: 2
Fore
SplineSet
292 469 m 1,0,1
 243 468 243 468 212 437 c 128,-1,2
 181 406 181 406 163 360 c 128,-1,3
 145 314 145 314 138 261 c 128,-1,4
 131 208 131 208 131 164 c 0,5,6
 131 105 131 105 157 68 c 128,-1,7
 183 31 183 31 227 31 c 0,8,9
 262 31 262 31 289.5 57.5 c 128,-1,10
 317 84 317 84 336.5 127.5 c 128,-1,11
 356 171 356 171 366.5 226 c 128,-1,12
 377 281 377 281 377 337 c 0,13,14
 377 396 377 396 356.5 432 c 128,-1,15
 336 468 336 468 292 469 c 1,0,1
384 74 m 1,16,17
 365 50 365 50 342.5 33.5 c 128,-1,18
 320 17 320 17 297 7 c 128,-1,19
 274 -3 274 -3 251 -7.5 c 128,-1,20
 228 -12 228 -12 209 -12 c 0,21,22
 132 -12 132 -12 86.5 37.5 c 128,-1,23
 41 87 41 87 41 186 c 0,24,25
 41 239 41 239 57.5 296.5 c 128,-1,26
 74 354 74 354 108 402 c 128,-1,27
 142 450 142 450 193 481 c 128,-1,28
 244 512 244 512 312 512 c 0,29,30
 360 512 360 512 398 490 c 128,-1,31
 436 468 436 468 450 425 c 1,32,33
 493 474 493 474 543 493 c 128,-1,34
 593 512 593 512 641 512 c 0,35,36
 690 512 690 512 724 487.5 c 128,-1,37
 758 463 758 463 758 415 c 0,38,39
 758 344 758 344 688 303 c 128,-1,40
 618 262 618 262 461 250 c 1,41,42
 457 233 457 233 455.5 217 c 128,-1,43
 454 201 454 201 454 186 c 0,44,45
 454 126 454 126 484 88 c 128,-1,46
 514 50 514 50 573 50 c 0,47,48
 593 50 593 50 611.5 56 c 128,-1,49
 630 62 630 62 646 71 c 128,-1,50
 662 80 662 80 675.5 90 c 128,-1,51
 689 100 689 100 699 108 c 1,52,-1
 715 89 l 1,53,54
 706 70 706 70 689 52 c 128,-1,55
 672 34 672 34 649 19.5 c 128,-1,56
 626 5 626 5 597.5 -3.5 c 128,-1,57
 569 -12 569 -12 536 -12 c 0,58,59
 472 -12 472 -12 435.5 14.5 c 128,-1,60
 399 41 399 41 384 74 c 1,16,17
611 468 m 0,61,62
 567 468 567 468 530 428.5 c 128,-1,63
 493 389 493 389 468 293 c 1,64,65
 565 296 565 296 618.5 326.5 c 128,-1,66
 672 357 672 357 672 411 c 0,67,68
 672 432 672 432 659.5 450 c 128,-1,69
 647 468 647 468 611 468 c 0,61,62
EndSplineSet
EndChar

StartChar: Scedilla
Encoding: 350 350 268
Width: 527
Flags: W
LayerCount: 2
Fore
SplineSet
121 69 m 1,0,1
 132 60 132 60 158 49.5 c 128,-1,2
 184 39 184 39 213 39 c 0,3,4
 246 39 246 39 277 45 c 128,-1,5
 308 51 308 51 333 66 c 128,-1,6
 358 81 358 81 373 105.5 c 128,-1,7
 388 130 388 130 388 167 c 0,8,9
 388 208 388 208 368.5 236 c 128,-1,10
 349 264 349 264 320 285.5 c 128,-1,11
 291 307 291 307 257.5 326.5 c 128,-1,12
 224 346 224 346 195 370 c 128,-1,13
 166 394 166 394 146.5 426.5 c 128,-1,14
 127 459 127 459 127 507 c 0,15,16
 127 553 127 553 143.5 590.5 c 128,-1,17
 160 628 160 628 192.5 655 c 128,-1,18
 225 682 225 682 272 697 c 128,-1,19
 319 712 319 712 379 712 c 0,20,21
 440 712 440 712 488 702.5 c 128,-1,22
 536 693 536 693 563 679 c 1,23,24
 559 662 559 662 551.5 639.5 c 128,-1,25
 544 617 544 617 536 593 c 128,-1,26
 528 569 528 569 519 546.5 c 128,-1,27
 510 524 510 524 503 507 c 1,28,-1
 477 507 l 1,29,-1
 465 644 l 1,30,31
 448 652 448 652 421.5 656 c 128,-1,32
 395 660 395 660 364 660 c 0,33,34
 334 660 334 660 307.5 653 c 128,-1,35
 281 646 281 646 261.5 631.5 c 128,-1,36
 242 617 242 617 231 595 c 128,-1,37
 220 573 220 573 220 543 c 0,38,39
 220 503 220 503 239.5 476.5 c 128,-1,40
 259 450 259 450 288 429 c 128,-1,41
 317 408 317 408 350.5 388.5 c 128,-1,42
 384 369 384 369 413 344 c 128,-1,43
 442 319 442 319 461.5 283.5 c 128,-1,44
 481 248 481 248 481 196 c 0,45,46
 481 151 481 151 464.5 114 c 128,-1,47
 448 77 448 77 416 50 c 128,-1,48
 384 23 384 23 338 7.5 c 128,-1,49
 292 -8 292 -8 233 -11 c 1,50,-1
 196 -75 l 1,51,52
 251 -76 251 -76 269.5 -96.5 c 128,-1,53
 288 -117 288 -117 288 -148 c 0,54,55
 288 -180 288 -180 267.5 -203.5 c 128,-1,56
 247 -227 247 -227 216.5 -242 c 128,-1,57
 186 -257 186 -257 151 -264.5 c 128,-1,58
 116 -272 116 -272 87 -272 c 1,59,-1
 87 -239 l 1,60,61
 107 -236 107 -236 127 -230.5 c 128,-1,62
 147 -225 147 -225 163.5 -216 c 128,-1,63
 180 -207 180 -207 190 -194 c 128,-1,64
 200 -181 200 -181 200 -163 c 0,65,66
 200 -153 200 -153 197 -144.5 c 128,-1,67
 194 -136 194 -136 186.5 -130.5 c 128,-1,68
 179 -125 179 -125 165.5 -121.5 c 128,-1,69
 152 -118 152 -118 130 -116 c 1,70,-1
 183 -11 l 1,71,72
 128 -8 128 -8 84 6 c 128,-1,73
 40 20 40 20 22 35 c 1,74,75
 26 53 26 53 33.5 77.5 c 128,-1,76
 41 102 41 102 50 127 c 128,-1,77
 59 152 59 152 68 175.5 c 128,-1,78
 77 199 77 199 85 216 c 1,79,-1
 111 216 l 1,80,-1
 121 69 l 1,0,1
EndSplineSet
Substitution2: "'locl' Localized Forms in Latin lookup 9 subtable" Scommaaccent
Position2: "'cpsp' Capital Spacing lookup 0 subtable" dx=40 dy=0 dh=80 dv=0
EndChar

StartChar: scedilla
Encoding: 351 351 269
Width: 418
Flags: W
LayerCount: 2
Fore
SplineSet
255 118 m 1,0,1
 254 142 254 142 241.5 159.5 c 128,-1,2
 229 177 229 177 209.5 193 c 128,-1,3
 190 209 190 209 168 225 c 128,-1,4
 146 241 146 241 126.5 260.5 c 128,-1,5
 107 280 107 280 94.5 305.5 c 128,-1,6
 82 331 82 331 82 367 c 256,7,8
 82 403 82 403 96 430 c 128,-1,9
 110 457 110 457 134.5 475 c 128,-1,10
 159 493 159 493 193.5 502.5 c 128,-1,11
 228 512 228 512 269 512 c 0,12,13
 295 512 295 512 327.5 507.5 c 128,-1,14
 360 503 360 503 389 486 c 1,15,16
 389 475 389 475 385 460.5 c 128,-1,17
 381 446 381 446 374.5 432.5 c 128,-1,18
 368 419 368 419 360 407.5 c 128,-1,19
 352 396 352 396 343 392 c 1,20,-1
 269 469 l 1,21,22
 248 468 248 468 230 464 c 128,-1,23
 212 460 212 460 198.5 451 c 128,-1,24
 185 442 185 442 177.5 427.5 c 128,-1,25
 170 413 170 413 170 391 c 0,26,27
 170 365 170 365 183 346.5 c 128,-1,28
 196 328 196 328 215.5 311.5 c 128,-1,29
 235 295 235 295 257.5 279.5 c 128,-1,30
 280 264 280 264 299.5 244.5 c 128,-1,31
 319 225 319 225 332 199.5 c 128,-1,32
 345 174 345 174 345 139 c 0,33,34
 345 107 345 107 331.5 81 c 128,-1,35
 318 55 318 55 294.5 36 c 128,-1,36
 271 17 271 17 239.5 5.5 c 128,-1,37
 208 -6 208 -6 172 -10 c 1,38,-1
 138 -68 l 1,39,40
 180 -70 180 -70 198.5 -87.5 c 128,-1,41
 217 -105 217 -105 218 -134 c 0,42,43
 219 -165 219 -165 200.5 -187.5 c 128,-1,44
 182 -210 182 -210 154.5 -224.5 c 128,-1,45
 127 -239 127 -239 94.5 -245.5 c 128,-1,46
 62 -252 62 -252 35 -251 c 1,47,-1
 35 -221 l 1,48,49
 54 -218 54 -218 73 -212.5 c 128,-1,50
 92 -207 92 -207 106.5 -199 c 128,-1,51
 121 -191 121 -191 130 -179.5 c 128,-1,52
 139 -168 139 -168 138 -154 c 0,53,54
 138 -145 138 -145 136 -137 c 128,-1,55
 134 -129 134 -129 127.5 -122.5 c 128,-1,56
 121 -116 121 -116 108.5 -111.5 c 128,-1,57
 96 -107 96 -107 76 -105 c 1,58,-1
 126 -12 l 1,59,60
 88 -10 88 -10 56.5 -2 c 128,-1,61
 25 6 25 6 7 18 c 1,62,63
 12 44 12 44 19 68.5 c 128,-1,64
 26 93 26 93 48 114 c 1,65,-1
 138 31 l 1,66,67
 159 31 159 31 179.5 36 c 128,-1,68
 200 41 200 41 216.5 52 c 128,-1,69
 233 63 233 63 243.5 79 c 128,-1,70
 254 95 254 95 255 118 c 1,0,1
EndSplineSet
Substitution2: "'locl' Localized Forms in Latin lookup 9 subtable" scommaaccent
EndChar

StartChar: Tcedilla
Encoding: 354 354 272
Width: 610
Flags: W
LayerCount: 2
Fore
SplineSet
401 0 m 1,0,-1
 283 0 l 1,1,-1
 239 -75 l 1,2,3
 294 -76 294 -76 312.5 -96.5 c 128,-1,4
 331 -117 331 -117 331 -148 c 0,5,6
 331 -180 331 -180 310.5 -203.5 c 128,-1,7
 290 -227 290 -227 260 -242 c 128,-1,8
 230 -257 230 -257 195 -264.5 c 128,-1,9
 160 -272 160 -272 131 -272 c 1,10,-1
 131 -239 l 1,11,12
 150 -236 150 -236 170.5 -230.5 c 128,-1,13
 191 -225 191 -225 207 -216 c 128,-1,14
 223 -207 223 -207 233 -194 c 128,-1,15
 243 -181 243 -181 243 -163 c 0,16,17
 243 -153 243 -153 240 -144.5 c 128,-1,18
 237 -136 237 -136 229.5 -130.5 c 128,-1,19
 222 -125 222 -125 209 -121.5 c 128,-1,20
 196 -118 196 -118 174 -116 c 1,21,-1
 233 0 l 1,22,-1
 120 0 l 1,23,-1
 125 29 l 1,24,25
 149 38 149 38 172.5 43.5 c 128,-1,26
 196 49 196 49 224 53 c 1,27,-1
 350 648 l 1,28,-1
 197 648 l 1,29,-1
 114 505 l 1,30,-1
 88 505 l 1,31,32
 89 525 89 525 92.5 550.5 c 128,-1,33
 96 576 96 576 100 602.5 c 128,-1,34
 104 629 104 629 108.5 654.5 c 128,-1,35
 113 680 113 680 118 700 c 1,36,-1
 698 700 l 1,37,38
 694 680 694 680 688 655 c 128,-1,39
 682 630 682 630 675 603.5 c 128,-1,40
 668 577 668 577 660.5 551.5 c 128,-1,41
 653 526 653 526 646 505 c 1,42,-1
 620 505 l 1,43,-1
 599 648 l 1,44,-1
 446 648 l 1,45,-1
 320 53 l 1,46,47
 344 48 344 48 365.5 43 c 128,-1,48
 387 38 387 38 406 29 c 1,49,-1
 401 0 l 1,0,-1
EndSplineSet
Substitution2: "'locl' Localized Forms in Latin lookup 9 subtable" Tcommaaccent
Position2: "'cpsp' Capital Spacing lookup 0 subtable" dx=40 dy=0 dh=80 dv=0
EndChar

StartChar: tcedilla
Encoding: 355 355 273
Width: 337
Flags: W
LayerCount: 2
Fore
SplineSet
54 476 m 1,0,1
 74 487 74 487 96.5 496 c 128,-1,2
 119 505 119 505 141 510 c 1,3,-1
 157 586 l 1,4,5
 171 597 171 597 189.5 605.5 c 128,-1,6
 208 614 208 614 228 622 c 1,7,-1
 249 610 l 1,8,-1
 225 500 l 1,9,-1
 349 500 l 1,10,11
 351 488 351 488 349 475 c 128,-1,12
 347 462 347 462 339 450 c 1,13,-1
 215 450 l 1,14,-1
 152 160 l 2,15,16
 148 141 148 141 146 126.5 c 128,-1,17
 144 112 144 112 144 100 c 0,18,19
 144 74 144 74 159 62 c 128,-1,20
 174 50 174 50 192 50 c 0,21,22
 217 50 217 50 245.5 59.5 c 128,-1,23
 274 69 274 69 298 81 c 1,24,-1
 309 63 l 1,25,26
 292 40 292 40 252.5 18.5 c 128,-1,27
 213 -3 213 -3 171 -10 c 1,28,-1
 138 -68 l 1,29,30
 180 -70 180 -70 198 -87.5 c 128,-1,31
 216 -105 216 -105 218 -134 c 1,32,33
 219 -165 219 -165 200.5 -187.5 c 128,-1,34
 182 -210 182 -210 154 -224.5 c 128,-1,35
 126 -239 126 -239 93.5 -245.5 c 128,-1,36
 61 -252 61 -252 34 -251 c 1,37,-1
 34 -221 l 1,38,39
 53 -218 53 -218 72 -212.5 c 128,-1,40
 91 -207 91 -207 106 -199 c 128,-1,41
 121 -191 121 -191 130 -179.5 c 128,-1,42
 139 -168 139 -168 138 -154 c 0,43,44
 138 -145 138 -145 135.5 -137 c 128,-1,45
 133 -129 133 -129 126.5 -122.5 c 128,-1,46
 120 -116 120 -116 108 -111.5 c 128,-1,47
 96 -107 96 -107 76 -105 c 1,48,-1
 126 -11 l 1,49,50
 92 -6 92 -6 73 13.5 c 128,-1,51
 54 33 54 33 54 70 c 0,52,53
 54 84 54 84 56.5 101 c 128,-1,54
 59 118 59 118 63 136 c 2,55,-1
 129 450 l 1,56,-1
 53 450 l 1,57,-1
 54 476 l 1,0,1
EndSplineSet
Substitution2: "'locl' Localized Forms in Latin lookup 9 subtable" tcommaaccent
EndChar

StartChar: Uogonek
Encoding: 370 370 284
Width: 666
Flags: W
LayerCount: 2
Fore
SplineSet
112 700 m 1,0,-1
 366 700 l 1,1,-1
 360 671 l 1,2,3
 321 654 321 654 279 646 c 1,4,-1
 194 249 l 2,5,6
 183 196 183 196 188 158.5 c 128,-1,7
 193 121 193 121 212 97 c 128,-1,8
 231 73 231 73 262 62 c 128,-1,9
 293 51 293 51 334 51 c 0,10,11
 415 51 415 51 463.5 96 c 128,-1,12
 512 141 512 141 532 238 c 2,13,-1
 617 637 l 1,14,15
 573 652 573 652 545 671 c 1,16,-1
 551 700 l 1,17,-1
 765 700 l 1,18,-1
 758 671 l 1,19,20
 741 660 741 660 718 651 c 128,-1,21
 695 642 695 642 673 637 c 1,22,-1
 588 236 l 2,23,24
 567 137 567 137 521.5 81 c 128,-1,25
 476 25 476 25 407 4 c 1,26,27
 383 -7 383 -7 361.5 -22 c 128,-1,28
 340 -37 340 -37 323.5 -54.5 c 128,-1,29
 307 -72 307 -72 297 -92.5 c 128,-1,30
 287 -113 287 -113 287 -135 c 0,31,32
 287 -163 287 -163 305 -181 c 128,-1,33
 323 -199 323 -199 355 -199 c 0,34,35
 386 -199 386 -199 410 -193 c 1,36,-1
 410 -222 l 1,37,38
 396 -233 396 -233 374 -242 c 128,-1,39
 352 -251 352 -251 319 -251 c 0,40,41
 296 -251 296 -251 275.5 -244 c 128,-1,42
 255 -237 255 -237 239 -224 c 128,-1,43
 223 -211 223 -211 214 -192.5 c 128,-1,44
 205 -174 205 -174 205 -152 c 0,45,46
 205 -105 205 -105 238 -70 c 128,-1,47
 271 -35 271 -35 324 -8 c 1,48,49
 320 -8 320 -8 316.5 -8.5 c 128,-1,50
 313 -9 313 -9 308 -9 c 0,51,52
 242 -9 242 -9 196.5 10 c 128,-1,53
 151 29 151 29 125 62.5 c 128,-1,54
 99 96 99 96 92 142.5 c 128,-1,55
 85 189 85 189 97 243 c 2,56,-1
 183 646 l 1,57,58
 163 650 163 650 142 656.5 c 128,-1,59
 121 663 121 663 106 671 c 1,60,-1
 112 700 l 1,0,-1
EndSplineSet
Position2: "'cpsp' Capital Spacing lookup 0 subtable" dx=40 dy=0 dh=80 dv=0
EndChar

StartChar: uogonek
Encoding: 371 371 285
Width: 542
Flags: W
LayerCount: 2
Fore
SplineSet
488 56 m 1,0,-1
 488 30 l 1,1,2
 477 22 477 22 465.5 16 c 128,-1,3
 454 10 454 10 441 5 c 1,4,5
 426 -4 426 -4 410 -16.5 c 128,-1,6
 394 -29 394 -29 381 -44.5 c 128,-1,7
 368 -60 368 -60 359.5 -78.5 c 128,-1,8
 351 -97 351 -97 351 -118 c 0,9,10
 351 -144 351 -144 365 -161 c 128,-1,11
 379 -178 379 -178 411 -179 c 0,12,13
 422 -179 422 -179 430.5 -176.5 c 128,-1,14
 439 -174 439 -174 453 -170 c 1,15,-1
 453 -201 l 1,16,17
 438 -209 438 -209 416.5 -215.5 c 128,-1,18
 395 -222 395 -222 377 -222 c 0,19,20
 318 -222 318 -222 292.5 -197 c 128,-1,21
 267 -172 267 -172 267 -134 c 0,22,23
 267 -90 267 -90 295 -59.5 c 128,-1,24
 323 -29 323 -29 376 -6 c 1,25,26
 351 -4 351 -4 340.5 7.5 c 128,-1,27
 330 19 330 19 330 32 c 0,28,29
 330 50 330 50 335 92.5 c 128,-1,30
 340 135 340 135 357 196 c 1,31,-1
 353 196 l 1,32,33
 340 168 340 168 320.5 132 c 128,-1,34
 301 96 301 96 274 64 c 128,-1,35
 247 32 247 32 212.5 10 c 128,-1,36
 178 -12 178 -12 136 -12 c 0,37,38
 101 -12 101 -12 77 12.5 c 128,-1,39
 53 37 53 37 53 82 c 0,40,41
 53 104 53 104 60 147 c 128,-1,42
 67 190 67 190 77 241 c 128,-1,43
 87 292 87 292 98.5 345.5 c 128,-1,44
 110 399 110 399 119 442 c 1,45,-1
 58 451 l 1,46,-1
 58 476 l 1,47,48
 74 482 74 482 92.5 488 c 128,-1,49
 111 494 111 494 129.5 499 c 128,-1,50
 148 504 148 504 165 507.5 c 128,-1,51
 182 511 182 511 196 512 c 1,52,-1
 218 500 l 1,53,54
 202 425 202 425 185.5 357.5 c 128,-1,55
 169 290 169 290 155 215 c 0,56,57
 150 191 150 191 144.5 161.5 c 128,-1,58
 139 132 139 132 139 97 c 0,59,60
 139 76 139 76 150.5 63 c 128,-1,61
 162 50 162 50 177 50 c 0,62,63
 199 50 199 50 221 63 c 128,-1,64
 243 76 243 76 262.5 97 c 128,-1,65
 282 118 282 118 299.5 143.5 c 128,-1,66
 317 169 317 169 331 194 c 128,-1,67
 345 219 345 219 354.5 240.5 c 128,-1,68
 364 262 364 262 369 275 c 1,69,-1
 413 500 l 1,70,-1
 496 500 l 1,71,-1
 414 56 l 1,72,-1
 488 56 l 1,0,-1
EndSplineSet
EndChar

StartChar: florin
Encoding: 402 402 294
Width: 524
Flags: W
LayerCount: 2
Fore
SplineSet
188 450 m 1,0,-1
 116 450 l 1,1,-1
 116 476 l 1,2,3
 136 487 136 487 158.5 495.5 c 128,-1,4
 181 504 181 504 201 509 c 1,5,-1
 208 544 l 2,6,7
 221 606 221 606 243.5 646.5 c 128,-1,8
 266 687 266 687 295.5 710.5 c 128,-1,9
 325 734 325 734 361 743 c 128,-1,10
 397 752 397 752 438 752 c 0,11,12
 455 752 455 752 478.5 748 c 128,-1,13
 502 744 502 744 518 736 c 1,14,15
 516 714 516 714 507.5 690.5 c 128,-1,16
 499 667 499 667 479 650 c 1,17,-1
 404 712 l 1,18,19
 386 707 386 707 370.5 701 c 128,-1,20
 355 695 355 695 341.5 678.5 c 128,-1,21
 328 662 328 662 316 632 c 128,-1,22
 304 602 304 602 293 550 c 2,23,-1
 283 500 l 1,24,-1
 394 500 l 1,25,26
 399 475 399 475 384 450 c 1,27,-1
 273 450 l 1,28,-1
 210 43 l 2,29,30
 199 -28 199 -28 173 -75 c 128,-1,31
 147 -122 147 -122 117.5 -151 c 128,-1,32
 88 -180 88 -180 60 -194 c 128,-1,33
 32 -208 32 -208 17 -212 c 1,34,-1
 9 -193 l 1,35,36
 21 -187 21 -187 37.5 -171 c 128,-1,37
 54 -155 54 -155 70.5 -128.5 c 128,-1,38
 87 -102 87 -102 101.5 -64 c 128,-1,39
 116 -26 116 -26 124 24 c 2,40,-1
 188 450 l 1,0,-1
EndSplineSet
EndChar

StartChar: uni0237
Encoding: 567 567 301
Width: 276
Flags: W
LayerCount: 2
Fore
SplineSet
133 442 m 1,0,-1
 72 451 l 1,1,-1
 72 476 l 1,2,3
 103 490 103 490 141.5 501 c 128,-1,4
 180 512 180 512 210 512 c 1,5,-1
 230 500 l 1,6,-1
 134 43 l 2,7,8
 119 -28 119 -28 92.5 -75 c 128,-1,9
 66 -122 66 -122 37.5 -151 c 128,-1,10
 9 -180 9 -180 -18.5 -194 c 128,-1,11
 -46 -208 -46 -208 -62 -212 c 1,12,-1
 -73 -190 l 1,13,14
 -61 -184 -61 -184 -45 -169.5 c 128,-1,15
 -29 -155 -29 -155 -13 -129.5 c 128,-1,16
 3 -104 3 -104 18.5 -66 c 128,-1,17
 34 -28 34 -28 45 24 c 2,18,-1
 133 442 l 1,0,-1
EndSplineSet
EndChar

StartChar: circumflex
Encoding: 710 710 303
Width: 349
Flags: W
LayerCount: 2
Fore
SplineSet
189 590 m 1,0,-1
 160 606 l 1,1,-1
 311 792 l 1,2,3
 316 796 316 796 324 796 c 256,4,5
 332 796 332 796 336 792 c 1,6,-1
 409 607 l 1,7,-1
 382 590 l 1,8,-1
 304 697 l 1,9,-1
 189 590 l 1,0,-1
EndSplineSet
EndChar

StartChar: caron
Encoding: 711 711 304
Width: 370
Flags: W
LayerCount: 2
Fore
SplineSet
401 796 m 1,0,1
 410 797 410 797 418.5 792 c 128,-1,2
 427 787 427 787 430 780 c 1,3,-1
 266 595 l 1,4,5
 261 592 261 592 253 592 c 256,6,7
 245 592 245 592 241 595 c 1,8,-1
 160 779 l 1,9,10
 164 787 164 787 174 792 c 128,-1,11
 184 797 184 797 194 796 c 1,12,-1
 271 690 l 1,13,-1
 401 796 l 1,0,1
EndSplineSet
AlternateSubs2: "'aalt' Access All Alternates lookup 1 subtable" caron.l caron.L
EndChar

StartChar: breve
Encoding: 728 728 305
Width: 372
Flags: W
LayerCount: 2
Fore
SplineSet
432 719 m 1,0,1
 423 696 423 696 407.5 674.5 c 128,-1,2
 392 653 392 653 371.5 635.5 c 128,-1,3
 351 618 351 618 327 607.5 c 128,-1,4
 303 597 303 597 278 597 c 0,5,6
 224 597 224 597 194.5 632 c 128,-1,7
 165 667 165 667 160 721 c 1,8,-1
 188 734 l 1,9,10
 199 709 199 709 224 689.5 c 128,-1,11
 249 670 249 670 279 669 c 0,12,13
 295 669 295 669 313.5 672.5 c 128,-1,14
 332 676 332 676 349.5 683.5 c 128,-1,15
 367 691 367 691 382.5 703 c 128,-1,16
 398 715 398 715 408 730 c 1,17,-1
 432 719 l 1,0,1
EndSplineSet
EndChar

StartChar: dotaccent
Encoding: 729 729 306
Width: 218
Flags: W
LayerCount: 2
Fore
SplineSet
160 673 m 0,0,1
 160 699 160 699 176 714 c 128,-1,2
 192 729 192 729 218 729 c 0,3,4
 246 729 246 729 262 714 c 128,-1,5
 278 699 278 699 278 673 c 0,6,7
 278 648 278 648 262 634 c 128,-1,8
 246 620 246 620 218 620 c 0,9,10
 192 620 192 620 176 634 c 128,-1,11
 160 648 160 648 160 673 c 0,0,1
EndSplineSet
EndChar

StartChar: ring
Encoding: 730 730 307
Width: 294
Flags: W
LayerCount: 2
Fore
SplineSet
160 666 m 0,0,1
 160 689 160 689 168 710 c 128,-1,2
 176 731 176 731 191 746.5 c 128,-1,3
 206 762 206 762 227 771 c 128,-1,4
 248 780 248 780 274 780 c 0,5,6
 312 780 312 780 333 759 c 128,-1,7
 354 738 354 738 354 705 c 0,8,9
 354 681 354 681 345 660.5 c 128,-1,10
 336 640 336 640 321 625 c 128,-1,11
 306 610 306 610 285.5 601.5 c 128,-1,12
 265 593 265 593 242 593 c 0,13,14
 204 593 204 593 182 612 c 128,-1,15
 160 631 160 631 160 666 c 0,0,1
212 670 m 0,16,17
 212 652 212 652 222.5 643 c 128,-1,18
 233 634 233 634 246 634 c 0,19,20
 265 634 265 634 283 652.5 c 128,-1,21
 301 671 301 671 301 706 c 0,22,23
 301 739 301 739 272 739 c 0,24,25
 241 739 241 739 226.5 716.5 c 128,-1,26
 212 694 212 694 212 670 c 0,16,17
EndSplineSet
EndChar

StartChar: ogonek
Encoding: 731 731 308
Width: 292
Flags: W
LayerCount: 2
Fore
SplineSet
220 15 m 1,0,1
 203 9 203 9 183.5 -4 c 128,-1,2
 164 -17 164 -17 147 -34 c 128,-1,3
 130 -51 130 -51 118.5 -72.5 c 128,-1,4
 107 -94 107 -94 107 -118 c 0,5,6
 107 -144 107 -144 121.5 -161 c 128,-1,7
 136 -178 136 -178 168 -179 c 0,8,9
 179 -179 179 -179 187 -176.5 c 128,-1,10
 195 -174 195 -174 209 -170 c 1,11,-1
 209 -201 l 1,12,13
 195 -209 195 -209 173.5 -215.5 c 128,-1,14
 152 -222 152 -222 134 -222 c 0,15,16
 74 -222 74 -222 49 -197 c 128,-1,17
 24 -172 24 -172 24 -134 c 0,18,19
 24 -79 24 -79 69 -43.5 c 128,-1,20
 114 -8 114 -8 195 16 c 1,21,-1
 220 15 l 1,0,1
EndSplineSet
EndChar

StartChar: tilde
Encoding: 732 732 309
Width: 407
Flags: W
LayerCount: 2
Fore
SplineSet
467 672 m 1,0,1
 435 640 435 640 408.5 627.5 c 128,-1,2
 382 615 382 615 359 615 c 0,3,4
 341 615 341 615 325 620.5 c 128,-1,5
 309 626 309 626 294 632 c 128,-1,6
 279 638 279 638 264.5 643.5 c 128,-1,7
 250 649 250 649 235 649 c 0,8,9
 222 649 222 649 208.5 644 c 128,-1,10
 195 639 195 639 179 625 c 1,11,-1
 160 653 l 1,12,13
 197 688 197 688 226 700 c 128,-1,14
 255 712 255 712 278 712 c 0,15,16
 296 712 296 712 311.5 707 c 128,-1,17
 327 702 327 702 341 696 c 128,-1,18
 355 690 355 690 369.5 685 c 128,-1,19
 384 680 384 680 399 680 c 0,20,21
 412 680 412 680 425 684.5 c 128,-1,22
 438 689 438 689 454 700 c 1,23,-1
 467 672 l 1,0,1
EndSplineSet
EndChar

StartChar: hungarumlaut
Encoding: 733 733 310
Width: 435
Flags: W
LayerCount: 2
Fore
SplineSet
237 768 m 1,0,1
 243 769 243 769 256 767.5 c 128,-1,2
 269 766 269 766 282.5 763 c 128,-1,3
 296 760 296 760 307 755.5 c 128,-1,4
 318 751 318 751 321 747 c 1,5,-1
 321 732 l 1,6,-1
 183 598 l 1,7,-1
 160 614 l 1,8,-1
 237 768 l 1,0,1
410 768 m 1,9,10
 417 769 417 769 429.5 767.5 c 128,-1,11
 442 766 442 766 454.5 762 c 128,-1,12
 467 758 467 758 478.5 752.5 c 128,-1,13
 490 747 490 747 495 740 c 1,14,-1
 495 727 l 1,15,-1
 296 598 l 1,16,-1
 277 616 l 1,17,-1
 410 768 l 1,9,10
EndSplineSet
EndChar

StartChar: uni0394
Encoding: 916 916 312
AltUni2: 002206.ffffffff.0
Width: 639
Flags: W
LayerCount: 2
Fore
SplineSet
-25 0 m 1,0,-1
 -25 31 l 1,1,-1
 268 700 l 1,2,-1
 296 700 l 1,3,-1
 583 31 l 1,4,-1
 583 0 l 1,5,-1
 -25 0 l 1,0,-1
261 563 m 1,6,-1
 46 62 l 1,7,-1
 467 62 l 1,8,-1
 261 563 l 1,6,-1
EndSplineSet
EndChar

StartChar: uni03A9
Encoding: 937 937 313
AltUni2: 002126.ffffffff.0
Width: 797
Flags: W
LayerCount: 2
Fore
SplineSet
67 0 m 1,0,1
 67 18 67 18 68 42.5 c 128,-1,2
 69 67 69 67 70.5 93.5 c 128,-1,3
 72 120 72 120 74 146 c 128,-1,4
 76 172 76 172 78 194 c 1,5,-1
 103 194 l 1,6,-1
 147 76 l 1,7,-1
 306 76 l 1,8,9
 262 92 262 92 222 119.5 c 128,-1,10
 182 147 182 147 151.5 185 c 128,-1,11
 121 223 121 223 103 271.5 c 128,-1,12
 85 320 85 320 85 377 c 0,13,14
 85 453 85 453 108 514.5 c 128,-1,15
 131 576 131 576 174 620 c 128,-1,16
 217 664 217 664 278.5 688 c 128,-1,17
 340 712 340 712 416 712 c 0,18,19
 494 712 494 712 553 689 c 128,-1,20
 612 666 612 666 652.5 623 c 128,-1,21
 693 580 693 580 713.5 520 c 128,-1,22
 734 460 734 460 734 387 c 0,23,24
 734 325 734 325 714.5 274 c 128,-1,25
 695 223 695 223 664 183.5 c 128,-1,26
 633 144 633 144 595 117 c 128,-1,27
 557 90 557 90 520 76 c 1,28,-1
 669 76 l 1,29,-1
 714 194 l 1,30,-1
 739 194 l 1,31,32
 741 172 741 172 743 146 c 128,-1,33
 745 120 745 120 746.5 93.5 c 128,-1,34
 748 67 748 67 749 42.5 c 128,-1,35
 750 18 750 18 750 0 c 1,36,-1
 468 0 l 1,37,-1
 468 83 l 1,38,39
 492 93 492 93 520 117 c 128,-1,40
 548 141 548 141 572 178 c 128,-1,41
 596 215 596 215 612 264.5 c 128,-1,42
 628 314 628 314 627 376 c 1,43,44
 628 434 628 434 615 486 c 128,-1,45
 602 538 602 538 575.5 576.5 c 128,-1,46
 549 615 549 615 509.5 637.5 c 128,-1,47
 470 660 470 660 416 660 c 0,48,49
 356 660 356 660 313 638 c 128,-1,50
 270 616 270 616 243 578.5 c 128,-1,51
 216 541 216 541 203.5 491.5 c 128,-1,52
 191 442 191 442 192 387 c 1,53,54
 191 325 191 325 208 273.5 c 128,-1,55
 225 222 225 222 250.5 182.5 c 128,-1,56
 276 143 276 143 305.5 117.5 c 128,-1,57
 335 92 335 92 359 83 c 1,58,-1
 359 0 l 1,59,-1
 67 0 l 1,0,1
EndSplineSet
EndChar

StartChar: pi
Encoding: 960 960 314
Width: 615
Flags: W
LayerCount: 2
Fore
SplineSet
535 50 m 1,0,-1
 531 29 l 1,1,2
 499 16 499 16 459 6 c 128,-1,3
 419 -4 419 -4 386 -9 c 1,4,-1
 361 -9 l 1,5,-1
 455 438 l 1,6,-1
 264 438 l 1,7,-1
 224 247 l 2,8,9
 217 215 217 215 207 181 c 128,-1,10
 197 147 197 147 185 114.5 c 128,-1,11
 173 82 173 82 159.5 52.5 c 128,-1,12
 146 23 146 23 132 0 c 1,13,14
 124 -4 124 -4 112.5 -5 c 128,-1,15
 101 -6 101 -6 88 -6 c 0,16,17
 67 -6 67 -6 49.5 -4 c 128,-1,18
 32 -2 32 -2 33 0 c 1,19,-1
 29 8 l 1,20,21
 59 42 59 42 88 95 c 128,-1,22
 117 148 117 148 142 208 c 128,-1,23
 167 268 167 268 186.5 328.5 c 128,-1,24
 206 389 206 389 216 438 c 1,25,-1
 199 438 l 1,26,27
 141 437 141 437 83 378 c 1,28,-1
 72 386 l 1,29,30
 83 411 83 411 95.5 433 c 128,-1,31
 108 455 108 455 127 471.5 c 128,-1,32
 146 488 146 488 173.5 497.5 c 128,-1,33
 201 507 201 507 241 506 c 0,34,35
 252 506 252 506 281.5 505 c 128,-1,36
 311 504 311 504 350 503 c 128,-1,37
 389 502 389 502 434 501 c 128,-1,38
 479 500 479 500 520 500 c 0,39,40
 552 500 552 500 573.5 500.5 c 128,-1,41
 595 501 595 501 610.5 504 c 128,-1,42
 626 507 626 507 637 512 c 128,-1,43
 648 517 648 517 660 526 c 1,44,-1
 671 517 l 1,45,46
 661 485 661 485 633.5 461 c 128,-1,47
 606 437 606 437 563 438 c 1,48,-1
 551 438 l 1,49,-1
 471 58 l 1,50,-1
 535 50 l 1,0,-1
EndSplineSet
EndChar

StartChar: afii10051
Encoding: 1026 1026 316
Width: 747
Flags: W
LayerCount: 2
Fore
SplineSet
721 290 m 0,0,1
 721 213 721 213 696.5 157.5 c 128,-1,2
 672 102 672 102 633.5 66.5 c 128,-1,3
 595 31 595 31 548.5 14 c 128,-1,4
 502 -3 502 -3 457 -3 c 1,5,-1
 456 24 l 1,6,7
 491 34 491 34 521.5 53 c 128,-1,8
 552 72 552 72 575 103 c 128,-1,9
 598 134 598 134 611.5 177.5 c 128,-1,10
 625 221 625 221 625 281 c 0,11,12
 625 303 625 303 620.5 321.5 c 128,-1,13
 616 340 616 340 604.5 353.5 c 128,-1,14
 593 367 593 367 573 374.5 c 128,-1,15
 553 382 553 382 522 382 c 0,16,17
 480 382 480 382 441 369.5 c 128,-1,18
 402 357 402 357 370 340 c 1,19,-1
 310 53 l 1,20,21
 327 48 327 48 343 42 c 128,-1,22
 359 36 359 36 375 29 c 1,23,-1
 369 0 l 1,24,-1
 110 0 l 1,25,-1
 115 29 l 1,26,27
 139 38 139 38 163 43.5 c 128,-1,28
 187 49 187 49 214 53 c 1,29,-1
 340 648 l 1,30,-1
 187 648 l 1,31,-1
 104 505 l 1,32,-1
 79 505 l 1,33,34
 80 525 80 525 83.5 550.5 c 128,-1,35
 87 576 87 576 91.5 602.5 c 128,-1,36
 96 629 96 629 100.5 654.5 c 128,-1,37
 105 680 105 680 109 700 c 1,38,-1
 689 700 l 1,39,40
 685 680 685 680 679.5 655 c 128,-1,41
 674 630 674 630 667 604.5 c 128,-1,42
 660 579 660 579 652.5 554 c 128,-1,43
 645 529 645 529 637 508 c 1,44,-1
 612 508 l 1,45,-1
 589 648 l 1,46,-1
 436 648 l 1,47,-1
 381 389 l 1,48,49
 412 404 412 404 459.5 419 c 128,-1,50
 507 434 507 434 564 434 c 0,51,52
 648 434 648 434 684.5 395.5 c 128,-1,53
 721 357 721 357 721 290 c 0,0,1
EndSplineSet
Position2: "'cpsp' Capital Spacing lookup 0 subtable" dx=40 dy=0 dh=80 dv=0
EndChar

StartChar: afii10053
Encoding: 1028 1028 318
Width: 644
Flags: W
LayerCount: 2
Fore
SplineSet
557 182 m 1,0,-1
 582 182 l 1,1,2
 582 154 582 154 576.5 111.5 c 128,-1,3
 571 69 571 69 560 29 c 1,4,5
 540 18 540 18 517 10 c 128,-1,6
 494 2 494 2 469 -3 c 128,-1,7
 444 -8 444 -8 420 -10 c 128,-1,8
 396 -12 396 -12 375 -12 c 0,9,10
 290 -12 290 -12 231 12 c 128,-1,11
 172 36 172 36 135.5 75 c 128,-1,12
 99 114 99 114 82.5 162 c 128,-1,13
 66 210 66 210 66 258 c 0,14,15
 66 360 66 360 95 443.5 c 128,-1,16
 124 527 124 527 177.5 586.5 c 128,-1,17
 231 646 231 646 307.5 679 c 128,-1,18
 384 712 384 712 480 712 c 0,19,20
 546 712 546 712 592 703 c 128,-1,21
 638 694 638 694 669 678 c 1,22,23
 666 662 666 662 660.5 640.5 c 128,-1,24
 655 619 655 619 647.5 595 c 128,-1,25
 640 571 640 571 632 548 c 128,-1,26
 624 525 624 525 617 506 c 1,27,-1
 591 506 l 1,28,-1
 570 650 l 1,29,30
 557 655 557 655 530.5 657.5 c 128,-1,31
 504 660 504 660 479 660 c 0,32,33
 423 660 423 660 374.5 642 c 128,-1,34
 326 624 326 624 287.5 588 c 128,-1,35
 249 552 249 552 221.5 498.5 c 128,-1,36
 194 445 194 445 182 375 c 1,37,-1
 511 389 l 1,38,39
 513 372 513 372 509.5 351.5 c 128,-1,40
 506 331 506 331 498 311 c 1,41,42
 464 314 464 314 423 316.5 c 128,-1,43
 382 319 382 319 339.5 321.5 c 128,-1,44
 297 324 297 324 254.5 325.5 c 128,-1,45
 212 327 212 327 176 327 c 1,46,47
 173 295 173 295 173 260 c 0,48,49
 173 198 173 198 194.5 155.5 c 128,-1,50
 216 113 216 113 248.5 87 c 128,-1,51
 281 61 281 61 319 50 c 128,-1,52
 357 39 357 39 391 40 c 1,53,54
 425 39 425 39 448.5 45 c 128,-1,55
 472 51 472 51 483 58 c 1,56,-1
 557 182 l 1,0,-1
EndSplineSet
Position2: "'cpsp' Capital Spacing lookup 0 subtable" dx=40 dy=0 dh=80 dv=0
EndChar

StartChar: afii10056
Encoding: 1031 1031 321
Width: 343
Flags: W
LayerCount: 2
Fore
SplineSet
255 0 m 1,0,-1
 -1 0 l 1,1,-1
 4 29 l 1,2,3
 48 47 48 47 90 53 c 1,4,-1
 215 646 l 1,5,6
 195 650 195 650 177 656.5 c 128,-1,7
 159 663 159 663 140 671 c 1,8,-1
 147 700 l 1,9,-1
 403 700 l 1,10,-1
 397 671 l 1,11,12
 377 663 377 663 354 656.5 c 128,-1,13
 331 650 331 650 311 646 c 1,14,-1
 186 53 l 1,15,16
 206 49 206 49 225.5 43 c 128,-1,17
 245 37 245 37 260 29 c 1,18,-1
 255 0 l 1,0,-1
149 789 m 0,19,20
 149 813 149 813 165 825 c 128,-1,21
 181 837 181 837 205 837 c 0,22,23
 230 837 230 837 245.5 825 c 128,-1,24
 261 813 261 813 261 789 c 0,25,26
 261 766 261 766 245.5 754 c 128,-1,27
 230 742 230 742 205 742 c 0,28,29
 181 742 181 742 165 754 c 128,-1,30
 149 766 149 766 149 789 c 0,19,20
326 789 m 0,31,32
 326 813 326 813 342 825 c 128,-1,33
 358 837 358 837 382 837 c 0,34,35
 407 837 407 837 422.5 825 c 128,-1,36
 438 813 438 813 438 789 c 0,37,38
 438 766 438 766 422.5 754 c 128,-1,39
 407 742 407 742 382 742 c 0,40,41
 358 742 358 742 342 754 c 128,-1,42
 326 766 326 766 326 789 c 0,31,32
EndSplineSet
Position2: "'cpsp' Capital Spacing lookup 0 subtable" dx=40 dy=0 dh=80 dv=0
EndChar

StartChar: afii10058
Encoding: 1033 1033 323
Width: 911
Flags: W
LayerCount: 2
Fore
SplineSet
322 0 m 1,0,-1
 328 29 l 1,1,2
 370 47 370 47 410 53 c 1,3,-1
 535 648 l 1,4,-1
 349 648 l 1,5,6
 324 544 324 544 301 463.5 c 128,-1,7
 278 383 278 383 257 322 c 128,-1,8
 236 261 236 261 216 217 c 128,-1,9
 196 173 196 173 176.5 140 c 128,-1,10
 157 107 157 107 137.5 82.5 c 128,-1,11
 118 58 118 58 98 38 c 0,12,13
 72 12 72 12 40 0 c 128,-1,14
 8 -12 8 -12 -18 -12 c 1,15,16
 -27 1 -27 1 -33 27.5 c 128,-1,17
 -39 54 -39 54 -40 80 c 0,18,19
 -40 86 -40 86 -39.5 92 c 128,-1,20
 -39 98 -39 98 -38 104 c 1,21,-1
 -18 129 l 1,22,-1
 93 108 l 1,23,24
 113 133 113 133 136.5 174 c 128,-1,25
 160 215 160 215 185 278.5 c 128,-1,26
 210 342 210 342 236 431 c 128,-1,27
 262 520 262 520 288 641 c 1,28,29
 229 652 229 652 193 671 c 1,30,-1
 199 700 l 1,31,-1
 730 700 l 1,32,-1
 724 671 l 1,33,34
 704 663 704 663 680.5 656.5 c 128,-1,35
 657 650 657 650 631 646 c 1,36,-1
 583 417 l 1,37,38
 602 420 602 420 628 422 c 128,-1,39
 654 424 654 424 674 424 c 0,40,41
 722 424 722 424 760.5 413.5 c 128,-1,42
 799 403 799 403 827 382.5 c 128,-1,43
 855 362 855 362 870 332.5 c 128,-1,44
 885 303 885 303 885 265 c 0,45,46
 885 186 885 186 854 134.5 c 128,-1,47
 823 83 823 83 776 52.5 c 128,-1,48
 729 22 729 22 673.5 9.5 c 128,-1,49
 618 -3 618 -3 569 -3 c 0,50,51
 564 -3 564 -3 550 -2.5 c 128,-1,52
 536 -2 536 -2 517.5 -1.5 c 128,-1,53
 499 -1 499 -1 479.5 -0.5 c 128,-1,54
 460 0 460 0 445 0 c 2,55,-1
 322 0 l 1,0,-1
641 372 m 0,56,57
 618 372 618 372 602 370.5 c 128,-1,58
 586 369 586 369 572 366 c 1,59,-1
 506 54 l 1,60,61
 510 52 510 52 519 51.5 c 128,-1,62
 528 51 528 51 538.5 50 c 128,-1,63
 549 49 549 49 559 49 c 128,-1,64
 569 49 569 49 575 49 c 0,65,66
 614 49 614 49 650.5 60.5 c 128,-1,67
 687 72 687 72 715.5 98.5 c 128,-1,68
 744 125 744 125 761.5 166 c 128,-1,69
 779 207 779 207 778 264 c 1,70,71
 779 287 779 287 772.5 307 c 128,-1,72
 766 327 766 327 750.5 341.5 c 128,-1,73
 735 356 735 356 708 364 c 128,-1,74
 681 372 681 372 641 372 c 0,56,57
EndSplineSet
Position2: "'cpsp' Capital Spacing lookup 0 subtable" dx=40 dy=0 dh=80 dv=0
EndChar

StartChar: afii10059
Encoding: 1034 1034 324
Width: 984
Flags: W
LayerCount: 2
Fore
SplineSet
397 0 m 1,0,-1
 403 29 l 1,1,2
 424 38 424 38 443 44 c 128,-1,3
 462 50 462 50 484 53 c 1,4,-1
 546 346 l 1,5,-1
 231 346 l 1,6,-1
 170 53 l 1,7,8
 208 45 208 45 239 29 c 1,9,-1
 234 0 l 1,10,-1
 -20 0 l 1,11,-1
 -14 29 l 1,12,13
 8 39 8 39 30 44 c 128,-1,14
 52 49 52 49 74 53 c 1,15,-1
 199 646 l 1,16,17
 154 653 154 653 122 671 c 1,18,-1
 128 700 l 1,19,-1
 382 700 l 1,20,-1
 376 671 l 1,21,22
 356 662 356 662 335.5 656 c 128,-1,23
 315 650 315 650 295 646 c 1,24,-1
 242 398 l 1,25,-1
 557 398 l 1,26,-1
 610 646 l 1,27,28
 590 651 590 651 574 657 c 128,-1,29
 558 663 558 663 539 671 c 1,30,-1
 545 700 l 1,31,-1
 805 700 l 1,32,-1
 799 671 l 1,33,34
 779 663 779 663 755 656.5 c 128,-1,35
 731 650 731 650 706 646 c 1,36,-1
 653 397 l 1,37,38
 672 400 672 400 698 402 c 128,-1,39
 724 404 724 404 744 404 c 0,40,41
 792 404 792 404 831.5 394 c 128,-1,42
 871 384 871 384 899 364 c 128,-1,43
 927 344 927 344 942.5 315 c 128,-1,44
 958 286 958 286 958 248 c 0,45,46
 958 174 958 174 927 125.5 c 128,-1,47
 896 77 896 77 849 48.5 c 128,-1,48
 802 20 802 20 746.5 8.5 c 128,-1,49
 691 -3 691 -3 641 -3 c 0,50,51
 636 -3 636 -3 622 -2.5 c 128,-1,52
 608 -2 608 -2 589.5 -1.5 c 128,-1,53
 571 -1 571 -1 551.5 -0.5 c 128,-1,54
 532 0 532 0 517 0 c 2,55,-1
 397 0 l 1,0,-1
714 352 m 0,56,57
 690 352 690 352 673 350.5 c 128,-1,58
 656 349 656 349 642 346 c 1,59,-1
 580 54 l 1,60,61
 584 52 584 52 593.5 51.5 c 128,-1,62
 603 51 603 51 613.5 50 c 128,-1,63
 624 49 624 49 634 49 c 128,-1,64
 644 49 644 49 649 49 c 0,65,66
 689 49 689 49 725.5 58.5 c 128,-1,67
 762 68 762 68 790 91.5 c 128,-1,68
 818 115 818 115 834.5 152.5 c 128,-1,69
 851 190 851 190 851 244 c 0,70,71
 851 265 851 265 844.5 284.5 c 128,-1,72
 838 304 838 304 822.5 319 c 128,-1,73
 807 334 807 334 780.5 343 c 128,-1,74
 754 352 754 352 714 352 c 0,56,57
EndSplineSet
Position2: "'cpsp' Capital Spacing lookup 0 subtable" dx=40 dy=0 dh=80 dv=0
EndChar

StartChar: afii10060
Encoding: 1035 1035 325
Width: 765
Flags: W
LayerCount: 2
Fore
SplineSet
436 648 m 1,0,-1
 381 389 l 1,1,2
 411 404 411 404 454.5 419 c 128,-1,3
 498 434 498 434 555 434 c 0,4,5
 621 434 621 434 659.5 401 c 128,-1,6
 698 368 698 368 699 296 c 0,7,8
 699 264 699 264 690 222 c 2,9,-1
 654 53 l 1,10,11
 688 47 688 47 720 29 c 1,12,-1
 715 0 l 1,13,-1
 548 0 l 1,14,-1
 595 229 l 2,15,16
 601 258 601 258 602 285.5 c 128,-1,17
 603 313 603 313 594.5 334.5 c 128,-1,18
 586 356 586 356 567.5 369 c 128,-1,19
 549 382 549 382 516 382 c 0,20,21
 474 382 474 382 438 369.5 c 128,-1,22
 402 357 402 357 370 340 c 1,23,-1
 310 53 l 1,24,25
 327 48 327 48 343.5 42 c 128,-1,26
 360 36 360 36 375 29 c 1,27,-1
 370 0 l 1,28,-1
 110 0 l 1,29,-1
 115 29 l 1,30,31
 139 37 139 37 163 43 c 128,-1,32
 187 49 187 49 214 53 c 1,33,-1
 339 648 l 1,34,-1
 187 648 l 1,35,-1
 105 505 l 1,36,-1
 79 505 l 1,37,38
 80 525 80 525 83 550.5 c 128,-1,39
 86 576 86 576 90 602.5 c 128,-1,40
 94 629 94 629 99 654.5 c 128,-1,41
 104 680 104 680 109 700 c 1,42,-1
 689 700 l 1,43,44
 685 680 685 680 679 655.5 c 128,-1,45
 673 631 673 631 666 605 c 128,-1,46
 659 579 659 579 651.5 554 c 128,-1,47
 644 529 644 529 637 509 c 1,48,-1
 612 509 l 1,49,-1
 589 648 l 1,50,-1
 436 648 l 1,0,-1
EndSplineSet
Position2: "'cpsp' Capital Spacing lookup 0 subtable" dx=40 dy=0 dh=80 dv=0
EndChar

StartChar: afii10145
Encoding: 1039 1039 328
Width: 709
Flags: W
LayerCount: 2
Fore
SplineSet
535 700 m 1,0,-1
 788 700 l 1,1,-1
 783 671 l 1,2,3
 766 663 766 663 745 656.5 c 128,-1,4
 724 650 724 650 695 646 c 1,5,-1
 569 53 l 1,6,7
 609 45 609 45 646 29 c 1,8,-1
 640 0 l 1,9,-1
 356 0 l 1,10,11
 342 -45 342 -45 324 -92.5 c 128,-1,12
 306 -140 306 -140 282 -191 c 1,13,-1
 256 -191 l 1,14,15
 256 -142 256 -142 257.5 -94.5 c 128,-1,16
 259 -47 259 -47 263 0 c 1,17,-1
 -20 0 l 1,18,-1
 -14 29 l 1,19,20
 6 39 6 39 28.5 44 c 128,-1,21
 51 49 51 49 73 53 c 1,22,-1
 198 646 l 1,23,24
 179 648 179 648 160 654.5 c 128,-1,25
 141 661 141 661 122 671 c 1,26,-1
 128 700 l 1,27,-1
 381 700 l 1,28,-1
 376 671 l 1,29,30
 364 664 364 664 344 657.5 c 128,-1,31
 324 651 324 651 294 646 c 1,32,-1
 169 52 l 1,33,-1
 473 52 l 1,34,-1
 599 646 l 1,35,36
 581 651 581 651 563 657 c 128,-1,37
 545 663 545 663 530 671 c 1,38,-1
 535 700 l 1,0,-1
EndSplineSet
Position2: "'cpsp' Capital Spacing lookup 0 subtable" dx=40 dy=0 dh=80 dv=0
EndChar

StartChar: afii10018
Encoding: 1041 1041 330
Width: 590
Flags: W
LayerCount: 2
Fore
SplineSet
198 646 m 1,0,1
 176 650 176 650 157 656.5 c 128,-1,2
 138 663 138 663 121 671 c 1,3,-1
 128 700 l 1,4,-1
 607 700 l 1,5,6
 600 660 600 660 587 610.5 c 128,-1,7
 574 561 574 561 557 519 c 1,8,-1
 531 519 l 1,9,-1
 508 648 l 1,10,-1
 294 648 l 1,11,-1
 244 407 l 1,12,13
 268 411 268 411 291.5 412.5 c 128,-1,14
 315 414 315 414 335 414 c 0,15,16
 434 414 434 414 490.5 377.5 c 128,-1,17
 547 341 547 341 547 263 c 0,18,19
 547 206 547 206 525.5 157.5 c 128,-1,20
 504 109 504 109 463.5 73.5 c 128,-1,21
 423 38 423 38 364.5 17.5 c 128,-1,22
 306 -3 306 -3 233 -3 c 0,23,24
 228 -3 228 -3 213.5 -2.5 c 128,-1,25
 199 -2 199 -2 180 -1.5 c 128,-1,26
 161 -1 161 -1 141 -0.5 c 128,-1,27
 121 0 121 0 106 0 c 2,28,-1
 -20 0 l 1,29,-1
 -15 29 l 1,30,31
 28 47 28 47 73 53 c 1,32,-1
 198 646 l 1,0,1
311 362 m 0,33,34
 288 362 288 362 269.5 360.5 c 128,-1,35
 251 359 251 359 233 357 c 1,36,-1
 169 54 l 1,37,38
 173 52 173 52 182.5 51.5 c 128,-1,39
 192 51 192 51 202.5 50 c 128,-1,40
 213 49 213 49 223 49 c 128,-1,41
 233 49 233 49 239 49 c 0,42,43
 286 49 286 49 323.5 64 c 128,-1,44
 361 79 361 79 387 106.5 c 128,-1,45
 413 134 413 134 426.5 171.5 c 128,-1,46
 440 209 440 209 440 253 c 0,47,48
 440 276 440 276 435 296 c 128,-1,49
 430 316 430 316 416 330.5 c 128,-1,50
 402 345 402 345 376.5 353.5 c 128,-1,51
 351 362 351 362 311 362 c 0,33,34
EndSplineSet
Position2: "'cpsp' Capital Spacing lookup 0 subtable" dx=40 dy=0 dh=80 dv=0
EndChar

StartChar: afii10020
Encoding: 1043 1043 332
Width: 497
Flags: W
LayerCount: 2
Fore
SplineSet
169 53 m 1,0,1
 218 45 218 45 259 29 c 1,2,-1
 254 0 l 1,3,-1
 -20 0 l 1,4,-1
 -15 29 l 1,5,6
 30 46 30 46 73 53 c 1,7,-1
 198 646 l 1,8,9
 178 650 178 650 159 656.5 c 128,-1,10
 140 663 140 663 121 671 c 1,11,-1
 128 700 l 1,12,-1
 596 700 l 1,13,14
 592 680 592 680 586 654 c 128,-1,15
 580 628 580 628 572.5 600 c 128,-1,16
 565 572 565 572 557 545.5 c 128,-1,17
 549 519 549 519 542 498 c 1,18,-1
 516 498 l 1,19,-1
 496 648 l 1,20,-1
 294 648 l 1,21,-1
 169 53 l 1,0,1
EndSplineSet
Position2: "'cpsp' Capital Spacing lookup 0 subtable" dx=40 dy=0 dh=80 dv=0
EndChar

StartChar: afii10021
Encoding: 1044 1044 333
Width: 678
Flags: W
LayerCount: 2
Fore
SplineSet
634 52 m 1,0,1
 629 31 629 31 622 5 c 128,-1,2
 615 -21 615 -21 607 -49 c 128,-1,3
 599 -77 599 -77 589.5 -104 c 128,-1,4
 580 -131 580 -131 571 -151 c 1,5,-1
 545 -151 l 1,6,-1
 539 0 l 1,7,-1
 47 0 l 1,8,-1
 -32 -151 l 1,9,-1
 -56 -151 l 1,10,11
 -55 -132 -55 -132 -53 -105 c 128,-1,12
 -51 -78 -51 -78 -48.5 -50 c 128,-1,13
 -46 -22 -46 -22 -42.5 4.5 c 128,-1,14
 -39 31 -39 31 -35 52 c 1,15,-1
 48 52 l 1,16,17
 83 93 83 93 119.5 158.5 c 128,-1,18
 156 224 156 224 189.5 303 c 128,-1,19
 223 382 223 382 251.5 469 c 128,-1,20
 280 556 280 556 298 641 c 1,21,22
 273 646 273 646 247.5 653.5 c 128,-1,23
 222 661 222 661 202 671 c 1,24,-1
 209 700 l 1,25,-1
 739 700 l 1,26,-1
 732 671 l 1,27,28
 700 657 700 657 645 646 c 1,29,-1
 520 52 l 1,30,-1
 634 52 l 1,0,1
424 52 m 1,31,-1
 549 648 l 1,32,-1
 359 648 l 1,33,34
 327 525 327 525 294 428.5 c 128,-1,35
 261 332 261 332 229.5 258.5 c 128,-1,36
 198 185 198 185 168.5 134 c 128,-1,37
 139 83 139 83 113 52 c 1,38,-1
 424 52 l 1,31,-1
EndSplineSet
Position2: "'cpsp' Capital Spacing lookup 0 subtable" dx=40 dy=0 dh=80 dv=0
EndChar

StartChar: afii10024
Encoding: 1046 1046 335
Width: 938
Flags: W
LayerCount: 2
Fore
SplineSet
512 646 m 1,0,1
 492 652 492 652 476 658 c 128,-1,2
 460 664 460 664 446 671 c 1,3,-1
 452 700 l 1,4,-1
 683 700 l 1,5,-1
 677 671 l 1,6,7
 664 665 664 665 646.5 658.5 c 128,-1,8
 629 652 629 652 607 646 c 1,9,-1
 548 369 l 1,10,-1
 615 383 l 1,11,-1
 838 646 l 1,12,13
 820 651 820 651 804 657 c 128,-1,14
 788 663 788 663 771 671 c 1,15,-1
 777 700 l 1,16,-1
 1004 700 l 1,17,-1
 998 671 l 1,18,19
 978 663 978 663 957.5 657 c 128,-1,20
 937 651 937 651 917 646 c 1,21,-1
 674 375 l 1,22,23
 690 344 690 344 710 304 c 128,-1,24
 730 264 730 264 753 220.5 c 128,-1,25
 776 177 776 177 802 133 c 128,-1,26
 828 89 828 89 857 49 c 1,27,-1
 899 25 l 1,28,-1
 894 0 l 1,29,-1
 775 0 l 1,30,-1
 747 25 l 1,31,32
 724 59 724 59 705 97 c 128,-1,33
 686 135 686 135 668.5 174.5 c 128,-1,34
 651 214 651 214 635 254.5 c 128,-1,35
 619 295 619 295 601 335 c 1,36,-1
 541 335 l 1,37,-1
 481 53 l 1,38,39
 497 48 497 48 512 42.5 c 128,-1,40
 527 37 527 37 541 29 c 1,41,-1
 536 0 l 1,42,-1
 304 0 l 1,43,-1
 309 29 l 1,44,45
 344 46 344 46 387 53 c 1,46,-1
 448 343 l 1,47,-1
 379 329 l 1,48,49
 355 295 355 295 327.5 256.5 c 128,-1,50
 300 218 300 218 269 178 c 128,-1,51
 238 138 238 138 204.5 98.5 c 128,-1,52
 171 59 171 59 134 25 c 1,53,-1
 95 0 l 1,54,-1
 -36 0 l 1,55,-1
 -31 25 l 1,56,-1
 21 49 l 1,57,58
 66 89 66 89 108 132.5 c 128,-1,59
 150 176 150 176 188.5 219.5 c 128,-1,60
 227 263 227 263 261.5 303 c 128,-1,61
 296 343 296 343 325 376 c 1,62,-1
 197 646 l 1,63,64
 157 657 157 657 132 671 c 1,65,-1
 138 700 l 1,66,-1
 351 700 l 1,67,-1
 345 671 l 1,68,69
 314 656 314 656 272 646 c 1,70,-1
 386 377 l 1,71,-1
 455 377 l 1,72,-1
 512 646 l 1,0,1
EndSplineSet
Position2: "'cpsp' Capital Spacing lookup 0 subtable" dx=40 dy=0 dh=80 dv=0
EndChar

StartChar: afii10026
Encoding: 1048 1048 337
Width: 729
Flags: W
LayerCount: 2
Fore
SplineSet
233 0 m 1,0,-1
 -20 0 l 1,1,-1
 -15 29 l 1,2,3
 29 47 29 47 73 53 c 1,4,-1
 198 646 l 1,5,6
 179 651 179 651 159 656.5 c 128,-1,7
 139 662 139 662 121 671 c 1,8,-1
 128 700 l 1,9,-1
 381 700 l 1,10,-1
 375 671 l 1,11,12
 358 663 358 663 337.5 657 c 128,-1,13
 317 651 317 651 294 646 c 1,14,-1
 202 212 l 1,15,-1
 176 137 l 1,16,-1
 237 218 l 1,17,-1
 619 622 l 1,18,-1
 624 646 l 1,19,20
 602 651 602 651 583 657 c 128,-1,21
 564 663 564 663 549 671 c 1,22,-1
 555 700 l 1,23,-1
 808 700 l 1,24,-1
 802 671 l 1,25,26
 782 663 782 663 760 657 c 128,-1,27
 738 651 738 651 715 646 c 1,28,-1
 589 53 l 1,29,30
 610 49 610 49 629.5 43 c 128,-1,31
 649 37 649 37 665 29 c 1,32,-1
 660 0 l 1,33,-1
 407 0 l 1,34,-1
 412 29 l 1,35,36
 429 36 429 36 450 42.5 c 128,-1,37
 471 49 471 49 494 53 c 1,38,-1
 586 486 l 1,39,-1
 612 561 l 1,40,-1
 556 485 l 1,41,-1
 167 75 l 1,42,-1
 163 53 l 1,43,44
 185 49 185 49 204 43 c 128,-1,45
 223 37 223 37 238 29 c 1,46,-1
 233 0 l 1,0,-1
EndSplineSet
Position2: "'cpsp' Capital Spacing lookup 0 subtable" dx=40 dy=0 dh=80 dv=0
EndChar

StartChar: afii10029
Encoding: 1051 1051 340
Width: 646
Flags: W
LayerCount: 2
Fore
SplineSet
288 641 m 1,0,1
 229 652 229 652 193 671 c 1,2,-1
 199 700 l 1,3,-1
 724 700 l 1,4,-1
 718 671 l 1,5,6
 700 663 700 663 678 656.5 c 128,-1,7
 656 650 656 650 631 646 c 1,8,-1
 506 53 l 1,9,10
 527 49 527 49 546.5 43 c 128,-1,11
 566 37 566 37 582 29 c 1,12,-1
 576 0 l 1,13,-1
 322 0 l 1,14,-1
 328 29 l 1,15,16
 348 37 348 37 368.5 42.5 c 128,-1,17
 389 48 389 48 410 53 c 1,18,-1
 535 648 l 1,19,-1
 349 648 l 1,20,21
 324 543 324 543 301 463 c 128,-1,22
 278 383 278 383 257 322 c 128,-1,23
 236 261 236 261 216 216.5 c 128,-1,24
 196 172 196 172 176.5 139 c 128,-1,25
 157 106 157 106 137.5 82 c 128,-1,26
 118 58 118 58 98 38 c 0,27,28
 72 12 72 12 40 0 c 128,-1,29
 8 -12 8 -12 -18 -12 c 1,30,31
 -24 -4 -24 -4 -28.5 10.5 c 128,-1,32
 -33 25 -33 25 -36 41.5 c 128,-1,33
 -39 58 -39 58 -39.5 74.5 c 128,-1,34
 -40 91 -40 91 -38 104 c 1,35,-1
 -18 129 l 1,36,-1
 93 108 l 1,37,38
 113 133 113 133 136.5 174 c 128,-1,39
 160 215 160 215 185 278.5 c 128,-1,40
 210 342 210 342 236 431 c 128,-1,41
 262 520 262 520 288 641 c 1,0,1
EndSplineSet
Position2: "'cpsp' Capital Spacing lookup 0 subtable" dx=40 dy=0 dh=80 dv=0
EndChar

StartChar: afii10033
Encoding: 1055 1055 344
Width: 709
Flags: W
LayerCount: 2
Fore
SplineSet
233 0 m 1,0,-1
 -20 0 l 1,1,-1
 -15 29 l 1,2,3
 2 37 2 37 23 43 c 128,-1,4
 44 49 44 49 73 53 c 1,5,-1
 198 646 l 1,6,7
 178 650 178 650 159 656.5 c 128,-1,8
 140 663 140 663 121 671 c 1,9,-1
 128 700 l 1,10,-1
 788 700 l 1,11,-1
 782 671 l 1,12,13
 762 661 762 661 739.5 655.5 c 128,-1,14
 717 650 717 650 695 646 c 1,15,-1
 569 53 l 1,16,17
 608 48 608 48 645 29 c 1,18,-1
 640 0 l 1,19,-1
 387 0 l 1,20,-1
 392 29 l 1,21,22
 404 36 404 36 424 42 c 128,-1,23
 444 48 444 48 473 53 c 1,24,-1
 599 648 l 1,25,-1
 294 648 l 1,26,-1
 169 53 l 1,27,28
 207 45 207 45 238 29 c 1,29,-1
 233 0 l 1,0,-1
EndSplineSet
Position2: "'cpsp' Capital Spacing lookup 0 subtable" dx=40 dy=0 dh=80 dv=0
EndChar

StartChar: afii10037
Encoding: 1059 1059 348
Width: 650
Flags: W
LayerCount: 2
Fore
SplineSet
609 646 m 1,0,1
 563 655 563 655 529 671 c 1,2,-1
 535 700 l 1,3,-1
 758 700 l 1,4,-1
 752 671 l 1,5,6
 738 664 738 664 719 657.5 c 128,-1,7
 700 651 700 651 675 646 c 1,8,-1
 379 172 l 1,9,10
 317 77 317 77 264.5 30.5 c 128,-1,11
 212 -16 212 -16 155 -5 c 1,12,13
 150 4 150 4 146.5 18 c 128,-1,14
 143 32 143 32 140 47 c 128,-1,15
 137 62 137 62 136 77 c 128,-1,16
 135 92 135 92 137 104 c 1,17,-1
 166 128 l 1,18,-1
 271 101 l 1,19,20
 276 105 276 105 283 113 c 128,-1,21
 290 121 290 121 297 131 c 128,-1,22
 304 141 304 141 310.5 151 c 128,-1,23
 317 161 317 161 321 169 c 1,24,-1
 163 646 l 1,25,26
 146 651 146 651 128 656.5 c 128,-1,27
 110 662 110 662 93 671 c 1,28,-1
 99 700 l 1,29,-1
 362 700 l 1,30,-1
 356 671 l 1,31,32
 339 663 339 663 316.5 657 c 128,-1,33
 294 651 294 651 269 646 c 1,34,-1
 375 315 l 1,35,-1
 383 251 l 1,36,-1
 385 251 l 1,37,-1
 419 317 l 1,38,-1
 609 646 l 1,0,1
EndSplineSet
Position2: "'cpsp' Capital Spacing lookup 0 subtable" dx=40 dy=0 dh=80 dv=0
EndChar

StartChar: afii10038
Encoding: 1060 1060 349
Width: 776
Flags: W
LayerCount: 2
Fore
SplineSet
380 700 m 1,0,-1
 605 700 l 1,1,-1
 599 671 l 1,2,3
 587 664 587 664 570 658 c 128,-1,4
 553 652 553 652 528 647 c 1,5,-1
 517 596 l 1,6,7
 538 601 538 601 560.5 602 c 128,-1,8
 583 603 583 603 599 603 c 0,9,10
 647 603 647 603 682 589 c 128,-1,11
 717 575 717 575 739.5 550.5 c 128,-1,12
 762 526 762 526 773 492.5 c 128,-1,13
 784 459 784 459 784 421 c 0,14,15
 784 356 784 356 763 299 c 128,-1,16
 742 242 742 242 703 199.5 c 128,-1,17
 664 157 664 157 609 132.5 c 128,-1,18
 554 108 554 108 487 108 c 0,19,20
 476 108 476 108 454 109.5 c 128,-1,21
 432 111 432 111 415 114 c 1,22,-1
 403 53 l 1,23,24
 441 43 441 43 463 29 c 1,25,-1
 457 0 l 1,26,-1
 232 0 l 1,27,-1
 237 29 l 1,28,29
 271 44 271 44 313 52 c 1,30,-1
 326 112 l 1,31,32
 306 110 306 110 290 109 c 128,-1,33
 274 108 274 108 259 108 c 0,34,35
 222 108 222 108 186 119 c 128,-1,36
 150 130 150 130 122 152.5 c 128,-1,37
 94 175 94 175 77 210 c 128,-1,38
 60 245 60 245 60 292 c 0,39,40
 60 355 60 355 81.5 411.5 c 128,-1,41
 103 468 103 468 142 510.5 c 128,-1,42
 181 553 181 553 236.5 578 c 128,-1,43
 292 603 292 603 360 603 c 0,44,45
 373 603 373 603 394.5 602 c 128,-1,46
 416 601 416 601 430 599 c 1,47,-1
 440 647 l 1,48,49
 418 652 418 652 401.5 657.5 c 128,-1,50
 385 663 385 663 374 671 c 1,51,-1
 380 700 l 1,0,-1
563 556 m 0,52,53
 548 556 548 556 534.5 555 c 128,-1,54
 521 554 521 554 507 550 c 1,55,-1
 424 158 l 1,56,57
 433 156 433 156 451.5 155.5 c 128,-1,58
 470 155 470 155 478 155 c 0,59,60
 529 155 529 155 568.5 175.5 c 128,-1,61
 608 196 608 196 634.5 231.5 c 128,-1,62
 661 267 661 267 675 314.5 c 128,-1,63
 689 362 689 362 688 417 c 1,64,65
 689 488 689 488 655 521.5 c 128,-1,66
 621 555 621 555 563 556 c 0,52,53
290 155 m 0,67,68
 302 155 302 155 315.5 156.5 c 128,-1,69
 329 158 329 158 337 160 c 1,70,-1
 421 553 l 1,71,72
 410 555 410 555 393.5 555.5 c 128,-1,73
 377 556 377 556 365 556 c 0,74,75
 317 556 317 556 278 537 c 128,-1,76
 239 518 239 518 211.5 483.5 c 128,-1,77
 184 449 184 449 169.5 402 c 128,-1,78
 155 355 155 355 156 298 c 1,79,80
 155 264 155 264 166.5 237.5 c 128,-1,81
 178 211 178 211 196.5 192.5 c 128,-1,82
 215 174 215 174 239.5 164.5 c 128,-1,83
 264 155 264 155 290 155 c 0,67,68
EndSplineSet
Position2: "'cpsp' Capital Spacing lookup 0 subtable" dx=40 dy=0 dh=80 dv=0
EndChar

StartChar: afii10040
Encoding: 1062 1062 351
Width: 723
Flags: W
LayerCount: 2
Fore
SplineSet
-20 0 m 1,0,-1
 -15 29 l 1,1,2
 16 42 16 42 73 54 c 1,3,-1
 198 646 l 1,4,5
 161 652 161 652 121 671 c 1,6,-1
 128 700 l 1,7,-1
 381 700 l 1,8,-1
 374 671 l 1,9,10
 344 657 344 657 294 646 c 1,11,-1
 169 52 l 1,12,-1
 467 52 l 1,13,-1
 594 646 l 1,14,15
 576 650 576 650 558.5 656 c 128,-1,16
 541 662 541 662 524 671 c 1,17,-1
 530 700 l 1,18,-1
 783 700 l 1,19,-1
 777 671 l 1,20,21
 756 663 756 663 734 656.5 c 128,-1,22
 712 650 712 650 690 646 c 1,23,-1
 563 52 l 1,24,-1
 678 52 l 1,25,26
 673 31 673 31 666 4.5 c 128,-1,27
 659 -22 659 -22 650 -49.5 c 128,-1,28
 641 -77 641 -77 631.5 -103.5 c 128,-1,29
 622 -130 622 -130 614 -151 c 1,30,-1
 589 -151 l 1,31,-1
 583 0 l 1,32,-1
 -20 0 l 1,0,-1
EndSplineSet
Position2: "'cpsp' Capital Spacing lookup 0 subtable" dx=40 dy=0 dh=80 dv=0
EndChar
